<svg xmlns="http://www.w3.org/2000/svg" width="50" height="50" viewBox="0 0 50 50" fill="none">
<path fill-rule="evenodd" clip-rule="evenodd" d="M43.4487 32.299L31.6987 10.549C30.2311 7.89634 27.4387 6.25 24.4071 6.25C21.3755 6.25 18.5831 7.89634 17.1154 10.549L5.17791 32.2781C3.77541 34.8588 3.83505 37.9873 5.33488 40.5126C6.83472 43.038 9.55324 44.5873 12.4904 44.5906H36.1154C39.0501 44.5907 41.7684 43.0471 43.272 40.5269C44.7756 38.0067 44.8427 34.8814 43.4487 32.299ZM22.6154 20.299C22.6154 19.436 23.315 18.7365 24.1779 18.7365C25.0409 18.7365 25.7404 19.436 25.7404 20.299V26.7365C25.7404 27.5994 25.0409 28.299 24.1779 28.299C23.315 28.299 22.6154 27.5994 22.6154 26.7365V20.299ZM24.1987 34.3615C25.0617 34.3615 25.7612 33.6619 25.7612 32.799L25.7404 32.7781C25.7404 31.9267 25.0502 31.2365 24.1987 31.2365C23.3405 31.2477 22.6475 31.9407 22.6362 32.799C22.6362 33.6619 23.3358 34.3615 24.1987 34.3615Z" fill="#D10000"/>
</svg>