<svg width="76" height="76" viewBox="0 0 76 76" fill="none" xmlns="http://www.w3.org/2000/svg">
<path fill-rule="evenodd" clip-rule="evenodd" d="M16.378 47.4416C18.5307 43.5394 22.6372 41.1188 27.0938 41.125C32.3663 41.203 36.994 44.6547 38.5718 49.6862C40.1497 54.7177 38.3217 60.1939 34.0379 63.2687C29.7541 66.3436 23.981 66.3234 19.7188 63.2187L15.1875 67.9375C14.74 68.3876 14.1346 68.6455 13.5 68.6562C12.8926 68.6626 12.3077 68.4264 11.875 68C10.9611 67.0849 10.9611 65.6025 11.875 64.6875L16.4063 59.875H16.75C14.3678 56.1085 14.2253 51.3438 16.378 47.4416ZM19.5625 53.3437C19.5625 57.5031 22.9344 60.875 27.0938 60.875V60.7812C31.2168 60.7816 34.5737 57.4665 34.625 53.3437C34.625 49.1843 31.2532 45.8125 27.0938 45.8125C22.9344 45.8125 19.5625 49.1843 19.5625 53.3437Z" fill="black"/>
<path fill-rule="evenodd" clip-rule="evenodd" d="M42.2185 7.9375L64.0935 29.8125C64.6146 30.2463 64.9224 30.8846 64.9372 31.5625V53.4375C64.9372 57.3743 63.3733 61.1499 60.5896 63.9336C57.8058 66.7174 54.0303 68.2813 50.0935 68.2813H41.1247C39.8303 68.2813 38.781 67.2319 38.781 65.9375C38.781 64.6431 39.8303 63.5938 41.1247 63.5938H49.9372C55.5464 63.5938 60.0935 59.0466 60.0935 53.4375V33.9062H46.8122C42.0731 33.8891 38.2356 30.0516 38.2185 25.3125V12.0312H31.1872C25.5852 12.0484 21.0481 16.5855 21.031 22.1875V37.8125C21.031 39.1069 19.9816 40.1562 18.6872 40.1562C17.3928 40.1562 16.3435 39.1069 16.3435 37.8125V22.1875C16.3185 18.2345 17.8714 14.4348 20.6578 11.6307C23.4443 8.82667 27.2341 7.24992 31.1872 7.25H40.5622C41.1836 7.25055 41.7794 7.49784 42.2185 7.9375ZM42.906 15.25V25.3125C42.906 27.4699 44.6549 29.2188 46.8122 29.2188H56.7497L42.906 15.25Z" fill="black"/>
</svg>
