<svg width="26" height="26" viewBox="0 0 26 26" fill="none" xmlns="http://www.w3.org/2000/svg">
<path d="M13.0001 21.3646C12.793 21.3644 12.5944 21.282 12.448 21.1354L5.15636 13.8438C4.96098 13.6428 4.88765 13.3529 4.964 13.0832C5.04035 12.8135 5.25478 12.605 5.5265 12.5363C5.79823 12.4676 6.08598 12.549 6.28136 12.75L13.0001 19.4688L19.7189 12.75C19.9136 12.541 20.2069 12.4549 20.4837 12.5256C20.7606 12.5963 20.9767 12.8125 21.0474 13.0893C21.1181 13.3661 21.032 13.6594 20.823 13.8542L13.5314 21.1458C13.3885 21.2836 13.1986 21.3618 13.0001 21.3646Z" fill="black"/>
<path d="M13.0001 21.3542C12.571 21.3486 12.2245 21.002 12.2189 20.5729V4.94792C12.2189 4.6688 12.3678 4.41089 12.6095 4.27133C12.8512 4.13178 13.149 4.13178 13.3907 4.27133C13.6325 4.41089 13.7814 4.6688 13.7814 4.94792V20.5729C13.7758 21.002 13.4292 21.3486 13.0001 21.3542Z" fill="black"/>
<path d="M13.0001 22.125C12.5858 22.1246 12.1887 21.9598 11.8959 21.6667L4.60428 14.375C3.99446 13.7623 3.99679 12.7713 4.60949 12.1615C5.22218 11.5516 6.21321 11.554 6.82303 12.1667L13.0001 18.3646L19.1668 12.1875C19.7766 11.5748 20.7676 11.5725 21.3803 12.1823C21.993 12.7921 21.9953 13.7831 21.3855 14.3958L14.0939 21.6875C13.8003 21.9704 13.4078 22.1275 13.0001 22.125Z" fill="black"/>
<path d="M13.0001 22.125C12.1372 22.125 11.4376 21.4254 11.4376 20.5625V4.9375C11.4376 4.07456 12.1372 3.375 13.0001 3.375C13.8631 3.375 14.5626 4.07456 14.5626 4.9375V20.5625C14.5626 21.4254 13.8631 22.125 13.0001 22.125Z" fill="black"/>
</svg>
