<svg width="26" height="26" viewBox="0 0 26 26" fill="none" xmlns="http://www.w3.org/2000/svg">
<g id="Arrow Icon">
<path id="Icon" d="M12.4585 21.8332C12.0461 21.8333 11.65 21.6726 11.3543 21.3852L4.06264 14.0936C3.45336 13.4835 3.45336 12.4953 4.06264 11.8852L11.3543 4.59357C11.7506 4.19909 12.3273 4.04602 12.8671 4.19202C13.4069 4.33802 13.8278 4.76091 13.9713 5.3014C14.1148 5.84188 13.959 6.41784 13.5626 6.81232L8.9455 11.4372H20.8334C21.6963 11.4372 22.3959 12.1368 22.3959 12.9997C22.3959 13.8627 21.6963 14.5622 20.8334 14.5622H8.95062L13.5626 19.1665C14.0089 19.6133 14.1423 20.2849 13.9007 20.8684C13.6591 21.4519 13.09 21.8326 12.4585 21.8332Z" fill="black"/>
</g>
</svg>
