<svg width="40" height="40" viewBox="0 0 40 40" fill="none" xmlns="http://www.w3.org/2000/svg">
<path d="M19.4585 28.8332C19.0461 28.8333 18.65 28.6726 18.3543 28.3852L11.0626 21.0936C10.4534 20.4835 10.4534 19.4953 11.0626 18.8852L18.3543 11.5936C18.7506 11.1991 19.3273 11.046 19.8671 11.192C20.4069 11.338 20.8278 11.7609 20.9713 12.3014C21.1148 12.8419 20.959 13.4178 20.5626 13.8123L15.9455 18.4372H27.8334C28.6963 18.4372 29.3959 19.1368 29.3959 19.9997C29.3959 20.8627 28.6963 21.5622 27.8334 21.5622H15.9506L20.5626 26.1665C21.0089 26.6133 21.1423 27.2849 20.9007 27.8684C20.6591 28.4519 20.09 28.8326 19.4585 28.8332Z" fill="black"/>
<rect x="0.5" y="0.5" width="39" height="39" rx="9.5" stroke="black"/>
</svg>
