<svg width="50" height="50" viewBox="0 0 50 50" fill="none" xmlns="http://www.w3.org/2000/svg">
<path fill-rule="evenodd" clip-rule="evenodd" d="M44.8127 5.375C43.6434 4.21529 42.0637 3.56393 40.4168 3.5625C38.9902 3.56714 37.6082 4.05969 36.5002 4.95833L16.9793 20.8333L16.6668 21.1458C13.9461 23.8433 13.3425 28.0173 15.1877 31.375C14.4307 31.144 13.6456 31.0179 12.8543 31C8.25196 31 4.521 34.731 4.521 39.3333V44.5417C4.521 46.2676 5.92011 47.6667 7.646 47.6667H12.8543C15.7473 47.6508 18.425 46.1357 19.9284 43.664C21.4318 41.1924 21.5457 38.1178 20.2293 35.5417C21.062 35.8228 21.9339 35.9705 22.8127 35.9792C25.1201 35.9947 27.336 35.0782 28.9585 33.4375L29.1668 33.2083L45.146 13.6875C47.1629 11.2344 47.0195 7.65872 44.8127 5.375ZM12.9377 44.5417H7.72933V39.3333C7.72933 36.4569 10.0612 34.125 12.9377 34.125C15.8141 34.125 18.146 36.4569 18.146 39.3333C18.146 42.2098 15.8141 44.5417 12.9377 44.5417ZM26.8335 31.25L42.8127 11.7083C43.7921 10.4814 43.6934 8.71448 42.5833 7.60438C41.4732 6.49428 39.7062 6.39552 38.4793 7.375L18.9585 23.3542C16.7781 25.5288 16.7735 29.0592 18.9481 31.2396C21.1227 33.42 24.6531 33.4246 26.8335 31.25Z" fill="black"/>
<path d="M27.5002 20.4792L21.2502 26.7292C20.6409 27.3392 20.6409 28.3275 21.2502 28.9375C21.8602 29.5468 22.8485 29.5468 23.4585 28.9375L29.7085 22.6875C30.1265 22.298 30.2986 21.7113 30.1572 21.1577C30.0158 20.6041 29.5835 20.1718 29.0299 20.0304C28.4763 19.8891 27.8897 20.0611 27.5002 20.4792Z" fill="black"/>
</svg>
