<svg xmlns="http://www.w3.org/2000/svg" width="42" height="34" viewBox="0 0 42 34" fill="none">
<path fill-rule="evenodd" clip-rule="evenodd" d="M9.07026 0.333035H32.9299C35.2892 0.327209 37.554 1.26037 39.2243 2.92662C40.8947 4.59287 41.8334 6.85527 41.8334 9.21461V24.3462C41.8334 26.7055 40.8947 28.9679 39.2243 30.6342C37.554 32.3004 35.2892 33.2336 32.9299 33.2278H9.07026C6.71092 33.2336 4.44622 32.3004 2.77585 30.6342C1.10549 28.9679 0.166741 26.7055 0.166748 24.3462V9.21461C0.166741 6.85527 1.10549 4.59287 2.77585 2.92662C4.44622 1.26037 6.71092 0.327209 9.07026 0.333035ZM32.9299 29.9383C35.9798 29.9391 38.4725 27.5049 38.5439 24.4558V9.21461C38.5319 6.12264 36.0219 3.62248 32.9299 3.62251H9.07026C5.97825 3.62248 3.4683 6.12264 3.45622 9.21461V24.3462C3.4683 27.4382 5.97825 29.9383 9.07026 29.9383H32.9299Z" fill="black"/>
<path fill-rule="evenodd" clip-rule="evenodd" d="M12.0746 17.3945C12.0746 12.5499 16.002 8.62254 20.8466 8.62254C25.6912 8.62254 29.6185 12.5499 29.6185 17.3945C29.6185 22.2391 25.6912 26.1664 20.8466 26.1664C16.002 26.1664 12.0746 22.2391 12.0746 17.3945ZM15.3641 17.3945C15.3641 20.4223 17.8187 22.8769 20.8466 22.8769C23.8745 22.8769 26.329 20.4223 26.329 17.3945C26.329 14.3666 23.8745 11.912 20.8466 11.912C17.8187 11.912 15.3641 14.3666 15.3641 17.3945Z" fill="black"/>
<path d="M29.6185 7.44929C29.6185 6.87399 30.0849 6.40762 30.6602 6.40762H32.9628C33.5381 6.40762 34.0045 6.87399 34.0045 7.44929V9.77385C34.0045 10.3491 33.5381 10.8155 32.9628 10.8155H30.6602C30.0849 10.8155 29.6185 10.3491 29.6185 9.77385V7.44929Z" fill="black"/>
</svg>