<svg width="50" height="50" viewBox="0 0 50 50" fill="none" xmlns="http://www.w3.org/2000/svg">
<path d="M21.4312 4.43778C21.3068 3.57346 21.9919 2.80434 22.871 2.82146L38.9517 3.13458C40.7775 3.17013 42.2304 4.6658 42.2005 6.47913L41.8044 30.4739C41.7915 31.2528 42.4169 31.8946 43.2013 31.9073C43.9856 31.9201 44.6319 31.299 44.6447 30.5201L45.0408 6.52537C45.0964 3.15776 42.3983 0.380089 39.0073 0.314061L22.9266 0.000938989C20.2967 -0.0502704 18.2469 2.25082 18.6189 4.83675C18.7299 5.60793 19.4494 6.14379 20.2259 6.03361C21.0025 5.92344 21.5421 5.20896 21.4312 4.43778Z" fill="black"/>
<path fill-rule="evenodd" clip-rule="evenodd" d="M24.7149 19.7273C27.0296 19.6839 29.4835 20.5922 31.1057 23.3537C32.4483 25.6394 32.2714 28.3689 31.5831 30.7444C30.8864 33.1492 29.5966 35.4481 28.3333 37.1077C27.629 38.0329 26.5294 38.3602 25.5278 38.0931C24.5618 37.8355 23.7925 37.0601 23.5236 36.0321C23.5181 36.0114 23.4812 35.8921 23.1973 35.7878C22.9064 35.6809 22.5357 35.6707 22.2447 35.759C21.1794 36.0822 19.9238 36.169 18.6189 35.7304C17.3131 35.2913 16.0844 34.3685 14.9998 32.8875C14.0763 31.6265 13.6655 30.3145 13.6867 29.0184C13.7075 27.7421 14.1449 26.5859 14.7439 25.603C15.912 23.6861 17.8136 22.2281 19.2036 21.4448C20.4624 20.6493 22.5213 19.7685 24.7149 19.7273ZM24.7686 22.5479C23.2268 22.5768 21.6584 23.2313 20.7042 23.8404L20.669 23.8629L20.6326 23.8833C19.5004 24.5157 18.0161 25.6822 17.1743 27.0636C16.7632 27.7381 16.5377 28.4099 16.5271 29.0642C16.5167 29.6989 16.7056 30.4205 17.2972 31.2282C18.1081 32.3355 18.886 32.8418 19.5299 33.0583C20.1748 33.2751 20.8121 33.2439 21.4147 33.061C22.3035 32.7914 23.312 32.822 24.1829 33.142C25.0254 33.4515 25.8952 34.1026 26.2333 35.1841C27.2705 33.7698 28.2988 31.8775 28.8531 29.9644C29.4455 27.9198 29.4302 26.1001 28.6519 24.7752C27.6227 23.023 26.21 22.5208 24.7686 22.5479Z" fill="black"/>
<path fill-rule="evenodd" clip-rule="evenodd" d="M20.7185 7.92908C23.7064 6.38099 27.3923 7.50699 28.9874 10.4551L41.5878 33.7433C43.1913 36.7069 42.0817 40.4002 39.105 42.0067L25.6716 49.2569C22.6618 50.8813 18.8957 49.7528 17.2929 46.7463L4.71655 23.1557C3.1193 20.1596 4.28258 16.4449 7.30916 14.8767L20.7185 7.92908ZM26.485 11.7904C25.6261 10.2029 23.6414 9.5966 22.0325 10.4302L8.6232 17.3779C6.9935 18.2222 6.36712 20.2224 7.22718 21.8357L19.8035 45.4264C20.6665 47.0453 22.6945 47.6529 24.3151 46.7782L37.7485 39.5281C39.3513 38.663 39.9488 36.6743 39.0854 35.0785L26.485 11.7904Z" fill="black"/>
</svg>
