<svg width="51" height="50" viewBox="0 0 51 50" fill="none" xmlns="http://www.w3.org/2000/svg">
<path fill-rule="evenodd" clip-rule="evenodd" d="M20.363 4.62557C21.7802 4.32089 23.2258 4.16726 24.6755 4.16723C30.471 4.13889 35.9945 6.6234 39.8183 10.9786C43.6421 15.3339 45.391 21.1324 44.613 26.8756C43.363 36.4589 33.9046 44.2089 24.238 44.2089H10.363C9.18353 44.2094 8.09051 43.5904 7.48433 42.5786C6.87814 41.5669 6.84788 40.3112 7.40463 39.2714L7.96713 38.1881C8.52696 37.1446 8.48725 35.8817 7.86297 34.8756C4.36651 29.3789 3.76621 22.5238 6.2541 16.5031C8.74199 10.4824 14.0063 6.05067 20.363 4.62557ZM24.0713 41.0631C32.5643 40.9291 39.7871 34.8302 41.3421 26.4797C42.0485 21.6403 40.5936 16.7348 37.363 13.0631C34.1629 9.40114 29.5386 7.2978 24.6755 7.29223C23.4438 7.29459 22.2154 7.42021 21.0088 7.66723C15.6445 8.86078 11.1958 12.5886 9.0822 17.6614C6.96857 22.7341 7.45407 28.5179 10.3838 33.1672C11.6302 35.1254 11.7179 37.6051 10.613 39.6464L10.0505 40.7089C10.0047 40.7784 10.0047 40.8685 10.0505 40.9381C10.1338 41.0631 10.2588 41.0631 10.2588 41.0631H24.0713Z" fill="black"/>
</svg>
