<svg xmlns="http://www.w3.org/2000/svg" width="50" height="50" viewBox="0 0 50 50" fill="none">
<path d="M27.4301 25.0168L43.2542 9.24629C43.9153 8.57897 43.9153 7.49791 43.2542 6.83058C42.6048 6.15133 41.5323 6.13093 40.8579 6.78501L25.0339 22.5555L9.41332 6.78501C9.09307 6.4435 8.64747 6.25 8.1813 6.25C7.71514 6.25 7.26954 6.4435 6.94929 6.78501C6.36313 7.42974 6.36313 8.41924 6.94929 9.06398L22.5699 24.8117L6.74584 40.5593C6.08472 41.2267 6.08472 42.3077 6.74584 42.9751C7.06057 43.3001 7.49343 43.4812 7.94394 43.4764C8.40314 43.514 8.85837 43.3665 9.20986 43.0662L25.0339 27.2957L40.8579 43.2485C41.1727 43.5735 41.6055 43.7547 42.0561 43.7499C42.5061 43.752 42.9379 43.5713 43.2542 43.2485C43.9153 42.5812 43.9153 41.5001 43.2542 40.8328L27.4301 25.0168Z" fill="black"/>
</svg>