<svg width="50" height="50" viewBox="0 0 50 50" fill="none" xmlns="http://www.w3.org/2000/svg">
<path d="M29.6035 39.1571V36.4932C29.6035 35.4718 28.783 34.6438 27.7708 34.6438C26.7586 34.6438 25.9381 35.4718 25.9381 36.4932V39.1571C25.8871 40.8509 25.1663 42.4537 23.9366 43.6077C22.7068 44.7617 21.0705 45.371 19.3926 45.2997H11.08C9.4021 45.371 7.76576 44.7617 6.53603 43.6077C5.3063 42.4537 4.58552 40.8509 4.53453 39.1571L4.83999 10.8442C4.89097 9.15043 5.61175 7.54769 6.84148 6.39365C8.07121 5.23962 9.70756 4.63031 11.3854 4.7017L19.6326 4.7017C21.3105 4.63032 22.9468 5.23962 24.1766 6.39365C25.4063 7.54769 26.1271 9.15043 26.1781 10.8442V13.5082C26.1781 14.5296 26.9986 15.3576 28.0108 15.3576C29.023 15.3576 29.8435 14.5296 29.8435 13.5082V10.8442C29.7863 8.17167 28.6775 5.63192 26.7618 3.78556C24.8461 1.93919 22.281 0.938009 19.6326 1.00298L11.32 1.00297C5.82957 0.904667 1.29384 5.30442 1.17455 10.8442L1 39.1571C1.1193 44.6969 5.65503 49.0967 11.1454 48.9984H19.4581C24.9485 49.0967 29.4842 44.6969 29.6035 39.1571Z" fill="white"/>
<path d="M40.338 33.8945L48.4543 25.6825C48.8098 25.3467 49.0079 24.8748 48.9998 24.3835C49.0026 23.8933 48.8053 23.4235 48.4543 23.0845L40.338 14.8725C39.9941 14.5243 39.527 14.3285 39.0398 14.3285C38.5526 14.3285 38.0855 14.5243 37.7416 14.8725C37.0462 15.6048 37.0462 16.7601 37.7416 17.4924L42.7598 22.5341H20.7454C19.7332 22.5341 18.9126 23.3621 18.9126 24.3835C18.9126 25.4049 19.7332 26.2329 20.7454 26.2329H42.7598L37.7416 31.2746C37.0462 32.0069 37.0462 33.1622 37.7416 33.8945C38.0855 34.2427 38.5526 34.4385 39.0398 34.4385C39.527 34.4385 39.9941 34.2427 40.338 33.8945Z" fill="white"/>
</svg>
