<svg width="30" height="30" viewBox="0 0 30 30" fill="none" xmlns="http://www.w3.org/2000/svg">
<g clip-path="url(#clip0_772_2207)">
<path d="M29.483 24.827H0.51763C0.231986 24.827 0.000366211 24.5954 0.000366211 24.3097V5.68914C0.000366211 5.40349 0.231986 5.17188 0.51763 5.17188H29.483C29.7687 5.17188 30.0003 5.40349 30.0003 5.68914V24.3097C30.0002 24.5954 29.7686 24.827 29.483 24.827Z" fill="#41479B"/>
<path d="M30.0002 5.68914C30.0002 5.40349 29.7686 5.17188 29.483 5.17188H27.1688L17.5864 11.45V5.17188H12.414V11.45L2.83172 5.17188H0.51763C0.231986 5.17188 0.000366211 5.40349 0.000366211 5.68914V7.02689L8.22156 12.4132H0.000366211V17.5856H8.22156L0.000366211 22.972V24.3097C0.000366211 24.5954 0.231986 24.827 0.51763 24.827H2.83178L12.4142 18.5489V24.827H17.5866V18.5489L27.1689 24.827H29.4831C29.7687 24.827 30.0004 24.5954 30.0004 24.3097V22.972L21.7792 17.5857H30.0002V12.4133H21.7791L30.0002 7.02689V5.68914Z" fill="#F5F5F5"/>
<path d="M30.0002 13.4477H16.552V5.17188H13.4486V13.4477H0.000366211V16.5511H13.4486V24.827H16.552V16.5511H30.0002V13.4477Z" fill="#FF4B55"/>
<path d="M10.4857 17.5859L0.0151367 24.3826C0.0517577 24.6324 0.257714 24.8273 0.517693 24.8273H1.23013L12.3858 17.586H10.4857V17.5859V17.5859Z" fill="#FF4B55"/>
<path d="M20.2968 17.5859H18.3967L29.5361 24.8166C29.7957 24.789 30.0006 24.577 30.0006 24.31V23.8847L20.2968 17.5859Z" fill="#FF4B55"/>
<path d="M0.000732422 6.26046L9.47993 12.4136H11.38L0.302079 5.22266C0.125126 5.30486 0.000732422 5.48152 0.000732422 5.68947V6.26046Z" fill="#FF4B55"/>
<path d="M19.4871 12.4132L29.9828 5.60013C29.9392 5.35861 29.7376 5.17188 29.4835 5.17188H28.7425L17.587 12.4132H19.4871Z" fill="#FF4B55"/>
</g>
<defs>
<clipPath id="clip0_772_2207">
<rect width="30" height="30" fill="white"/>
</clipPath>
</defs>
</svg>
