<svg width="30" height="30" viewBox="0 0 30 30" fill="none" xmlns="http://www.w3.org/2000/svg">
<g clip-path="url(#clip0_861_2304)">
<path d="M29.4829 24.828H0.517509C0.231865 24.828 0.000244141 24.5964 0.000244141 24.3108V5.69012C0.000244141 5.40447 0.231865 5.17285 0.517509 5.17285H29.483C29.7686 5.17285 30.0002 5.40447 30.0002 5.69012V24.3108C30.0002 24.5965 29.7686 24.828 29.4829 24.828Z" fill="#FF4B55"/>
<path d="M4.98071 8.24713L5.47383 9.72568L7.03242 9.73775C7.23422 9.73927 7.31789 9.99685 7.15553 10.1167L5.90174 11.0425L6.37184 12.5286C6.43266 12.721 6.21363 12.8801 6.04946 12.7628L4.78149 11.8564L3.51352 12.7627C3.34934 12.8801 3.13032 12.7209 3.19114 12.5285L3.66124 11.0425L2.40745 10.1167C2.24509 9.99679 2.32876 9.73927 2.53056 9.73775L4.08915 9.72568L4.58227 8.24713C4.64614 8.05564 4.9169 8.05564 4.98071 8.24713Z" fill="#FFE15A"/>
<path d="M10.6403 8.6112L10.9939 9.09343L11.5646 8.91495C11.6385 8.89187 11.6992 8.97613 11.654 9.03888L11.3046 9.52409L11.6507 10.0117C11.6955 10.0748 11.6342 10.1586 11.5605 10.135L10.991 9.95271L10.6342 10.4325C10.588 10.4946 10.4893 10.4622 10.489 10.3848L10.4864 9.78689L9.91979 9.59581C9.84649 9.57103 9.84678 9.4672 9.92032 9.44294L10.4881 9.25568L10.4948 8.65779C10.4956 8.5805 10.5946 8.5488 10.6403 8.6112Z" fill="#FFE15A"/>
<path d="M8.48756 7.17369L9.082 7.23826L9.33559 6.6968C9.36846 6.62672 9.47159 6.63873 9.48741 6.71449L9.60963 7.29973L10.203 7.37355C10.2798 7.38311 10.3002 7.48494 10.233 7.52344L9.71416 7.82051L9.82731 8.40761C9.84196 8.48367 9.75143 8.53453 9.69406 8.48256L9.25116 8.0809L8.7278 8.36988C8.66006 8.40732 8.5836 8.33689 8.61536 8.26629L8.86045 7.7209L8.42381 7.31238C8.36733 7.25977 8.41063 7.16537 8.48756 7.17369Z" fill="#FFE15A"/>
<path d="M9.42728 12.9686L9.07367 13.4509L8.50302 13.2724C8.42914 13.2493 8.36837 13.3336 8.41361 13.3963L8.76294 13.8815L8.41689 14.3691C8.37207 14.4322 8.43341 14.516 8.50712 14.4924L9.0766 14.3101L9.43337 14.79C9.47954 14.8521 9.57827 14.8196 9.57857 14.7423L9.5812 14.1443L10.1478 13.9532C10.2212 13.9285 10.2208 13.8246 10.1473 13.8004L9.5795 13.6131L9.57283 13.0152C9.57189 12.938 9.47304 12.9062 9.42728 12.9686Z" fill="#FFE15A"/>
<path d="M11.5801 11.618L10.9856 11.6826L10.732 11.1411C10.6992 11.0711 10.596 11.0831 10.5802 11.1588L10.4579 11.7441L9.86462 11.8179C9.78781 11.8274 9.76736 11.9293 9.83456 11.9678L10.3534 12.2648L10.2403 12.852C10.2256 12.928 10.3161 12.9789 10.3735 12.9269L10.8164 12.5252L11.3398 12.8142C11.4075 12.8517 11.484 12.7812 11.4522 12.7106L11.2071 12.1652L11.6438 11.7567C11.7004 11.7041 11.6571 11.6097 11.5801 11.618Z" fill="#FFE15A"/>
</g>
<defs>
<clipPath id="clip0_861_2304">
<rect width="30" height="30" fill="white"/>
</clipPath>
</defs>
</svg>
