<svg xmlns="http://www.w3.org/2000/svg" width="56" height="48" viewBox="0 0 56 48" fill="none">
  <path d="M0.839966 30.3982V0.587891H55.44V30.1222C55.44 31.1545 54.8878 32.1079 53.9925 32.6217L29.233 46.8303C28.3415 47.3419 27.2449 47.3399 26.3553 46.8251L2.27838 32.8924C1.38815 32.3773 0.839966 31.4267 0.839966 30.3982Z" fill="#84B7C4"/>
  <path fill-rule="evenodd" clip-rule="evenodd" d="M16.7089 0.587891V41.243L2.27838 32.8924C1.38815 32.3773 0.839966 31.4267 0.839966 30.3982V0.587891H16.7089Z" fill="#6B9BAA"/>
  <path fill-rule="evenodd" clip-rule="evenodd" d="M16.1709 40.9307V0.586914H16.7088V41.242L16.1709 40.9307Z" fill="#B0D2DD"/>
  <path fill-rule="evenodd" clip-rule="evenodd" d="M39.571 0.318359V40.9735L54.0015 32.6229C54.8918 32.1077 55.4399 31.1572 55.4399 30.1286V0.318359H39.571Z" fill="#6B9BAA"/>
  <path fill-rule="evenodd" clip-rule="evenodd" d="M40.109 40.6622V0.318359H39.5711V40.9735L40.109 40.6622Z" fill="#B0D2DD"/>
</svg>