<svg width="30" height="30" viewBox="0 0 30 30" fill="none" xmlns="http://www.w3.org/2000/svg">
<g id="Japan Flag" clip-path="url(#clip0_123_9783)">
<path id="Vector" d="M29.483 24.8275H0.517631C0.231987 24.8275 0.000366211 24.5959 0.000366211 24.3103V5.68963C0.000366211 5.40398 0.231987 5.17236 0.517631 5.17236H29.4831C29.7687 5.17236 30.0004 5.40398 30.0004 5.68963V24.3103C30.0003 24.596 29.7687 24.8275 29.483 24.8275Z" fill="#F5F5F5"/>
<path id="Vector_2" d="M15.0002 20.6894C18.1424 20.6894 20.6897 18.1422 20.6897 15C20.6897 11.8578 18.1424 9.31055 15.0002 9.31055C11.858 9.31055 9.31079 11.8578 9.31079 15C9.31079 18.1422 11.858 20.6894 15.0002 20.6894Z" fill="#FF4B55"/>
</g>
<defs>
<clipPath id="clip0_123_9783">
<rect width="30" height="30" fill="white"/>
</clipPath>
</defs>
</svg>
