<svg xmlns="http://www.w3.org/2000/svg" width="50" height="50" viewBox="0 0 50 50" fill="none">
  <path fill-rule="evenodd" clip-rule="evenodd" d="M35.5511 25.3293L43.6652 33.4433C44.2109 34.068 44.401 34.9275 44.1695 35.724L42.6783 40.9214C42.4486 41.7078 41.8388 42.3259 41.0555 42.5661L35.7266 44.167C34.8772 44.3973 33.9694 44.1641 33.3362 43.553L25.2002 35.417C24.0945 34.3122 22.5967 33.6894 21.0336 33.6845C20.2811 33.6879 19.5365 33.8369 18.8406 34.1231C18.142 34.3978 17.3982 34.5391 16.6476 34.5398C15.0826 34.5446 13.5812 33.9204 12.4809 32.8073L5.902 26.2284C4.40748 24.7391 3.82214 22.565 4.36691 20.5266L6.9327 11.031C7.45412 8.97059 9.04735 7.3522 11.0994 6.79857L20.6827 4.36436C21.184 4.23409 21.6998 4.16777 22.2178 4.16699C23.7809 4.17185 25.2787 4.79461 26.3845 5.89945L32.9634 12.4784C34.6489 14.1644 35.1589 16.6969 34.2573 18.9038C33.3557 21.1108 33.8656 23.6433 35.5511 25.3293ZM35.3757 40.9433L39.7617 39.6494L40.9678 35.3512L33.2266 27.61C30.5921 24.9913 29.8035 21.0393 31.231 17.61C31.6077 16.6218 31.367 15.5045 30.6169 14.7591L24.038 8.18015C23.5541 7.68408 22.8888 7.40687 22.1959 7.41261C21.9705 7.37929 21.7414 7.37929 21.516 7.41261L11.9546 9.9784C11.0561 10.2201 10.3543 10.922 10.1125 11.8205L7.54675 21.4696C7.30609 22.3714 7.56531 23.333 8.22657 23.9916L14.8055 30.5705C15.2894 31.0666 15.9547 31.3438 16.6476 31.338C16.984 31.3348 17.3176 31.2755 17.6345 31.1626C18.7178 30.7093 19.8812 30.4781 21.0555 30.4828C23.5231 30.4551 25.8966 31.4282 27.6345 33.1802L35.3757 40.9433Z" fill="black"/>
  <path d="M21.4503 14.5179L14.652 21.3161C14.0107 21.9583 14.0107 22.9985 14.652 23.6407C15.2941 24.282 16.3344 24.282 16.9766 23.6407L23.7748 16.8424C24.0883 16.537 24.2651 16.1178 24.2651 15.6801C24.2651 15.2425 24.0883 14.8233 23.7748 14.5179C23.1327 13.8765 22.0924 13.8765 21.4503 14.5179Z" fill="black"/>
</svg>