<svg width="30" height="30" viewBox="0 0 30 30" fill="none" xmlns="http://www.w3.org/2000/svg">
<g clip-path="url(#clip0_123_9795)">
<path d="M29.4836 24.8275H0.51818C0.232536 24.8275 0.000915527 24.5959 0.000915527 24.3103V5.68963C0.000915527 5.40398 0.232536 5.17236 0.51818 5.17236H29.4837C29.7693 5.17236 30.0009 5.40398 30.0009 5.68963V24.3103C30.0009 24.596 29.7692 24.8275 29.4836 24.8275Z" fill="#F5F5F5"/>
<path d="M17.8723 10.6953C15.4955 9.11087 12.2854 9.75862 10.7019 12.1312C9.90769 13.3154 10.2305 14.9246 11.4188 15.7168C12.6062 16.5091 14.2102 16.1873 15.0025 14.9989C15.7947 13.8106 17.3998 13.4929 18.5871 14.2809C19.7764 15.0732 20.0963 16.6823 19.3029 17.8666C20.8874 15.49 20.2469 12.2798 17.8723 10.6953Z" fill="#FF4B55"/>
<path d="M10.702 12.1313C9.90779 13.3156 10.2306 14.9247 11.4189 15.717C12.6063 16.5092 14.2103 16.1875 15.0026 14.9991C15.7948 13.8108 17.3999 13.493 18.5872 14.2811C19.7765 15.0733 20.0964 16.6825 19.303 17.8667C17.7207 20.2475 14.5116 20.8872 12.1348 19.3027C9.76025 17.7183 9.1176 14.5081 10.702 12.1313Z" fill="#41479B"/>
<path d="M20.5047 8.74186L21.4442 10.1541C21.5232 10.2727 21.4912 10.4329 21.3728 10.5122L21.1346 10.6718C21.0157 10.7513 20.8548 10.7193 20.7755 10.6003L19.8347 9.1884C19.7556 9.06963 19.7877 8.90914 19.9064 8.82987L20.1458 8.67002C20.2648 8.59063 20.4255 8.6228 20.5047 8.74186Z" fill="#464655"/>
<path d="M21.9546 10.9192L22.8972 12.3306C22.9768 12.4497 22.9442 12.611 22.8247 12.69L22.5854 12.8481C22.4667 12.9266 22.3069 12.8943 22.2278 12.776L21.2857 11.3662C21.2064 11.2475 21.2383 11.0868 21.3571 11.0075L21.5958 10.8478C21.7145 10.7684 21.8752 10.8004 21.9546 10.9192Z" fill="#464655"/>
<path d="M21.5108 8.0703L23.9031 11.6605C23.9823 11.7793 23.9501 11.9399 23.8313 12.0191L23.591 12.1793C23.4721 12.2586 23.3115 12.2264 23.2323 12.1076L20.8392 8.5176C20.7599 8.39872 20.7921 8.23805 20.9111 8.15889L21.1522 7.9984C21.2711 7.91936 21.4316 7.95147 21.5108 8.0703Z" fill="#464655"/>
<path d="M22.5141 7.40009L23.4557 8.81507C23.5351 8.93425 23.5025 9.09515 23.383 9.17407L23.1436 9.33228C23.0248 9.41079 22.8649 9.37851 22.7859 9.25997L21.8436 7.84687C21.7643 7.72804 21.7965 7.56744 21.9153 7.48822L22.1555 7.32814C22.2743 7.24886 22.4349 7.28103 22.5141 7.40009Z" fill="#464655"/>
<path d="M23.9648 9.58214L24.9049 10.9942C24.984 11.1129 24.952 11.2732 24.8334 11.3525L24.5947 11.5121C24.4758 11.5916 24.3149 11.5595 24.2356 11.4404L23.2955 10.0284C23.2165 9.90967 23.2485 9.74936 23.367 9.67009L23.6058 9.51048C23.7246 9.43097 23.8855 9.46302 23.9648 9.58214Z" fill="#464655"/>
<path d="M7.77827 17.2255L10.1703 20.8118C10.2495 20.9306 10.2175 21.0912 10.0987 21.1704L9.85917 21.3304C9.74034 21.4097 9.57974 21.3777 9.5004 21.2588L7.10837 17.6725C7.02916 17.5537 7.06115 17.3931 7.17998 17.3139L7.41951 17.1539C7.53833 17.0746 7.699 17.1067 7.77827 17.2255Z" fill="#464655"/>
<path d="M6.77429 17.8964L7.71342 19.3051C7.79258 19.4238 7.76065 19.584 7.64212 19.6634L7.40387 19.8229C7.28511 19.9024 7.12432 19.8705 7.04493 19.7516L6.10468 18.3433C6.02534 18.2246 6.05733 18.0639 6.17616 17.9846L6.41558 17.8248C6.53434 17.7455 6.69501 17.7775 6.77429 17.8964Z" fill="#464655"/>
<path d="M8.22546 20.0748L9.16566 21.487C9.24476 21.6057 9.21271 21.7661 9.09405 21.8453L8.85511 22.005C8.73622 22.0845 8.5755 22.0525 8.49616 21.9335L7.55538 20.5216C7.47622 20.4028 7.50833 20.2423 7.62699 20.163L7.86652 20.0031C7.98546 19.9236 8.14618 19.9558 8.22546 20.0748Z" fill="#464655"/>
<path d="M5.76993 18.5673L8.16044 22.1538C8.2396 22.2726 8.20755 22.433 8.08901 22.5123L7.85013 22.672C7.7313 22.7515 7.57058 22.7195 7.49124 22.6006L5.09933 19.0145C5.02005 18.8957 5.05222 18.7351 5.17105 18.6558L5.4114 18.4956C5.53011 18.4164 5.69072 18.4485 5.76993 18.5673Z" fill="#464655"/>
<path d="M7.10896 12.331L9.50063 8.74172C9.57991 8.62278 9.74057 8.59067 9.85946 8.67L10.0989 8.82991C10.2177 8.90918 10.2497 9.06973 10.1705 9.1885L7.77792 12.7758C7.69882 12.8943 7.5388 12.9265 7.42003 12.8479L7.1815 12.69C7.06208 12.611 7.02962 12.4501 7.10896 12.331Z" fill="#464655"/>
<path d="M6.10423 11.6608L8.49631 8.0708C8.57559 7.95185 8.73637 7.91974 8.85526 7.99919L9.09414 8.15892C9.21274 8.2382 9.24473 8.39851 9.16563 8.51728L6.77419 12.1074C6.69491 12.2264 6.53425 12.2585 6.41536 12.1791L6.17583 12.0192C6.05712 11.94 6.02507 11.7795 6.10423 11.6608Z" fill="#464655"/>
<path d="M5.09887 10.994L7.49119 7.40048C7.57047 7.28148 7.73131 7.24931 7.85019 7.32876L8.08908 7.48849C8.20767 7.56777 8.23967 7.72796 8.16068 7.84673L5.76983 11.4408C5.69067 11.5598 5.52994 11.592 5.41106 11.5128L5.17071 11.3526C5.05194 11.2733 5.01983 11.1129 5.09887 10.994Z" fill="#464655"/>
<path d="M19.8352 20.8119L20.7755 19.4036C20.8549 19.2847 21.0156 19.2528 21.1344 19.3323L21.3726 19.4919C21.4912 19.5712 21.5231 19.7315 21.444 19.8502L20.5048 21.2588C20.4255 21.3777 20.2649 21.4098 20.146 21.3305L19.9066 21.1706C19.7879 21.0913 19.7559 20.9307 19.8352 20.8119Z" fill="#464655"/>
<path d="M21.2855 18.6415L22.2272 17.2262C22.3064 17.1072 22.4671 17.075 22.586 17.1543L22.826 17.3143C22.9449 17.3935 22.977 17.5543 22.8977 17.6731L21.9539 19.0861C21.8747 19.2047 21.7147 19.2368 21.5959 19.158L21.3579 19.0003C21.2387 18.9212 21.2062 18.7605 21.2855 18.6415Z" fill="#464655"/>
<path d="M20.8391 21.4862L21.78 20.0742C21.8592 19.9554 22.0198 19.9232 22.1387 20.0025L22.3792 20.1628C22.4979 20.2421 22.53 20.4025 22.4509 20.5214L21.5107 21.9335C21.4315 22.0524 21.271 22.0846 21.1521 22.0054L20.911 21.8449C20.7921 21.7658 20.7599 21.6051 20.8391 21.4862Z" fill="#464655"/>
<path d="M22.2911 19.3044L23.2325 17.8957C23.3118 17.7771 23.4723 17.7451 23.591 17.8242L23.8314 17.9844C23.9503 18.0637 23.9824 18.2244 23.9029 18.3432L22.9616 19.752C22.8823 19.8706 22.7219 19.9026 22.6031 19.8234L22.3627 19.6632C22.2437 19.5841 22.2117 19.4233 22.2911 19.3044Z" fill="#464655"/>
<path d="M21.8438 22.1534L22.7857 20.7439C22.8648 20.6256 23.0245 20.5933 23.1433 20.6718L23.3827 20.83C23.5021 20.909 23.5347 21.07 23.4553 21.1892L22.5141 22.6006C22.4349 22.7195 22.2742 22.7515 22.1554 22.6723L21.9152 22.5123C21.7964 22.4329 21.7643 22.2722 21.8438 22.1534Z" fill="#464655"/>
<path d="M23.2958 19.9787L24.2354 18.5675C24.3147 18.4485 24.4755 18.4163 24.5944 18.4958L24.833 18.6553C24.9516 18.7346 24.9836 18.8951 24.9043 19.0138L23.964 20.4232C23.8849 20.5418 23.7247 20.5739 23.606 20.4952L23.3681 20.3376C23.249 20.2586 23.2166 20.0978 23.2958 19.9787Z" fill="#464655"/>
</g>
<defs>
<clipPath id="clip0_123_9795">
<rect width="30" height="30" fill="white"/>
</clipPath>
</defs>
</svg>
