<svg width="25" height="26" viewBox="0 0 25 26" fill="none" xmlns="http://www.w3.org/2000/svg">
<path d="M16.6666 22.8956C16.2526 22.8941 15.8559 22.7294 15.5625 22.4373L7.22914 14.104C6.93396 13.8124 6.76782 13.4147 6.76782 12.9998C6.76782 12.5849 6.93396 12.1872 7.22914 11.8956L15.5625 3.56229C15.952 3.14426 16.5386 2.97219 17.0922 3.11357C17.6458 3.25496 18.0781 3.68725 18.2195 4.24086C18.3609 4.79447 18.1888 5.3811 17.7708 5.77063L10.5416 12.9998L17.7708 20.229C18.066 20.5206 18.2321 20.9182 18.2321 21.3331C18.2321 21.748 18.066 22.1457 17.7708 22.4373C17.4774 22.7294 17.0807 22.8941 16.6666 22.8956Z" fill="black"/>
</svg>
