<svg width="25" height="25" viewBox="0 0 25 25" fill="none" xmlns="http://www.w3.org/2000/svg">
<g id="Left Button">
<path id="Icon" d="M16.6669 22.3961C16.2528 22.3946 15.8561 22.2299 15.5627 21.9378L7.22938 13.6044C6.9342 13.3128 6.76807 12.9152 6.76807 12.5003C6.76807 12.0854 6.9342 11.6877 7.22938 11.3961L15.5627 3.06278C15.9522 2.64475 16.5389 2.47268 17.0925 2.61406C17.6461 2.75544 18.0784 3.18773 18.2198 3.74135C18.3611 4.29496 18.1891 4.88159 17.771 5.27111L10.5419 12.5003L17.771 19.7294C18.0662 20.021 18.2324 20.4187 18.2324 20.8336C18.2324 21.2485 18.0662 21.6462 17.771 21.9378C17.4777 22.2299 17.0809 22.3946 16.6669 22.3961Z" fill="black"/>
</g>
</svg>
