<svg xmlns="http://www.w3.org/2000/svg" width="25" height="26" viewBox="0 0 25 26" fill="none">
<path fill-rule="evenodd" clip-rule="evenodd" d="M22.0558 16.1596L22.8474 21.6596C22.9046 22.0831 22.7759 22.5106 22.4943 22.8321C22.2128 23.1535 21.806 23.3375 21.3787 23.3367H21.1599L15.6599 22.545C14.9144 22.4423 14.223 22.0984 13.6912 21.5659L3.54535 11.4096C1.57154 9.36599 1.59977 6.11752 3.6088 4.10849C5.61783 2.09946 8.8663 2.07124 10.9099 4.04505L21.0766 14.1909C21.6091 14.7227 21.953 15.4141 22.0558 16.1596ZM14.8474 20.4617C15.1356 20.7384 15.4971 20.9264 15.8891 21.0034L21.3162 21.7221L20.5558 16.3367C20.4788 15.9447 20.2908 15.5832 20.0141 15.295L9.85785 5.14922C9.17354 4.44669 8.23442 4.05045 7.25369 4.05045C6.27296 4.05045 5.33383 4.44669 4.64952 5.14922C3.96315 5.83159 3.57721 6.75949 3.57721 7.72734C3.57721 8.69519 3.96315 9.62309 4.64952 10.3055L14.8474 20.4617Z" fill="black"/>
<path d="M7.74327 7.1388C7.43545 6.85197 6.95576 6.86043 6.65825 7.15794C6.36074 7.45546 6.35227 7.93514 6.6391 8.24297L11.0245 12.6284C11.3295 12.933 11.8237 12.933 12.1287 12.6284C12.4333 12.3234 12.4333 11.8292 12.1287 11.5242L7.74327 7.1388Z" fill="black"/>
</svg>