<svg width="40" height="40" viewBox="0 0 40 40" fill="none" xmlns="http://www.w3.org/2000/svg">
<path d="M20.5415 11.1668C20.9538 11.1667 21.35 11.3274 21.6457 11.6148L28.9373 18.9064C29.5466 19.5165 29.5466 20.5047 28.9373 21.1148L21.6457 28.4064C21.2493 28.8009 20.6726 28.954 20.1328 28.808C19.593 28.662 19.1721 28.2391 19.0287 27.6986C18.8852 27.1581 19.041 26.5822 19.4373 26.1877L24.0545 21.5628L12.1666 21.5628C11.3037 21.5628 10.6041 20.8632 10.6041 20.0003C10.6041 19.1373 11.3037 18.4378 12.1666 18.4378L24.0493 18.4378L19.4373 13.8335C18.991 13.3867 18.8576 12.7151 19.0992 12.1316C19.3408 11.5481 19.91 11.1674 20.5415 11.1668Z" fill="black"/>
<rect x="39.5" y="39.5" width="39" height="39" rx="9.5" transform="rotate(-180 39.5 39.5)" stroke="black"/>
</svg>
