<svg width="227" height="254" viewBox="0 0 227 254" fill="none" xmlns="http://www.w3.org/2000/svg">
<g opacity="0.25">
<path d="M147.793 138.748C138.472 129.427 125.831 124.191 112.65 124.191C99.4695 124.191 88.5322 127.724 79.2119 137.044" stroke="black" stroke-width="5"/>
<circle cx="85.2234" cy="108.704" r="8.70435" fill="black"/>
<circle cx="141.777" cy="108.704" r="8.70435" fill="black"/>
<path d="M183.998 42.7834L183.997 42.7825L145.756 4.50214L183.998 42.7834ZM183.998 42.7834C185.256 44.0419 185.969 45.7401 185.999 47.5M183.998 42.7834L185.999 47.5M185.999 47.5H141M185.999 47.5H141M141 47.5V2.50097C142.802 2.53073 144.499 3.24643 145.755 4.50124L141 47.5ZM123.5 2.5V53.125C123.5 59.662 128.838 65 135.375 65H186V190.625C186 194.44 182.94 197.5 179.125 197.5H47.875C44.0604 197.5 41 194.44 41 190.625V9.375C41 5.5604 44.0604 2.5 47.875 2.5H123.5Z" stroke="black" stroke-width="5"/>
</g>
<path opacity="0.25" d="M21.3203 253.373H19.123V239.721H15.2852V252.025H13.1758V227.914H15.2852V237.816H19.123V227.328H21.3203V253.373ZM9.77734 232.426H2.30664V244.965C4.23047 244.955 5.86133 244.901 7.19922 244.804C8.54688 244.696 9.9043 244.506 11.2715 244.232L11.4766 246.166C9.99219 246.469 8.52734 246.674 7.08203 246.781C5.64648 246.879 3.84961 246.928 1.69141 246.928H0.0214844V230.521H9.77734V232.426ZM45.1973 238.432H49.3574V240.365H45.1973V253.373H42.8828V227.328H45.1973V238.432ZM24.6602 246.43C27.7266 246.43 30.1191 246.4 31.8379 246.342V243.456C30.832 243.339 29.9482 243.075 29.1865 242.665C28.4346 242.245 27.8535 241.703 27.4434 241.039C27.043 240.365 26.8477 239.604 26.8574 238.754C26.8477 237.787 27.0967 236.942 27.6045 236.22C28.1221 235.487 28.8447 234.921 29.7725 234.521C30.71 234.12 31.7891 233.92 33.0098 233.92C34.2109 233.92 35.2754 234.12 36.2031 234.521C37.1406 234.921 37.8682 235.487 38.3857 236.22C38.9131 236.942 39.1816 237.787 39.1914 238.754C39.1816 239.604 38.9668 240.365 38.5469 241.039C38.127 241.703 37.5361 242.245 36.7744 242.665C36.0225 243.085 35.1484 243.354 34.1523 243.471V246.254C36.9258 246.117 39.3086 245.902 41.3008 245.609L41.4473 247.367C38.9277 247.797 36.3398 248.075 33.6836 248.202C31.0273 248.329 28.1465 248.393 25.041 248.393L24.6602 246.43ZM40.832 232.396H25.1289V230.521H31.8379V227.387H34.1523V230.521H40.832V232.396ZM33.0098 235.707C32.2188 235.707 31.5205 235.834 30.915 236.088C30.3096 236.342 29.8359 236.703 29.4941 237.172C29.1621 237.631 28.9961 238.158 28.9961 238.754C28.9961 239.35 29.1621 239.877 29.4941 240.336C29.8262 240.785 30.2949 241.132 30.9004 241.376C31.5156 241.61 32.2188 241.723 33.0098 241.713C33.791 241.723 34.4844 241.61 35.0898 241.376C35.6953 241.132 36.1641 240.785 36.4961 240.336C36.8281 239.877 36.9941 239.35 36.9941 238.754C36.9941 238.158 36.8281 237.631 36.4961 237.172C36.1641 236.703 35.6953 236.342 35.0898 236.088C34.4844 235.834 33.791 235.707 33.0098 235.707ZM79.9727 253.373H77.6582V227.328H79.9727V253.373ZM72.2676 230.17C72.248 234.105 71.252 237.641 69.2793 240.775C67.3066 243.9 64.2207 246.469 60.0215 248.48L58.7617 246.605C62.2383 244.955 64.8994 242.904 66.7451 240.453C68.6006 238.002 69.6602 235.199 69.9238 232.045H59.9629V230.17H72.2676ZM108.186 243.588H84.3379V241.684H95.1191V238.93H87.4434V232.572H102.795V229.877H87.3555V228.002H105.109V234.301H89.7285V237.084H105.666V238.93H97.375V241.684H108.186V243.588ZM105.256 253.139H102.941V247.455H87.0039V245.58H105.256V253.139ZM131.77 253.432H129.455V227.328H131.77V253.432ZM117.912 229.35C119.201 229.359 120.349 229.74 121.354 230.492C122.36 231.234 123.146 232.289 123.713 233.656C124.279 235.023 124.562 236.615 124.562 238.432C124.562 240.248 124.279 241.84 123.713 243.207C123.146 244.574 122.36 245.629 121.354 246.371C120.349 247.113 119.201 247.484 117.912 247.484C116.623 247.484 115.471 247.113 114.455 246.371C113.449 245.629 112.663 244.574 112.097 243.207C111.54 241.84 111.262 240.248 111.262 238.432C111.262 236.615 111.54 235.023 112.097 233.656C112.663 232.289 113.449 231.234 114.455 230.492C115.461 229.74 116.613 229.359 117.912 229.35ZM117.912 231.4C117.043 231.41 116.271 231.708 115.598 232.294C114.934 232.87 114.416 233.69 114.045 234.755C113.674 235.81 113.488 237.035 113.488 238.432C113.488 239.828 113.674 241.059 114.045 242.123C114.416 243.178 114.938 243.993 115.612 244.569C116.286 245.146 117.053 245.434 117.912 245.434C118.771 245.434 119.538 245.146 120.212 244.569C120.886 243.993 121.408 243.178 121.779 242.123C122.15 241.059 122.336 239.828 122.336 238.432C122.336 237.035 122.15 235.81 121.779 234.755C121.408 233.69 120.886 232.87 120.212 232.294C119.548 231.708 118.781 231.41 117.912 231.4ZM148.938 245.873H153.684V242.621H155.822V253.021H146.77V242.621H148.938V245.873ZM153.684 251.205V247.631H148.938V251.205H153.684ZM163.264 244.672C163.254 245.609 163.43 246.527 163.791 247.426C164.162 248.314 164.709 249.115 165.432 249.828C166.164 250.541 167.043 251.088 168.068 251.469L166.867 253.227C165.705 252.758 164.719 252.094 163.908 251.234C163.107 250.375 162.502 249.384 162.092 248.261C161.662 249.364 161.047 250.346 160.246 251.205C159.445 252.074 158.488 252.748 157.375 253.227L156.174 251.469C157.189 251.049 158.059 250.478 158.781 249.755C159.504 249.032 160.051 248.231 160.422 247.353C160.793 246.464 160.979 245.57 160.979 244.672V242.445H163.264V244.672ZM150.93 228.5C152.082 228.5 153.132 228.705 154.079 229.115C155.026 229.525 155.803 230.111 156.408 230.873C157.023 231.625 157.414 232.494 157.58 233.48H163.029V227.328H165.344V241.127H163.029V235.385H157.595C157.448 236.4 157.067 237.294 156.452 238.065C155.847 238.837 155.065 239.433 154.108 239.853C153.151 240.272 152.092 240.482 150.93 240.482C149.621 240.482 148.454 240.233 147.429 239.735C146.403 239.228 145.603 238.52 145.026 237.611C144.45 236.693 144.162 235.648 144.162 234.477C144.162 233.314 144.45 232.279 145.026 231.371C145.603 230.463 146.403 229.76 147.429 229.262C148.454 228.754 149.621 228.5 150.93 228.5ZM150.93 230.434C150.051 230.434 149.265 230.604 148.571 230.946C147.878 231.288 147.336 231.767 146.945 232.382C146.555 232.997 146.359 233.695 146.359 234.477C146.359 235.268 146.555 235.976 146.945 236.601C147.336 237.216 147.878 237.699 148.571 238.051C149.265 238.402 150.051 238.578 150.93 238.578C151.799 238.578 152.575 238.402 153.259 238.051C153.942 237.699 154.475 237.216 154.855 236.601C155.246 235.976 155.441 235.268 155.441 234.477C155.441 233.695 155.246 232.997 154.855 232.382C154.475 231.767 153.942 231.288 153.259 230.946C152.575 230.604 151.799 230.434 150.93 230.434ZM176.682 229.35C177.854 229.359 178.903 229.687 179.831 230.331C180.769 230.976 181.525 231.894 182.102 233.085C182.678 234.276 183.024 235.678 183.142 237.289H188.986V227.328H191.271V253.432H188.986V239.193H183.171C183.083 240.873 182.756 242.338 182.189 243.588C181.623 244.838 180.861 245.8 179.904 246.474C178.957 247.147 177.883 247.484 176.682 247.484C175.412 247.484 174.279 247.113 173.283 246.371C172.297 245.629 171.525 244.574 170.969 243.207C170.422 241.84 170.148 240.248 170.148 238.432C170.148 236.615 170.422 235.023 170.969 233.656C171.525 232.289 172.297 231.234 173.283 230.492C174.27 229.74 175.402 229.359 176.682 229.35ZM176.682 231.4C175.832 231.41 175.075 231.708 174.411 232.294C173.757 232.87 173.249 233.69 172.888 234.755C172.526 235.81 172.346 237.035 172.346 238.432C172.346 239.828 172.526 241.059 172.888 242.123C173.249 243.178 173.757 243.993 174.411 244.569C175.075 245.146 175.832 245.434 176.682 245.434C177.521 245.434 178.269 245.146 178.923 244.569C179.587 243.993 180.1 243.178 180.461 242.123C180.832 241.059 181.018 239.828 181.018 238.432C181.018 237.035 180.832 235.81 180.461 234.755C180.1 233.69 179.592 232.87 178.938 232.294C178.283 231.708 177.531 231.41 176.682 231.4ZM219.455 250.033H195.607V248.1H201.525V241.068C200.393 240.482 199.514 239.73 198.889 238.812C198.264 237.885 197.951 236.84 197.951 235.678C197.951 234.35 198.356 233.183 199.167 232.177C199.978 231.161 201.101 230.375 202.536 229.818C203.981 229.262 205.627 228.979 207.473 228.969C209.318 228.979 210.959 229.262 212.395 229.818C213.84 230.375 214.968 231.161 215.778 232.177C216.589 233.183 216.994 234.35 216.994 235.678C216.994 236.82 216.691 237.851 216.086 238.769C215.48 239.677 214.631 240.424 213.537 241.01V248.1H219.455V250.033ZM207.473 230.873C206.057 230.863 204.797 231.059 203.693 231.459C202.59 231.859 201.726 232.426 201.101 233.158C200.485 233.881 200.178 234.721 200.178 235.678C200.178 236.635 200.485 237.484 201.101 238.227C201.726 238.959 202.59 239.53 203.693 239.94C204.797 240.341 206.057 240.541 207.473 240.541C208.879 240.541 210.134 240.336 211.237 239.926C212.341 239.516 213.205 238.944 213.83 238.212C214.455 237.479 214.768 236.635 214.768 235.678C214.768 234.721 214.455 233.881 213.83 233.158C213.205 232.426 212.341 231.859 211.237 231.459C210.134 231.059 208.879 230.863 207.473 230.873ZM211.223 248.1V241.903C210.061 242.206 208.811 242.357 207.473 242.357C206.125 242.357 204.895 242.211 203.781 241.918V248.1H211.223ZM225.549 245.023H223.088L222.883 229.789H225.754L225.549 245.023ZM224.318 251.176C223.977 251.176 223.659 251.093 223.366 250.927C223.083 250.751 222.854 250.517 222.678 250.224C222.512 249.931 222.434 249.613 222.443 249.271C222.434 248.939 222.512 248.632 222.678 248.349C222.854 248.056 223.083 247.826 223.366 247.66C223.659 247.484 223.977 247.396 224.318 247.396C224.65 247.396 224.958 247.484 225.241 247.66C225.534 247.826 225.764 248.056 225.93 248.349C226.105 248.632 226.193 248.939 226.193 249.271C226.193 249.613 226.105 249.931 225.93 250.224C225.764 250.517 225.534 250.751 225.241 250.927C224.958 251.093 224.65 251.176 224.318 251.176Z" fill="black"/>
</svg>
