<svg width="231" height="258" viewBox="0 0 231 258" fill="none" xmlns="http://www.w3.org/2000/svg">
<g opacity="0.25">
<path d="M149.793 138.748C140.472 129.427 127.831 124.191 114.65 124.191C101.469 124.191 90.5322 127.724 81.2119 137.044" stroke="black" stroke-width="5"/>
<circle cx="87.2234" cy="108.704" r="8.70435" fill="black"/>
<circle cx="143.777" cy="108.704" r="8.70435" fill="black"/>
<path d="M185.997 42.7825L185.998 42.7834C187.256 44.0419 187.969 45.7401 187.999 47.5H143V2.50097C144.803 2.53074 146.5 3.24677 147.756 4.50214L185.997 42.7825ZM49.875 2.5H125.5V53.125C125.5 59.662 130.838 65 137.375 65H188V190.625C188 194.44 184.94 197.5 181.125 197.5H49.875C46.0604 197.5 43 194.44 43 190.625V9.375C43 5.5604 46.0604 2.5 49.875 2.5Z" stroke="black" stroke-width="5"/>
</g>
<path opacity="0.25" d="M9.75586 231.547C9.75586 235.092 12.4512 238.344 16.2305 239.633L14.9707 241.449C12.085 240.395 9.81445 238.241 8.67188 235.531C7.55859 238.593 5.24414 241.01 2.19727 242.182L0.966797 240.336C4.86328 238.871 7.4707 235.385 7.5 231.371V228.676H9.75586V231.547ZM21.416 227.328V234.125H25.3418V236.059H21.416V243.178H19.1309V227.328H21.416ZM13.0664 243.852C18.4277 243.852 21.6504 245.58 21.6504 248.568C21.6504 251.615 18.4277 253.314 13.0664 253.314C7.70508 253.314 4.42383 251.615 4.42383 248.568C4.42383 245.58 7.70508 243.852 13.0664 243.852ZM13.0664 245.697C9.14062 245.697 6.70898 246.781 6.73828 248.568C6.70898 250.414 9.14062 251.469 13.0664 251.498C17.0215 251.469 19.4238 250.414 19.4238 248.568C19.4238 246.781 17.0215 245.697 13.0664 245.697ZM48.5742 227.328V242.592H46.2598V235.795H40.9863V233.861H46.2598V227.328H48.5742ZM48.5742 243.881V253.021H31.5527V243.881H48.5742ZM33.8379 245.727V251.146H46.3184V245.727H33.8379ZM36.0352 231.957C36.0352 235.326 38.6426 238.578 42.4512 239.926L41.25 241.742C38.3057 240.688 36.0352 238.49 34.9219 235.795C33.7939 238.798 31.3916 241.2 28.3008 242.328L27.0996 240.512C30.9375 239.135 33.7207 235.678 33.7207 231.957V230.932H27.832V229.027H41.8652V230.932H36.0352V231.957ZM73.7988 230.58C73.7695 233.773 78.1641 236.381 82.7637 237.025L81.8555 238.842C77.6514 238.241 73.7256 236.132 72.3047 233.07C70.8984 236.132 66.9873 238.241 62.7539 238.842L61.9043 237.025C66.5039 236.381 70.8105 233.773 70.8105 230.58V230.521H62.6074V228.646H82.0605V230.521H73.7988V230.58ZM84.2578 240.746V242.65H73.6523V247.982H71.3672V242.65H60.4102V240.746H84.2578ZM81.5918 250.883V252.816H63.457V245.375H65.7715V250.883H81.5918ZM107.842 227.328V253.432H105.527V227.328H107.842ZM90.1758 229.555V236.439H97.9395V229.555H100.195V247.133H87.8906V229.555H90.1758ZM90.1758 245.199H97.9395V238.285H90.1758V245.199ZM143.555 239.516V241.42H132.803V244.203C137.725 244.408 140.625 246.02 140.654 248.773C140.625 251.674 137.285 253.314 131.689 253.314C126.035 253.314 122.695 251.674 122.695 248.773C122.695 246.02 125.581 244.408 130.547 244.203V241.42H119.824V239.516H143.555ZM131.689 245.961C127.5 245.99 125.01 247.016 125.039 248.773C125.01 250.502 127.5 251.527 131.689 251.527C135.82 251.527 138.34 250.502 138.34 248.773C138.34 247.016 135.82 245.99 131.689 245.961ZM141.445 228.559V230.434H133.184C133.33 233.363 137.637 235.634 142.236 236.117L141.387 237.934C137.124 237.421 133.125 235.517 131.689 232.602C130.269 235.517 126.284 237.421 121.992 237.934L121.172 236.117C125.684 235.634 130.02 233.363 130.195 230.434H121.992V228.559H141.445ZM167.256 227.328V241.303H164.971V227.328H167.256ZM152.666 242.621V245.785H164.971V242.621H167.256V253.021H150.381V242.621H152.666ZM152.666 251.146H164.971V247.631H152.666V251.146ZM153.193 228.617C157.148 228.588 160.02 231.02 160.02 234.594C160.02 238.139 157.148 240.57 153.193 240.57C149.238 240.57 146.367 238.139 146.367 234.594C146.367 231.02 149.238 228.588 153.193 228.617ZM153.193 230.551C150.527 230.521 148.594 232.221 148.623 234.594C148.594 236.967 150.527 238.666 153.193 238.666C155.83 238.666 157.764 236.967 157.764 234.594C157.764 232.221 155.83 230.521 153.193 230.551ZM193.154 227.328V253.373H190.869V227.328H193.154ZM175.635 229.906V244.672C179.604 244.657 183.721 244.335 188.086 243.412L188.408 245.375C183.779 246.342 179.648 246.664 175.488 246.664H173.379V229.906H175.635ZM217.764 227.328V237.641H222.129V239.574H217.764V253.432H215.479V227.328H217.764ZM210.908 229.877V231.781H201.035V244.965C205.752 244.965 209.092 244.745 212.959 244.027L213.252 246.02C209.18 246.752 205.752 246.898 200.801 246.898H198.75V229.877H210.908ZM227.754 229.789L227.549 245.023H225.088L224.883 229.789H227.754ZM226.318 251.176C225.293 251.176 224.414 250.326 224.443 249.271C224.414 248.246 225.293 247.396 226.318 247.396C227.344 247.396 228.193 248.246 228.193 249.271C228.193 250.326 227.344 251.176 226.318 251.176Z" fill="black"/>
</svg>
