<svg width="257" height="258" viewBox="0 0 257 258" fill="none" xmlns="http://www.w3.org/2000/svg">
<g opacity="0.25">
<path d="M162.793 138.748C153.472 129.427 140.831 124.191 127.65 124.191C114.469 124.191 103.532 127.724 94.2119 137.044" stroke="black" stroke-width="5"/>
<circle cx="100.223" cy="108.704" r="8.70435" fill="black"/>
<circle cx="156.777" cy="108.704" r="8.70435" fill="black"/>
<path d="M198.997 42.7825L198.998 42.7834C200.256 44.0419 200.969 45.7401 200.999 47.5H156V2.50097C157.803 2.53074 159.5 3.24677 160.756 4.50214L198.997 42.7825ZM62.875 2.5H138.5V53.125C138.5 59.662 143.838 65 150.375 65H201V190.625C201 194.44 197.94 197.5 194.125 197.5H62.875C59.0604 197.5 56 194.44 56 190.625V9.375C56 5.5604 59.0604 2.5 62.875 2.5Z" stroke="black" stroke-width="5"/>
</g>
<path opacity="0.25" d="M22.6465 227.328V253.432H20.332V238.725H14.6191V236.82H20.332V227.328H22.6465ZM10.0781 235.062C10.0781 239.398 13.1836 244.115 16.9922 245.844L15.6152 247.689C12.6416 246.239 10.1367 243.09 8.96484 239.457C7.76367 243.31 5.2002 246.649 2.22656 248.217L0.820312 246.43C4.59961 244.584 7.73438 239.691 7.76367 235.062V231.928H1.81641V230.023H16.0547V231.928H10.0781V235.062ZM35.8008 232.279C35.8008 235.678 38.3496 238.725 42.1875 239.984L41.1035 241.801C38.1006 240.819 35.8301 238.739 34.7168 236.117C33.5889 239.105 31.1865 241.435 28.0664 242.562L26.8945 240.717C30.791 239.398 33.5156 236.029 33.5449 232.279V231.166H27.5977V229.262H41.6602V231.166H35.8008V232.279ZM47.3438 227.328V233.979H51.2695V235.912H47.3438V243.061H45.0586V227.328H47.3438ZM38.9941 243.764C44.3555 243.764 47.5781 245.521 47.5781 248.51C47.5781 251.557 44.3555 253.314 38.9941 253.314C33.6328 253.314 30.3516 251.557 30.3516 248.51C30.3516 245.521 33.6328 243.764 38.9941 243.764ZM38.9941 245.609C35.0684 245.609 32.6367 246.693 32.666 248.51C32.6367 250.385 35.0684 251.469 38.9941 251.469C42.9492 251.469 45.3516 250.385 45.3516 248.51C45.3516 246.693 42.9492 245.609 38.9941 245.609ZM68.0566 235.883V237.758H62.7832V241.391C65.2148 241.288 67.6465 241.112 69.9023 240.863L70.0781 242.562C64.4824 243.324 58.2715 243.5 53.3789 243.5L53.0273 241.625C55.3125 241.61 57.876 241.581 60.498 241.479V237.758H55.4004V229.027H67.8516V230.932H57.7148V235.883H68.0566ZM74.3848 227.357V246.84H72.0703V227.357H74.3848ZM75.2344 250.883V252.816H57.4805V245.492H59.7656V250.883H75.2344ZM106.729 227.328V235.092H110.684V237.025H106.729V246.195H104.443V227.328H106.729ZM99.1992 229.584V231.518H89.8828V239.633C95.1123 239.633 98.0859 239.501 101.572 238.783L101.865 240.688C98.2031 241.391 95.0977 241.566 89.6191 241.566H87.5977V229.584H99.1992ZM107.93 250.883V252.816H90.4395V244.291H92.6953V250.883H107.93ZM119.297 229.35C122.842 229.379 125.391 232.411 125.771 237.289H131.602V227.328H133.887V253.432H131.602V239.193H125.801C125.522 244.291 122.93 247.484 119.297 247.484C115.459 247.484 112.764 243.969 112.764 238.432C112.764 232.895 115.459 229.379 119.297 229.35ZM119.297 231.4C116.719 231.43 114.961 234.184 114.961 238.432C114.961 242.68 116.719 245.434 119.297 245.434C121.846 245.434 123.633 242.68 123.633 238.432C123.633 234.184 121.846 231.43 119.297 231.4ZM158.379 227.328V237.934H162.598V239.867H158.379V253.373H156.094V227.328H158.379ZM151.641 230.141C151.641 237.523 148.184 244.232 139.688 248.422L138.398 246.605C145.137 243.251 148.799 238.241 149.326 232.074H139.6V230.141H151.641ZM176.865 242.621V245.873H181.611V242.621H183.75V253.021H174.697V242.621H176.865ZM176.865 251.205H181.611V247.631H176.865V251.205ZM191.191 244.672C191.162 247.426 192.803 250.297 195.996 251.469L194.795 253.227C192.393 252.26 190.811 250.429 190.02 248.246C189.185 250.385 187.603 252.23 185.303 253.227L184.102 251.469C187.236 250.18 188.906 247.309 188.906 244.672V242.445H191.191V244.672ZM178.857 228.5C182.344 228.5 185.01 230.478 185.508 233.48H190.957V227.328H193.271V241.127H190.957V235.385H185.537C185.068 238.461 182.388 240.482 178.857 240.482C174.902 240.482 172.09 238.051 172.09 234.477C172.09 230.932 174.902 228.5 178.857 228.5ZM178.857 230.434C176.191 230.434 174.287 232.104 174.287 234.477C174.287 236.879 176.191 238.578 178.857 238.578C181.494 238.578 183.369 236.879 183.369 234.477C183.369 232.104 181.494 230.434 178.857 230.434ZM204.609 229.35C208.154 229.379 210.703 232.411 211.084 237.289H216.914V227.328H219.199V253.432H216.914V239.193H211.113C210.835 244.291 208.242 247.484 204.609 247.484C200.771 247.484 198.076 243.969 198.076 238.432C198.076 232.895 200.771 229.379 204.609 229.35ZM204.609 231.4C202.031 231.43 200.273 234.184 200.273 238.432C200.273 242.68 202.031 245.434 204.609 245.434C207.158 245.434 208.945 242.68 208.945 238.432C208.945 234.184 207.158 231.43 204.609 231.4ZM247.383 248.1V250.033H223.535V248.1H229.453V241.068C227.227 239.911 225.879 238.036 225.879 235.678C225.879 231.635 229.834 228.998 235.4 228.969C240.967 228.998 244.922 231.635 244.922 235.678C244.922 237.992 243.618 239.853 241.465 241.01V248.1H247.383ZM235.4 230.873C231.123 230.844 228.105 232.777 228.105 235.678C228.105 238.578 231.123 240.541 235.4 240.541C239.648 240.541 242.695 238.578 242.695 235.678C242.695 232.777 239.648 230.844 235.4 230.873ZM231.709 248.1H239.15V241.889C238.022 242.196 236.763 242.357 235.4 242.357C234.067 242.357 232.822 242.211 231.709 241.918V248.1ZM253.682 229.789L253.477 245.023H251.016L250.811 229.789H253.682ZM252.246 251.176C251.221 251.176 250.342 250.326 250.371 249.271C250.342 248.246 251.221 247.396 252.246 247.396C253.271 247.396 254.121 248.246 254.121 249.271C254.121 250.326 253.271 251.176 252.246 251.176Z" fill="black"/>
</svg>
