<svg width="350" height="105" viewBox="0 0 350 105" fill="none" xmlns="http://www.w3.org/2000/svg">
<path d="M39.2869 26.65H45.2369V13.95H51.9369V57.3H45.2369V32.5H39.2869V42.7C39.2869 44.2 39.0369 45.6 38.5369 46.9C38.0702 48.1667 37.3702 49.2667 36.4369 50.2C35.5369 51.1333 34.4036 51.8667 33.0369 52.4C31.6702 52.9333 30.1036 53.2 28.3369 53.2C26.6036 53.2 25.0536 52.9333 23.6869 52.4C22.3202 51.8667 21.1702 51.1333 20.2369 50.2C19.3036 49.2667 18.5869 48.1667 18.0869 46.9C17.6202 45.6 17.3869 44.2 17.3869 42.7V24.4C17.3869 22.9 17.6202 21.5167 18.0869 20.25C18.5869 18.95 19.3036 17.85 20.2369 16.95C21.1702 16.0167 22.3202 15.2833 23.6869 14.75C25.0536 14.2167 26.6036 13.95 28.3369 13.95C30.1036 13.95 31.6702 14.2167 33.0369 14.75C34.4036 15.2833 35.5369 16.0167 36.4369 16.95C37.3702 17.85 38.0702 18.95 38.5369 20.25C39.0369 21.5167 39.2869 22.9 39.2869 24.4V26.65ZM55.4869 13.95H62.1869V57.3H55.4869V13.95ZM24.0369 42.3C24.0369 42.9333 24.0869 43.55 24.1869 44.15C24.3202 44.7167 24.5536 45.2167 24.8869 45.65C25.2202 46.0833 25.6536 46.4333 26.1869 46.7C26.7536 46.9667 27.4702 47.1 28.3369 47.1C29.1702 47.1 29.8702 46.9667 30.4369 46.7C31.0036 46.4333 31.4369 46.0833 31.7369 45.65C32.0702 45.2167 32.3036 44.7167 32.4369 44.15C32.5702 43.55 32.6369 42.9333 32.6369 42.3V24.7C32.6369 24.0667 32.5702 23.4667 32.4369 22.9C32.3036 22.3 32.0702 21.7833 31.7369 21.35C31.4369 20.9167 31.0036 20.5833 30.4369 20.35C29.8702 20.0833 29.1702 19.95 28.3369 19.95C27.4702 19.95 26.7536 20.0833 26.1869 20.35C25.6536 20.5833 25.2202 20.9167 24.8869 21.35C24.5536 21.7833 24.3202 22.3 24.1869 22.9C24.0869 23.4667 24.0369 24.0667 24.0369 24.7V42.3ZM96.2506 26.1H106.251V13.95H113.201V57.3H106.251V32.2H96.2506V42.7C96.2506 44.2 95.9173 45.6 95.2506 46.9C94.6173 48.1667 93.7173 49.2667 92.5506 50.2C91.3839 51.1333 89.9673 51.8667 88.3006 52.4C86.6673 52.9333 84.8339 53.2 82.8006 53.2C80.8006 53.2 78.9673 52.9333 77.3006 52.4C75.6673 51.8667 74.2506 51.1333 73.0506 50.2C71.8839 49.2667 70.9673 48.1667 70.3006 46.9C69.6673 45.6 69.3506 44.2 69.3506 42.7V24.4C69.3506 22.9 69.6673 21.5167 70.3006 20.25C70.9673 18.95 71.8839 17.85 73.0506 16.95C74.2506 16.0167 75.6673 15.2833 77.3006 14.75C78.9673 14.2167 80.8006 13.95 82.8006 13.95C84.8339 13.95 86.6673 14.2167 88.3006 14.75C89.9673 15.2833 91.3839 16.0167 92.5506 16.95C93.7173 17.85 94.6173 18.95 95.2506 20.25C95.9173 21.5167 96.2506 22.9 96.2506 24.4V26.1ZM76.3006 42.3C76.3006 42.9333 76.4339 43.55 76.7006 44.15C77.0006 44.7167 77.4173 45.2167 77.9506 45.65C78.5173 46.0833 79.2006 46.4333 80.0006 46.7C80.8006 46.9667 81.7339 47.1 82.8006 47.1C83.8339 47.1 84.7506 46.9667 85.5506 46.7C86.3839 46.4333 87.0673 46.0833 87.6006 45.65C88.1673 45.2167 88.5839 44.7167 88.8506 44.15C89.1506 43.55 89.3006 42.9333 89.3006 42.3V24.7C89.3006 23.4 88.7339 22.2833 87.6006 21.35C86.5006 20.4167 84.9006 19.95 82.8006 19.95C80.7006 19.95 79.0839 20.4167 77.9506 21.35C76.8506 22.2833 76.3006 23.4 76.3006 24.7V42.3ZM156.714 39.9C158.114 39.9 159.331 40.1167 160.364 40.55C161.431 40.9833 162.314 41.6 163.014 42.4C163.748 43.1667 164.298 44.0833 164.664 45.15C165.031 46.1833 165.214 47.3167 165.214 48.55C165.214 49.8167 165.031 50.9833 164.664 52.05C164.298 53.1167 163.748 54.0333 163.014 54.8C162.314 55.6 161.431 56.2167 160.364 56.65C159.331 57.0833 158.114 57.3 156.714 57.3H130.264C128.898 57.3 127.698 57.0833 126.664 56.65C125.631 56.2167 124.764 55.6 124.064 54.8C123.364 54.0333 122.831 53.1167 122.464 52.05C122.098 50.9833 121.914 49.8167 121.914 48.55C121.914 47.3167 122.098 46.1833 122.464 45.15C122.831 44.0833 123.364 43.1667 124.064 42.4C124.764 41.6 125.631 40.9833 126.664 40.55C127.698 40.1167 128.898 39.9 130.264 39.9H156.714ZM141.514 22.75V21.9C141.514 21.0333 141.364 20.4333 141.064 20.1C140.798 19.7667 140.381 19.6 139.814 19.6H120.914V13.95H143.314C145.148 13.95 146.464 14.4333 147.264 15.4C148.064 16.3333 148.464 17.7 148.464 19.5V28.4H127.864V29.2C127.864 30.0667 127.998 30.6667 128.264 31C128.564 31.3333 128.998 31.5 129.564 31.5H148.464V37.15H126.064C124.231 37.15 122.914 36.6833 122.114 35.75C121.314 34.7833 120.914 33.4 120.914 31.6V22.75H141.514ZM157.764 13.95H164.714V37.55H157.764V13.95ZM155.464 51.3C156.398 51.3 157.081 51.05 157.514 50.55C157.948 50.05 158.164 49.3833 158.164 48.55C158.164 47.7833 157.948 47.1667 157.514 46.7C157.081 46.2 156.398 45.95 155.464 45.95H131.564C130.598 45.95 129.898 46.2 129.464 46.7C129.064 47.1667 128.864 47.7833 128.864 48.55C128.864 49.3833 129.064 50.05 129.464 50.55C129.898 51.05 130.598 51.3 131.564 51.3H155.464ZM171.928 54.5V48.3H186.528V33.5H193.528V48.3H209.278V21.3C209.278 20.5333 208.911 20.15 208.178 20.15H172.928V13.95H211.328C212.128 13.95 212.828 14.1 213.428 14.4C214.061 14.7 214.578 15.1167 214.978 15.65C215.411 16.15 215.728 16.7333 215.928 17.4C216.128 18.0333 216.228 18.7 216.228 19.4V54.5H171.928ZM273.536 41.7H263.536V42.7C263.536 44.2 263.202 45.6 262.536 46.9C261.902 48.1667 261.002 49.2667 259.836 50.2C258.669 51.1333 257.252 51.8667 255.586 52.4C253.952 52.9333 252.119 53.2 250.086 53.2C248.086 53.2 246.252 52.9333 244.586 52.4C242.952 51.8667 241.536 51.1333 240.336 50.2C239.169 49.2667 238.252 48.1667 237.586 46.9C236.952 45.6 236.636 44.2 236.636 42.7V24.4C236.636 22.9 236.952 21.5167 237.586 20.25C238.252 18.95 239.169 17.85 240.336 16.95C241.536 16.0167 242.952 15.2833 244.586 14.75C246.252 14.2167 248.086 13.95 250.086 13.95C253.486 13.95 256.319 14.6667 258.586 16.1C260.886 17.5 262.386 19.3333 263.086 21.6H273.536V13.95H280.486V57.3H273.536V41.7ZM243.586 42.3C243.586 42.9333 243.719 43.55 243.986 44.15C244.286 44.7167 244.702 45.2167 245.236 45.65C245.802 46.0833 246.486 46.4333 247.286 46.7C248.086 46.9667 249.019 47.1 250.086 47.1C251.119 47.1 252.036 46.9667 252.836 46.7C253.669 46.4333 254.352 46.0833 254.886 45.65C255.452 45.2167 255.869 44.7167 256.136 44.15C256.436 43.55 256.586 42.9333 256.586 42.3V24.7C256.586 23.4 256.019 22.2833 254.886 21.35C253.786 20.4167 252.186 19.95 250.086 19.95C247.986 19.95 246.369 20.4167 245.236 21.35C244.136 22.2833 243.586 23.4 243.586 24.7V42.3ZM263.536 35.6H273.536V27.7H263.536V35.6ZM314.449 38.55H325.049V13.95H331.999V57.3H294.099C293.266 57.3 292.533 57.15 291.899 56.85C291.299 56.55 290.799 56.1333 290.399 55.6C289.999 55.1 289.699 54.5167 289.499 53.85C289.299 53.2167 289.199 52.55 289.199 51.85V42.95H296.099V49.95C296.099 50.7167 296.483 51.1 297.249 51.1H325.049V44.2H314.449V38.55ZM288.699 20.15V13.95H313.199C313.999 13.95 314.699 14.1 315.299 14.4C315.933 14.7 316.449 15.1167 316.849 15.65C317.283 16.15 317.599 16.7333 317.799 17.4C317.999 18.0333 318.099 18.7 318.099 19.4V35.1H306.749V44H299.699V35.1H287.699V29.1H311.149V21.3C311.149 20.5333 310.783 20.15 310.049 20.15H288.699Z" fill="white"/>
<path d="M37.8613 94.876L36.4551 90.9502H27.915L26.4648 94.876L28.0762 95.1543V97H21.9678V95.1543L23.5498 94.9346L31.0059 75.6719H33.4814L40.8057 94.9346L42.373 95.1543V97H36.25V95.1543L37.8613 94.876ZM28.8086 88.5332H35.5762L32.4414 79.8613L32.2656 79.3779H32.1777L32.002 79.8613L28.8086 88.5332ZM52.2607 75.6719V77.5322L49.873 77.9424V94.7441L52.2607 95.1543V97H44.5996V95.1543L46.9873 94.7441V77.9424L44.5996 77.5322V75.6719H52.2607ZM67.2021 87.0537L70.8057 94.8467L72.2852 95.1104V97H68.7256L64.4482 87.3906L59.9219 87.4785V94.7441L62.3096 95.1543V97H54.6484V95.1543L57.0361 94.7441V77.9424L54.6484 77.5322V75.6865H64.1553C65.6982 75.6865 67.0117 75.916 68.0957 76.375C70.2734 77.332 71.3623 79.0801 71.3623 81.6191C71.3623 82.8789 71.0938 83.9287 70.5566 84.7686C69.8438 85.8916 68.7256 86.6533 67.2021 87.0537ZM59.9219 77.9424V85.208H63.8623C65.4736 85.208 66.6455 84.9004 67.3779 84.2852C68.1104 83.6699 68.4766 82.7715 68.4766 81.5898C68.4766 80.4668 68.125 79.5781 67.4219 78.9238C66.7188 78.2695 65.6299 77.9424 64.1553 77.9424H59.9219ZM80.2246 77.9424V94.7881H87.7686L88.1055 91.4189H90.3174V97H74.9512V95.1543L77.3389 94.7441V77.9424L74.9512 77.5322V75.6719H82.6123V77.5322L80.2246 77.9424ZM100.337 75.6719V77.5322L97.9492 77.9424V94.7441L100.337 95.1543V97H92.6758V95.1543L95.0635 94.7441V77.9424L92.6758 77.5322V75.6719H100.337ZM118.618 97L107.881 80.2861L107.793 80.3154V94.7441L110.415 95.1543V97H102.754V95.1543L105.142 94.7441V77.9424L102.754 77.5322V75.6719H108.057L118.516 92.2979L118.604 92.2686V77.9424L115.981 77.5322V75.6719H123.643V77.5322L121.255 77.9424V97H118.618ZM135.669 97.3076C133.696 97.3076 131.987 96.8486 130.542 95.9307C129.097 95.0225 127.983 93.7578 127.202 92.1367C126.421 90.5156 126.03 88.6406 126.03 86.5117V86.1602C126.03 84.0117 126.426 82.127 127.217 80.5059C127.998 78.8945 129.072 77.6348 130.439 76.7266C131.807 75.8184 133.359 75.3643 135.098 75.3643C136.758 75.3643 138.164 75.5547 139.316 75.9355C140.479 76.3164 141.47 76.8291 142.29 77.4736V81.7803H139.917L139.609 78.6895C138.652 78.0547 137.246 77.7373 135.391 77.7373C134.18 77.7373 133.081 78.0889 132.095 78.792C131.118 79.4951 130.347 80.4766 129.78 81.7363C129.214 82.9863 128.931 84.4512 128.931 86.1309V86.5117C128.931 88.2109 129.194 89.6904 129.722 90.9502C130.239 92.2197 131.001 93.2061 132.007 93.9092C133.013 94.6025 134.233 94.9492 135.669 94.9492C136.646 94.9492 137.471 94.8662 138.145 94.7002C138.818 94.5244 139.414 94.2998 139.932 94.0264V89.0166L135.845 88.8701V86.7461H142.817V95.0078C142.202 95.584 141.318 96.1113 140.166 96.5898C139.023 97.0684 137.524 97.3076 135.669 97.3076ZM154.463 97.3076C153.086 97.3076 151.851 97.0439 150.757 96.5166C149.663 95.9893 148.735 95.2422 147.974 94.2754C146.392 92.3027 145.601 89.71 145.601 86.4971V86.1895C145.601 82.9863 146.392 80.3887 147.974 78.3965C148.735 77.4297 149.663 76.6826 150.757 76.1553C151.851 75.6279 153.086 75.3643 154.463 75.3643C155.918 75.3643 157.197 75.6279 158.301 76.1553C159.414 76.6826 160.342 77.4297 161.084 78.3965C161.836 79.3633 162.397 80.5107 162.769 81.8389C163.149 83.1572 163.34 84.6074 163.34 86.1895V86.4971C163.34 88.0889 163.149 89.5439 162.769 90.8623C162.397 92.1807 161.836 93.3184 161.084 94.2754C160.342 95.2422 159.414 95.9893 158.301 96.5166C157.197 97.0439 155.918 97.3076 154.463 97.3076ZM154.463 94.9053C155.879 94.9053 157.026 94.5537 157.905 93.8506C158.774 93.1475 159.414 92.166 159.824 90.9062C160.234 89.6367 160.439 88.167 160.439 86.4971V86.1602C160.439 84.5 160.234 83.04 159.824 81.7803C159.404 80.5303 158.755 79.5537 157.876 78.8506C156.997 78.1377 155.859 77.7812 154.463 77.7812C153.184 77.7812 152.1 78.1377 151.211 78.8506C150.322 79.5635 149.648 80.5498 149.189 81.8096C148.73 83.0596 148.501 84.5098 148.501 86.1602V86.4971C148.501 88.1475 148.73 89.6074 149.189 90.877C149.648 92.1465 150.322 93.1377 151.211 93.8506C152.1 94.5537 153.184 94.9053 154.463 94.9053ZM181.094 88.4453V94.7441L183.481 95.1543V97H175.82V95.1543L178.208 94.7441V77.9424L175.82 77.5322V75.6719H185.62C187.153 75.6719 188.452 75.9355 189.517 76.4629C191.724 77.5566 192.827 79.4219 192.827 82.0586C192.827 83.3574 192.544 84.4805 191.978 85.4277C191.411 86.3848 190.591 87.127 189.517 87.6543C188.442 88.1816 187.144 88.4453 185.62 88.4453H181.094ZM185.62 77.9424H181.094V86.1895H185.62C187.065 86.1895 188.145 85.8037 188.857 85.0322C189.58 84.251 189.941 83.2695 189.941 82.0879C189.941 80.9062 189.58 79.9199 188.857 79.1289C188.145 78.3379 187.065 77.9424 185.62 77.9424ZM209.072 94.876L207.666 90.9502H199.126L197.676 94.876L199.287 95.1543V97H193.179V95.1543L194.761 94.9346L202.217 75.6719H204.692L212.017 94.9346L213.584 95.1543V97H207.461V95.1543L209.072 94.876ZM200.02 88.5332H206.787L203.652 79.8613L203.477 79.3779H203.389L203.213 79.8613L200.02 88.5332ZM223.501 97.3076C222.202 97.3076 220.952 97.1172 219.751 96.7363C218.55 96.3555 217.402 95.7695 216.309 94.9785V90.4229H218.55L219.033 93.7773C219.668 94.168 220.356 94.4707 221.099 94.6855C221.841 94.9004 222.642 95.0078 223.501 95.0078C224.487 95.0078 225.317 94.8564 225.991 94.5537C227.388 93.9482 228.086 92.9229 228.086 91.4775C228.086 90.833 227.93 90.2568 227.617 89.749C227.305 89.251 226.787 88.8164 226.064 88.4453C225.352 88.0645 224.375 87.7324 223.135 87.4492C221.709 87.1172 220.474 86.6582 219.429 86.0723C217.368 84.9102 216.338 83.2842 216.338 81.1943C216.338 80.0713 216.636 79.0752 217.231 78.2061C217.817 77.3271 218.638 76.6338 219.692 76.126C220.747 75.6182 221.978 75.3643 223.384 75.3643C224.878 75.3643 226.196 75.5938 227.339 76.0527C228.491 76.502 229.438 77.0488 230.181 77.6934V81.9561H227.939L227.456 78.9092C227.017 78.5576 226.47 78.2646 225.815 78.0303C225.161 77.7959 224.351 77.6787 223.384 77.6787C222.583 77.6787 221.86 77.8203 221.216 78.1035C220.591 78.3965 220.103 78.8018 219.751 79.3193C219.399 79.8369 219.224 80.4473 219.224 81.1504C219.224 81.7656 219.385 82.3027 219.707 82.7617C220.293 83.6309 221.768 84.3584 224.131 84.9443C228.691 86.0771 230.972 88.2451 230.972 91.4482C230.972 92.5908 230.664 93.6016 230.049 94.4805C229.434 95.3691 228.564 96.0625 227.441 96.5605C226.328 97.0586 225.015 97.3076 223.501 97.3076ZM241.167 97.3076C239.868 97.3076 238.618 97.1172 237.417 96.7363C236.216 96.3555 235.068 95.7695 233.975 94.9785V90.4229H236.216L236.699 93.7773C237.334 94.168 238.022 94.4707 238.765 94.6855C239.507 94.9004 240.308 95.0078 241.167 95.0078C242.153 95.0078 242.983 94.8564 243.657 94.5537C245.054 93.9482 245.752 92.9229 245.752 91.4775C245.752 90.833 245.596 90.2568 245.283 89.749C244.971 89.251 244.453 88.8164 243.73 88.4453C243.018 88.0645 242.041 87.7324 240.801 87.4492C239.375 87.1172 238.14 86.6582 237.095 86.0723C235.034 84.9102 234.004 83.2842 234.004 81.1943C234.004 80.0713 234.302 79.0752 234.897 78.2061C235.483 77.3271 236.304 76.6338 237.358 76.126C238.413 75.6182 239.644 75.3643 241.05 75.3643C242.544 75.3643 243.862 75.5938 245.005 76.0527C246.157 76.502 247.104 77.0488 247.847 77.6934V81.9561H245.605L245.122 78.9092C244.683 78.5576 244.136 78.2646 243.481 78.0303C242.827 77.7959 242.017 77.6787 241.05 77.6787C240.249 77.6787 239.526 77.8203 238.882 78.1035C238.257 78.3965 237.769 78.8018 237.417 79.3193C237.065 79.8369 236.89 80.4473 236.89 81.1504C236.89 81.7656 237.051 82.3027 237.373 82.7617C237.959 83.6309 239.434 84.3584 241.797 84.9443C246.357 86.0771 248.638 88.2451 248.638 91.4482C248.638 92.5908 248.33 93.6016 247.715 94.4805C247.1 95.3691 246.23 96.0625 245.107 96.5605C243.994 97.0586 242.681 97.3076 241.167 97.3076ZM256.416 88.4453V94.7441L258.804 95.1543V97H251.143V95.1543L253.53 94.7441V77.9424L251.143 77.5322V75.6719H260.942C262.476 75.6719 263.774 75.9355 264.839 76.4629C267.046 77.5566 268.149 79.4219 268.149 82.0586C268.149 83.3574 267.866 84.4805 267.3 85.4277C266.733 86.3848 265.913 87.127 264.839 87.6543C263.765 88.1816 262.466 88.4453 260.942 88.4453H256.416ZM260.942 77.9424H256.416V86.1895H260.942C262.388 86.1895 263.467 85.8037 264.18 85.0322C264.902 84.251 265.264 83.2695 265.264 82.0879C265.264 80.9062 264.902 79.9199 264.18 79.1289C263.467 78.3379 262.388 77.9424 260.942 77.9424ZM278.857 97.3076C277.48 97.3076 276.245 97.0439 275.151 96.5166C274.058 95.9893 273.13 95.2422 272.368 94.2754C270.786 92.3027 269.995 89.71 269.995 86.4971V86.1895C269.995 82.9863 270.786 80.3887 272.368 78.3965C273.13 77.4297 274.058 76.6826 275.151 76.1553C276.245 75.6279 277.48 75.3643 278.857 75.3643C280.312 75.3643 281.592 75.6279 282.695 76.1553C283.809 76.6826 284.736 77.4297 285.479 78.3965C286.23 79.3633 286.792 80.5107 287.163 81.8389C287.544 83.1572 287.734 84.6074 287.734 86.1895V86.4971C287.734 88.0889 287.544 89.5439 287.163 90.8623C286.792 92.1807 286.23 93.3184 285.479 94.2754C284.736 95.2422 283.809 95.9893 282.695 96.5166C281.592 97.0439 280.312 97.3076 278.857 97.3076ZM278.857 94.9053C280.273 94.9053 281.421 94.5537 282.3 93.8506C283.169 93.1475 283.809 92.166 284.219 90.9062C284.629 89.6367 284.834 88.167 284.834 86.4971V86.1602C284.834 84.5 284.629 83.04 284.219 81.7803C283.799 80.5303 283.149 79.5537 282.271 78.8506C281.392 78.1377 280.254 77.7812 278.857 77.7812C277.578 77.7812 276.494 78.1377 275.605 78.8506C274.717 79.5635 274.043 80.5498 273.584 81.8096C273.125 83.0596 272.896 84.5098 272.896 86.1602V86.4971C272.896 88.1475 273.125 89.6074 273.584 90.877C274.043 92.1465 274.717 93.1377 275.605 93.8506C276.494 94.5537 277.578 94.9053 278.857 94.9053ZM302.515 87.0537L306.118 94.8467L307.598 95.1104V97H304.038L299.761 87.3906L295.234 87.4785V94.7441L297.622 95.1543V97H289.961V95.1543L292.349 94.7441V77.9424L289.961 77.5322V75.6865H299.468C301.011 75.6865 302.324 75.916 303.408 76.375C305.586 77.332 306.675 79.0801 306.675 81.6191C306.675 82.8789 306.406 83.9287 305.869 84.7686C305.156 85.8916 304.038 86.6533 302.515 87.0537ZM295.234 77.9424V85.208H299.175C300.786 85.208 301.958 84.9004 302.69 84.2852C303.423 83.6699 303.789 82.7715 303.789 81.5898C303.789 80.4668 303.438 79.5781 302.734 78.9238C302.031 78.2695 300.942 77.9424 299.468 77.9424H295.234ZM325.454 80.8135L325.015 77.8545H320.181V94.7441L322.568 95.1543V97H314.907V95.1543L317.295 94.7441V77.8545H312.461L312.036 80.8135H309.868V75.6719H327.593V80.8135H325.454Z" fill="white"/>
</svg>
