<svg width="50" height="50" viewBox="0 0 50 50" fill="none" xmlns="http://www.w3.org/2000/svg">
<path d="M25.177 26.3306C26.2655 26.3306 27.1098 26.0508 27.71 25.4913C28.3203 24.9217 28.6255 24.1435 28.6255 23.1567C28.6255 22.1903 28.3203 21.4325 27.71 20.8832C27.1098 20.3237 26.2655 20.0439 25.177 20.0439H22.9187V26.3306H25.177Z" fill="black"/>
<path fill-rule="evenodd" clip-rule="evenodd" d="M43.75 25C43.75 35.3553 35.3553 43.75 25 43.75C14.6447 43.75 6.25 35.3553 6.25 25C6.25 14.6447 14.6447 6.25 25 6.25C35.3553 6.25 43.75 14.6447 43.75 25ZM17.1204 15.4053H26.5198C28.1474 15.4053 29.5766 15.7308 30.8075 16.3818C32.0485 17.0227 33.0048 17.9281 33.6761 19.0979C34.3577 20.2677 34.6985 21.6207 34.6985 23.1567C34.6985 24.7131 34.3526 26.0712 33.6609 27.2308C32.9692 28.3905 31.9926 29.2857 30.7312 29.9164C29.4698 30.5369 28.005 30.8472 26.3367 30.8472H22.9187V37.5H17.1204V15.4053Z" fill="black"/>
<path fill-rule="evenodd" clip-rule="evenodd" d="M50 25C50 38.8071 38.8071 50 25 50C11.1929 50 0 38.8071 0 25C0 11.1929 11.1929 0 25 0C38.8071 0 50 11.1929 50 25ZM48.4375 25C48.4375 37.9442 37.9442 48.4375 25 48.4375C12.0558 48.4375 1.5625 37.9442 1.5625 25C1.5625 12.0558 12.0558 1.5625 25 1.5625C37.9442 1.5625 48.4375 12.0558 48.4375 25Z" fill="black"/>
</svg>
