<svg width="25" height="25" viewBox="0 0 25 25" fill="none" xmlns="http://www.w3.org/2000/svg">
<path d="M15.2918 12.4166C15.9054 13.0271 16.897 13.0271 17.5106 12.4166L20.5522 9.37495C20.697 9.22717 20.8135 9.05419 20.896 8.86453C20.9625 8.68072 20.9977 8.48706 21.0002 8.29161C20.9987 8.09607 20.9634 7.90225 20.896 7.7187C20.8161 7.52759 20.6993 7.35413 20.5522 7.20828L17.5106 4.10411C16.9008 3.49142 15.9097 3.48909 15.297 4.09891C14.6843 4.70872 14.682 5.69976 15.2918 6.31245L15.6772 6.69786H10.1877C6.75624 6.72646 3.98963 9.51632 3.98975 12.9479V15.2083C3.99944 18.5341 6.64467 21.253 9.96891 21.3541H18.3022C19.1652 21.3541 19.8647 20.6546 19.8647 19.7916C19.8647 18.9287 19.1652 18.2291 18.3022 18.2291C18.3022 18.2291 10.3335 18.2291 10.1147 18.2291C8.45604 18.1783 7.13957 16.8157 7.146 15.1562V12.8958C7.14576 11.19 8.5134 9.79921 10.2189 9.77078H15.7085L15.3231 10.1562C15.0128 10.4483 14.8343 10.8537 14.8284 11.2798C14.8225 11.7059 14.9897 12.1161 15.2918 12.4166Z" fill="black"/>
</svg>
