<svg width="9" height="15" viewBox="0 0 9 15" fill="none" xmlns="http://www.w3.org/2000/svg">
<path d="M1.23711 0.0480804C1.53522 0.0491605 1.82087 0.167735 2.03211 0.378081L8.03211 6.37808C8.24464 6.58803 8.36426 6.87434 8.36426 7.17308C8.36426 7.47182 8.24464 7.75813 8.03211 7.96808L2.03211 13.9681C1.75166 14.2691 1.32928 14.393 0.930678 14.2912C0.532078 14.1894 0.220828 13.8781 0.119033 13.4795C0.0172377 13.0809 0.141131 12.6585 0.442111 12.3781L5.64711 7.17308L0.442111 1.96808C0.229582 1.75813 0.109965 1.47182 0.109965 1.17308C0.109965 0.874337 0.229582 0.588032 0.442111 0.378081C0.65335 0.167735 0.939007 0.0491605 1.23711 0.0480804Z" fill="black"/>
</svg>
