<svg width="25" height="26" viewBox="0 0 25 26" fill="none" xmlns="http://www.w3.org/2000/svg">
<g id="Arrow Icon">
<path id="Icon" d="M21.4373 11.896L14.1457 4.60431C13.7493 4.20983 13.1726 4.05676 12.6328 4.20276C12.093 4.34877 11.6721 4.77166 11.5287 5.31214C11.3852 5.85262 11.541 6.42858 11.9373 6.82306L16.5519 11.4272H4.6665C3.80356 11.4272 3.104 12.1268 3.104 12.9897C3.104 13.8527 3.80356 14.5522 4.6665 14.5522H16.5519L11.9373 19.1564C11.491 19.6032 11.3576 20.2748 11.5992 20.8583C11.8408 21.4418 12.41 21.8225 13.0415 21.8231C13.4608 21.8168 13.8595 21.6401 14.1457 21.3335L21.4373 14.0418C22.0466 13.4318 22.0466 12.4435 21.4373 11.8335V11.896Z" fill="black"/>
</g>
</svg>
