<svg width="30" height="30" viewBox="0 0 30 30" fill="none" xmlns="http://www.w3.org/2000/svg">
<path d="M19.7379 10.1875H13.6004C13.1309 10.1875 12.7504 9.80694 12.7504 9.3375C12.7504 8.86806 13.1309 8.4875 13.6004 8.4875H19.7379C20.2073 8.4875 20.5879 8.86806 20.5879 9.3375C20.5879 9.80694 20.2073 10.1875 19.7379 10.1875Z" fill="black"/>
<path d="M13.6379 15.825H18.0129C18.4823 15.825 18.8629 16.2056 18.8629 16.675C18.8629 17.1444 18.4823 17.525 18.0129 17.525H13.6379C13.1684 17.525 12.7879 17.1444 12.7879 16.675C12.7879 16.2056 13.1684 15.825 13.6379 15.825Z" fill="black"/>
<path d="M21.4879 12.15H13.6004C13.2698 12.11 12.9457 12.2639 12.7677 12.5454C12.5897 12.8269 12.5897 13.1856 12.7677 13.4671C12.9457 13.7486 13.2698 13.9025 13.6004 13.8625H21.4879C21.921 13.8101 22.2467 13.4425 22.2467 13.0062C22.2467 12.57 21.921 12.2024 21.4879 12.15Z" fill="black"/>
<path fill-rule="evenodd" clip-rule="evenodd" d="M14.9879 2.5H20.0879C23.3671 2.5 26.0254 5.15831 26.0254 8.4375V17.5875C26.0484 20.0746 24.5156 22.3113 22.1879 23.1875C21.9483 25.7669 19.7783 27.7361 17.1879 27.725H10.9379C7.65869 27.725 5.00038 25.0667 5.00038 21.7875V11.5125C4.98201 8.96937 6.87555 6.81762 9.40038 6.5125C10.2195 4.12242 12.4614 2.51247 14.9879 2.5ZM10.8879 25.8H17.1379C18.5352 25.801 19.7619 24.8708 20.1379 23.525H14.9879C11.7087 23.525 9.05038 20.8667 9.05038 17.5875V8.4875C7.73332 8.87931 6.82904 10.0884 6.82538 11.4625V21.7375C6.82538 23.9812 8.64422 25.8 10.8879 25.8ZM24.1504 17.5875C24.1504 19.8312 22.3315 21.65 20.0879 21.65H14.9879C12.7471 21.6431 10.9322 19.8283 10.9254 17.5875V8.4375C10.9322 6.19669 12.7471 4.38186 14.9879 4.375H20.0879C22.3315 4.375 24.1504 6.19384 24.1504 8.4375V17.5875Z" fill="black"/>
</svg>
