<svg width="322" height="200" viewBox="0 0 322 200" fill="none" xmlns="http://www.w3.org/2000/svg">
<path opacity="0.5" fill-rule="evenodd" clip-rule="evenodd" d="M159.903 200C215.132 200 259.903 155.228 259.903 100C259.903 44.7715 215.132 0 159.903 0C104.675 0 59.9033 44.7715 59.9033 100C59.9033 120.8 66.2537 140.117 77.1214 156.117L66.1398 199.616L112.297 187.963C126.452 195.64 142.669 200 159.903 200Z" fill="white"/>
<path d="M102.659 143.583C95.0189 132.933 99.1064 130.27 103.64 128.823C103.64 128.823 112.033 132.586 114.638 131.717C117.242 130.849 120.426 127.087 120.426 127.087L129.284 127.955C150.584 139.068 136.229 145.512 126.39 147.345L102.659 143.583Z" fill="white"/>
<path fill-rule="evenodd" clip-rule="evenodd" d="M250.26 102.077L47.7064 53.2139C47.414 53.1433 47.1251 53.0993 46.8247 53.0845C34.6826 52.4874 9.49993 54.7844 2.41007 68.7354C-4.63781 82.6038 14.7145 98.5373 25.8274 105.136C26.2311 105.375 26.6614 105.547 27.1169 105.66L70.8204 116.523C73.8012 117.263 76.6896 115.134 77.5746 112.193C79.9844 104.184 85.4685 100.276 89.1067 98.9329C89.93 98.629 90.8295 98.6779 91.6692 98.9331L117.949 106.92C119.203 107.301 120.557 107.175 121.719 106.568L162.327 85.3469C163.844 84.554 165.661 84.5925 167.144 85.449L172.888 88.768C175.49 90.2713 176.187 93.7138 174.376 96.1114L152.834 124.623C150.671 127.485 152.131 131.621 155.62 132.457C169.31 135.74 190.277 140.513 201.806 142.243C219.17 144.847 267.5 141.664 292.099 134.429C304.228 130.862 313.462 124.839 319.598 119.478C322.898 116.595 320.323 112.211 316.005 112.957L266.1 121.577C264.866 121.79 263.738 120.84 263.738 119.588C263.738 118.626 264.417 117.798 265.36 117.609L295.865 111.508C297.491 111.183 298.851 110.072 299.494 108.543L315.345 70.8363C316.519 68.0418 314.957 64.8532 312.029 64.0689L288.571 57.7854C286.523 57.2369 284.352 58.0394 283.153 59.788L255.557 100.043C254.384 101.754 252.276 102.563 250.26 102.077ZM177.498 105.249C178.123 102.605 180.773 100.968 183.417 101.593C186.061 102.218 187.698 104.868 187.073 107.512L186.408 110.328C185.783 112.973 183.133 114.61 180.488 113.985C177.844 113.36 176.207 110.71 176.832 108.065L177.498 105.249ZM198.466 105.643C195.822 105.018 193.171 106.655 192.546 109.299L191.881 112.116C191.256 114.76 192.893 117.41 195.537 118.035C198.181 118.66 200.832 117.023 201.457 114.379L202.122 111.562C202.747 108.918 201.11 106.268 198.466 105.643ZM222.644 116.826C223.269 114.182 225.919 112.545 228.563 113.17C231.208 113.795 232.845 116.445 232.22 119.089L231.554 121.906C230.929 124.55 228.279 126.187 225.635 125.562C222.99 124.937 221.353 122.287 221.978 119.643L222.644 116.826ZM213.514 109.117C210.87 108.492 208.22 110.129 207.595 112.773L206.929 115.589C206.304 118.234 207.941 120.884 210.586 121.509C213.23 122.134 215.88 120.497 216.505 117.853L217.171 115.036C217.796 112.392 216.159 109.742 213.514 109.117Z" fill="white"/>
<path d="M115.285 110.742L92.8409 103.792C91.9218 103.507 90.9287 103.479 90.0232 103.804C82.4517 106.523 80.6614 112.512 81.2376 117.296C81.5798 120.138 84.1039 121.986 86.8806 122.681L111.728 128.903C113.002 129.223 114.381 129.06 115.412 128.245C121.581 123.368 119.871 116.068 117.513 112.332C117.01 111.535 116.186 111.021 115.285 110.742Z" fill="white"/>
</svg>
