<svg width="51" height="50" viewBox="0 0 51 50" fill="none" xmlns="http://www.w3.org/2000/svg">
<path fill-rule="evenodd" clip-rule="evenodd" d="M40.1916 8H10.0941C6.09258 8.1824 2.99153 11.4674 3.14853 15.3575V27.6425C2.99153 31.5326 6.09258 34.8176 10.0941 35H18.7529C18.5157 36.4356 18.1595 37.8502 17.6879 39.23L16.9008 41.345C16.6641 41.9098 16.7152 42.5499 17.0387 43.0724C17.3622 43.5949 17.9202 43.9387 18.5445 44H31.7411C32.3654 43.9387 32.9234 43.5949 33.2469 43.0724C33.5704 42.5499 33.6216 41.9098 33.3849 41.345L32.5977 39.23C32.1261 37.8502 31.77 36.4356 31.5327 35H40.1916C44.1931 34.8176 47.2941 31.5326 47.1371 27.6425V15.3575C47.2941 11.4674 44.1931 8.1824 40.1916 8ZM20.8597 40.625V40.355C21.3617 38.9774 21.7488 37.5629 22.0173 36.125H28.0831C28.3625 37.5605 28.7494 38.9743 29.2407 40.355V40.625H20.8597ZM40.1916 31.625C42.27 31.4345 43.8119 29.6663 43.6643 27.6425V15.3575C43.8119 13.3337 42.27 11.5655 40.1916 11.375H10.0941C8.01563 11.5655 6.47375 13.3337 6.62131 15.3575V27.6425C6.47375 29.6663 8.01563 31.4345 10.0941 31.625H40.1916Z" fill="black"/>
</svg>
