<svg width="321" height="233" viewBox="0 0 321 233" fill="none" xmlns="http://www.w3.org/2000/svg">
<path d="M22.088 137.433L22.2833 132.477H28.8262V144H1.38483V138.995L5.07135 138.214V114.264L1.38483 113.482V108.453H18.1329V113.482L13.6407 114.264V137.433H22.088ZM42.7667 114.264V138.214L46.4532 138.995V144H30.5352V138.995L34.2217 138.214V114.264L30.5352 113.482V108.453H46.4532V113.482L42.7667 114.264ZM59.6368 121.734V138.214L64.3243 138.995V144H48.3819V138.995L52.044 138.214V114.264L48.3819 113.482V108.453H60.7598L75.0176 131.207H75.1641V114.264L70.501 113.482V108.453H86.4434V113.482L82.7569 114.264V144H74.3096L59.7833 121.734H59.6368ZM104.607 144.513C100.913 144.513 97.8041 143.797 95.2813 142.364C92.726 140.932 90.781 138.946 89.4464 136.407C88.1117 133.852 87.4444 130.898 87.4444 127.545V125.934C87.4444 122.402 88.1036 119.285 89.4219 116.583C90.7403 113.881 92.6527 111.765 95.1592 110.235C97.6658 108.705 100.693 107.94 104.241 107.94C106.666 107.94 109.1 108.315 111.541 109.063C113.982 109.796 116.131 110.96 117.986 112.555V120.88H111.883L110.589 116.363C110.036 115.794 109.246 115.322 108.221 114.947C107.212 114.573 106.072 114.386 104.803 114.386C102.866 114.386 101.23 114.866 99.8956 115.826C98.5772 116.803 97.5844 118.154 96.9171 119.879C96.266 121.604 95.9405 123.606 95.9405 125.885V127.545C95.9405 129.71 96.2904 131.573 96.9903 133.136C97.6739 134.715 98.683 135.935 100.018 136.798C101.352 137.66 102.996 138.092 104.949 138.092C105.975 138.092 106.992 137.986 108.001 137.774C109.01 137.563 109.8 137.327 110.369 137.066V132.477L106.365 131.988V126.08H118.963V140.826C117.042 142.063 114.87 142.991 112.444 143.609C110.036 144.212 107.423 144.513 104.607 144.513ZM139.105 144.513C136.647 144.513 134.385 144.065 132.317 143.17C130.267 142.258 128.484 140.989 126.971 139.361C125.457 137.734 124.285 135.829 123.455 133.648C122.641 131.451 122.234 129.067 122.234 126.495V125.934C122.234 123.378 122.641 121.01 123.455 118.829C124.285 116.648 125.457 114.744 126.971 113.116C128.468 111.489 130.242 110.219 132.293 109.308C134.344 108.396 136.598 107.94 139.056 107.94C141.465 107.94 143.703 108.396 145.77 109.308C147.837 110.219 149.651 111.489 151.214 113.116C152.76 114.744 153.965 116.648 154.827 118.829C155.69 121.01 156.121 123.378 156.121 125.934V126.495C156.121 129.067 155.69 131.451 154.827 133.648C153.965 135.829 152.76 137.734 151.214 139.361C149.668 140.989 147.861 142.258 145.794 143.17C143.727 144.065 141.497 144.513 139.105 144.513ZM139.105 138.019C140.879 138.019 142.409 137.538 143.694 136.578C146.299 134.592 147.601 131.231 147.601 126.495V125.885C147.601 123.655 147.267 121.661 146.6 119.903C145.916 118.194 144.94 116.86 143.67 115.899C142.4 114.939 140.862 114.459 139.056 114.459C137.135 114.459 135.581 114.931 134.393 115.875C133.172 116.819 132.269 118.146 131.683 119.854C131.097 121.563 130.804 123.574 130.804 125.885V126.495C130.804 128.823 131.105 130.841 131.707 132.55C132.293 134.275 133.196 135.618 134.417 136.578C135.654 137.538 137.217 138.019 139.105 138.019ZM191.107 144.513C188.209 144.513 185.638 144.236 183.392 143.683C181.146 143.129 178.908 142.088 176.678 140.558V131.329H183.294L184.026 136.065C184.547 136.651 185.467 137.148 186.785 137.555C188.104 137.945 189.544 138.141 191.107 138.141C192.181 138.141 193.092 138.002 193.841 137.726C195.322 137.188 196.063 136.171 196.063 134.674C196.063 133.974 195.892 133.347 195.55 132.794C194.866 131.752 193.214 130.719 190.594 129.693C187.599 128.733 185.101 127.74 183.099 126.715C181.146 125.706 179.689 124.509 178.729 123.126C177.785 121.743 177.313 120.025 177.313 117.975C177.313 116.005 177.874 114.28 178.997 112.799C180.12 111.334 181.666 110.178 183.636 109.332C185.605 108.486 187.859 108.038 190.398 107.989C193.296 107.924 195.859 108.217 198.089 108.868C200.319 109.503 202.288 110.471 203.997 111.773V120.343H197.649L196.648 115.582C196.095 115.305 195.306 115.053 194.28 114.825C193.255 114.597 192.164 114.483 191.009 114.483C189.983 114.483 189.105 114.614 188.372 114.874C187.591 115.134 186.972 115.525 186.517 116.046C186.077 116.567 185.857 117.218 185.857 117.999C185.857 118.618 186.045 119.179 186.419 119.684C186.826 120.237 187.575 120.782 188.665 121.319C189.756 121.856 190.984 122.385 192.352 122.906C196.388 124.094 199.448 125.584 201.531 127.374C203.631 129.148 204.681 131.565 204.681 134.625C204.681 136.741 204.111 138.523 202.972 139.972C201.832 141.453 200.246 142.584 198.211 143.365C196.176 144.13 193.808 144.513 191.107 144.513ZM218.035 144.562C215.268 144.562 213.161 143.829 211.712 142.364C210.28 140.883 209.564 138.548 209.564 135.357V123.492H206.268V117.584H209.564V111.065H218.084V117.584H222.405V123.492H218.084V135.333C218.084 136.196 218.279 136.798 218.67 137.14C219.061 137.481 219.598 137.652 220.281 137.652C220.574 137.652 220.867 137.636 221.16 137.604C221.453 137.571 221.746 137.53 222.039 137.481L222.625 143.878C221.876 144.09 221.12 144.252 220.355 144.366C219.606 144.496 218.833 144.562 218.035 144.562ZM238.03 144.513C235.312 144.513 232.993 143.943 231.072 142.804C229.152 141.681 227.679 140.11 226.653 138.092C225.628 136.057 225.115 133.705 225.115 131.036V130.548C225.115 127.911 225.628 125.584 226.653 123.565C227.662 121.547 229.127 119.968 231.048 118.829C232.968 117.674 235.28 117.096 237.982 117.096C240.7 117.096 243.019 117.665 244.94 118.805C246.844 119.944 248.301 121.523 249.31 123.541C250.335 125.559 250.848 127.895 250.848 130.548V131.036C250.848 133.657 250.343 135.992 249.334 138.043C248.309 140.061 246.836 141.648 244.915 142.804C243.011 143.943 240.716 144.513 238.03 144.513ZM238.03 137.994C239.056 137.994 239.894 137.709 240.545 137.14C241.163 136.57 241.611 135.772 241.888 134.747C242.181 133.705 242.327 132.468 242.327 131.036V130.548C242.327 129.197 242.189 127.984 241.912 126.91C241.619 125.885 241.155 125.087 240.521 124.518C239.886 123.932 239.039 123.639 237.982 123.639C236.956 123.639 236.118 123.924 235.467 124.493C234.832 125.079 234.376 125.893 234.1 126.935C233.823 127.96 233.685 129.164 233.685 130.548V131.036C233.685 132.452 233.823 133.697 234.1 134.771C234.376 135.813 234.832 136.611 235.467 137.164C236.102 137.717 236.956 137.994 238.03 137.994ZM266.229 138.214L269.305 138.995V144H254.583V138.995L257.659 138.214V123.395L253.997 122.613V117.584H265.74L265.936 120.807L265.984 121.466C267.124 118.552 268.939 117.096 271.429 117.096C271.787 117.096 272.21 117.128 272.698 117.193C273.187 117.242 273.683 117.34 274.188 117.486L273.333 125.348L269.671 125.177C268.825 125.144 268.157 125.242 267.669 125.47C267.197 125.681 266.717 126.039 266.229 126.544V138.214ZM288.836 144.513C286.264 144.513 284.01 143.951 282.073 142.828C280.153 141.721 278.655 140.2 277.581 138.263C276.507 136.326 275.97 134.137 275.97 131.695V130.792C275.97 128.09 276.442 125.714 277.386 123.663C278.33 121.596 279.713 119.985 281.536 118.829C283.359 117.657 285.597 117.079 288.25 117.096C290.626 117.096 292.653 117.551 294.329 118.463C297.698 120.367 299.383 123.915 299.383 129.107V133.526H284.857L284.832 133.697C284.946 134.511 285.231 135.243 285.687 135.895C286.11 136.546 286.704 137.058 287.469 137.433C288.234 137.807 289.178 137.994 290.301 137.994C292.449 137.994 294.663 137.465 296.941 136.407L298.895 141.583C297.706 142.429 296.258 143.129 294.549 143.683C292.84 144.236 290.936 144.513 288.836 144.513ZM284.759 128.106L284.857 128.229H291.57V127.594C291.57 126.682 291.481 125.893 291.302 125.226C290.911 123.94 289.959 123.297 288.445 123.297C287.583 123.297 286.899 123.5 286.395 123.907C285.89 124.314 285.516 124.884 285.272 125.616C285.027 126.349 284.857 127.179 284.759 128.106Z" fill="#2A2B2D"/>
<path d="M23.2745 97.168L21.3995 91.9336H10.0128L8.07922 97.168L10.2277 97.5391V100H2.08313V97.5391L4.1925 97.2461L14.1339 71.5625H17.4347L27.2003 97.2461L29.2902 97.5391V100H21.1261V97.5391L23.2745 97.168ZM11.2042 88.7109H20.2277L16.048 77.1484L15.8136 76.5039H15.6964L15.462 77.1484L11.2042 88.7109ZM42.4738 71.5625V74.043L39.2902 74.5898V96.9922L42.4738 97.5391V100H32.2589V97.5391L35.4425 96.9922V74.5898L32.2589 74.043V71.5625H42.4738ZM62.3956 86.7383L67.2003 97.1289L69.173 97.4805V100H64.4269L58.7238 87.1875L52.6886 87.3047V96.9922L55.8722 97.5391V100H45.6573V97.5391L48.8409 96.9922V74.5898L45.6573 74.043V71.582H58.3331C60.3904 71.582 62.1417 71.888 63.587 72.5C66.4907 73.776 67.9425 76.1068 67.9425 79.4922C67.9425 81.1719 67.5844 82.5716 66.8683 83.6914C65.9178 85.1888 64.4269 86.2044 62.3956 86.7383ZM52.6886 74.5898V84.2773H57.9425C60.0909 84.2773 61.6534 83.8672 62.63 83.0469C63.6066 82.2266 64.0948 81.0286 64.0948 79.4531C64.0948 77.9557 63.6261 76.7708 62.6886 75.8984C61.7511 75.026 60.2993 74.5898 58.3331 74.5898H52.6886Z" fill="#00A8B3"/>
<path fill-rule="evenodd" clip-rule="evenodd" d="M254.154 51.8679L66.6462 0.250362C66.3177 0.159912 65.9896 0.102995 65.6493 0.0845089C54.3364 -0.530071 31.0543 1.93148 24.4868 16.6787C17.9566 31.3421 35.8268 48.1836 46.1611 55.209C46.5857 55.4976 47.0493 55.7071 47.5432 55.8472L87.4207 67.1579C90.4606 68.0201 93.4886 65.8568 94.2881 62.7997C96.4659 54.4727 101.388 50.3121 104.772 48.7922C105.681 48.3841 106.707 48.4482 107.648 48.7746L131.423 57.0202C132.818 57.5038 134.355 57.3466 135.623 56.5906L172.594 34.5431C174.242 33.5606 176.306 33.6073 177.907 34.6631L183.202 38.1543C185.511 39.6764 186.146 42.7833 184.619 45.089L163.745 76.6155C161.876 79.4388 163.29 83.2606 166.556 84.1551C179.265 87.6364 198.919 92.7481 209.696 94.5928C225.824 97.3536 270.715 93.9794 293.564 86.3106C305.095 82.4407 313.808 75.8448 319.503 70.0646C322.519 67.0035 319.755 62.7656 315.539 63.5966L269.766 72.6189C268.448 72.8786 267.221 71.8699 267.221 70.5266C267.221 69.5317 267.909 68.669 268.879 68.4476L296.836 62.0671C298.484 61.6909 299.83 60.5072 300.415 58.9208L315.391 18.2682C316.384 15.5732 314.907 12.5978 312.161 11.7582L290.849 5.24399C288.653 4.57297 286.283 5.48299 285.101 7.45077L259.767 49.622C258.612 51.5451 256.317 52.4633 254.154 51.8679ZM187.233 54.8172C187.749 52.3261 190.158 50.8437 192.615 51.5061C195.071 52.1685 196.644 54.7249 196.128 57.2159L195.276 61.3302C194.76 63.8212 192.35 65.3036 189.894 64.6412C187.438 63.9788 185.865 61.4225 186.381 58.9314L187.233 54.8172ZM206.593 55.8009C204.137 55.1385 201.728 56.621 201.212 59.112L200.36 63.2262C199.844 65.7173 201.417 68.2736 203.873 68.936C206.329 69.5984 208.738 68.116 209.254 65.625L210.106 61.5107C210.622 59.0197 209.049 56.4633 206.593 55.8009ZM229.168 67.0876C229.684 64.5965 232.093 63.1141 234.549 63.7765C237.005 64.4389 238.578 66.9953 238.062 69.4863L237.21 73.6006C236.694 76.0916 234.285 77.574 231.829 76.9116C229.373 76.2492 227.8 73.6929 228.316 71.2018L229.168 67.0876ZM220.572 59.4816C218.115 58.8192 215.706 60.3016 215.19 62.7926L214.338 66.9069C213.822 69.3979 215.395 71.9543 217.851 72.6167C220.307 73.2791 222.717 71.7967 223.233 69.3056L224.085 65.1914C224.601 62.7003 223.028 60.144 220.572 59.4816ZM117.603 96.012C110.506 84.7237 114.303 81.9016 118.514 80.3678C118.514 80.3678 126.31 84.3556 128.729 83.4353C131.148 82.5151 134.105 78.5274 134.105 78.5274L142.333 79.4476C162.118 91.2267 148.785 98.057 139.645 99.9997L117.603 96.012ZM108.761 53.9347L129.186 61.153C130.115 61.4813 130.947 62.064 131.421 62.9277C133.568 66.8415 135.114 74.3807 129.692 79.5301C128.623 80.5456 127.055 80.7478 125.637 80.3426L103.329 73.9677C100.513 73.1629 98.0423 71.1664 97.7167 68.2558C97.1546 63.2331 98.7427 56.9167 105.595 53.9634C106.598 53.5315 107.732 53.5711 108.761 53.9347Z" fill="#00A8B3"/>
<path d="M83.2051 193.826H72.5361V179.129H83.2051V193.826ZM75.6123 191.36H80.1045V181.57H75.6123V191.36ZM89.3574 185.403H92.6289V187.991H89.3574V199.246H86.2324V177.029H89.3574V185.403ZM99.7578 177.688C100.873 177.688 101.882 177.904 102.785 178.335C103.688 178.767 104.396 179.369 104.909 180.142C105.43 180.915 105.69 181.79 105.69 182.767C105.69 183.727 105.43 184.594 104.909 185.367C104.396 186.132 103.688 186.734 102.785 187.173C101.882 187.605 100.873 187.82 99.7578 187.82C98.6266 187.82 97.6053 187.605 96.6938 187.173C95.7824 186.734 95.0662 186.132 94.5454 185.367C94.0327 184.594 93.7764 183.727 93.7764 182.767C93.7764 181.79 94.0327 180.915 94.5454 180.142C95.0662 179.369 95.7783 178.767 96.6816 178.335C97.5931 177.904 98.6185 177.688 99.7578 177.688ZM99.7578 180.228C99.1882 180.228 98.6755 180.329 98.2197 180.533C97.7721 180.728 97.4222 181.021 97.1699 181.412C96.9176 181.794 96.7956 182.246 96.8037 182.767C96.7956 183.287 96.9176 183.739 97.1699 184.122C97.4222 184.504 97.7721 184.797 98.2197 185C98.6755 185.204 99.1882 185.306 99.7578 185.306C100.319 185.306 100.82 185.204 101.259 185C101.707 184.797 102.057 184.504 102.309 184.122C102.561 183.739 102.688 183.287 102.688 182.767C102.688 182.238 102.561 181.782 102.309 181.399C102.057 181.017 101.707 180.728 101.259 180.533C100.82 180.329 100.319 180.228 99.7578 180.228ZM112.038 188.162H108.913V177.029H112.038V188.162ZM112.038 195.12H100.222V196.561H112.648V199.002H97.1699V192.85H108.938V191.482H97.1211V189.09H112.038V195.12ZM133.669 199.295H130.568V177.029H133.669V199.295ZM126.784 187.454H119.46V191.531C121.201 191.523 122.825 191.462 124.331 191.348C125.844 191.234 127.395 191.051 128.981 190.799L129.25 193.313C127.525 193.615 125.808 193.822 124.099 193.936C122.39 194.042 120.437 194.095 118.239 194.095H116.237V184.988H123.61V181.399H116.213V178.885H126.784V187.454ZM145.266 183.084C145.266 184.313 145.473 185.521 145.888 186.709C146.311 187.889 146.942 188.951 147.78 189.896C148.618 190.84 149.636 191.564 150.832 192.068L149.147 194.51C147.87 193.973 146.775 193.183 145.864 192.142C144.952 191.1 144.236 189.883 143.715 188.492C143.203 190.005 142.482 191.336 141.555 192.483C140.627 193.623 139.528 194.485 138.259 195.071L136.477 192.605C137.665 192.076 138.678 191.307 139.516 190.298C140.362 189.289 140.997 188.158 141.42 186.905C141.852 185.643 142.067 184.37 142.067 183.084V181.717H137.355V179.178H149.904V181.717H145.266V183.084ZM155.251 199.246H152.102V177.029H155.251V199.246ZM178.151 188.602H158.596V187.601H178.151V188.602ZM175.637 194.949H162.233V197.513H176.369V198.465H161.086V194.021H174.489V191.702H161.013V190.75H175.637V194.949ZM175.539 182.278H162.331V184.646H175.93V185.599H161.208V181.399H174.392V179.178H161.11V178.25H175.539V182.278ZM192.751 183.792C192.743 184.972 193.024 186.168 193.593 187.381C194.163 188.585 194.899 189.668 195.803 190.628C196.706 191.588 197.634 192.304 198.586 192.776L197.829 193.704C197.056 193.281 196.295 192.707 195.546 191.983C194.806 191.25 194.139 190.416 193.544 189.48C192.958 188.545 192.515 187.568 192.214 186.551C191.921 187.625 191.477 188.663 190.883 189.664C190.297 190.656 189.626 191.539 188.869 192.312C188.12 193.086 187.355 193.696 186.574 194.144L185.817 193.216C186.761 192.719 187.681 191.967 188.576 190.958C189.471 189.948 190.2 188.809 190.761 187.54C191.331 186.27 191.62 185.021 191.628 183.792V179.422H192.751V183.792ZM202.37 186.404H206.203V187.43H202.37V198.831H201.223V177.444H202.37V186.404ZM227.102 189.31H207.644V188.309H212.746V184.988C211.835 184.671 211.139 184.244 210.659 183.707C210.179 183.161 209.938 182.522 209.938 181.79C209.938 180.968 210.236 180.268 210.83 179.69C211.424 179.104 212.274 178.661 213.381 178.36C214.496 178.059 215.822 177.908 217.36 177.908C218.898 177.908 220.221 178.059 221.328 178.36C222.443 178.661 223.297 179.104 223.891 179.69C224.485 180.268 224.782 180.968 224.782 181.79C224.782 182.514 224.546 183.145 224.074 183.682C223.61 184.219 222.935 184.646 222.048 184.964V188.309H227.102V189.31ZM217.385 191.287C218.907 191.287 220.213 191.434 221.303 191.727C222.402 192.011 223.24 192.431 223.818 192.984C224.396 193.537 224.685 194.209 224.685 194.998C224.685 195.796 224.392 196.475 223.806 197.037C223.228 197.598 222.394 198.025 221.303 198.318C220.213 198.611 218.907 198.758 217.385 198.758C215.855 198.758 214.541 198.611 213.442 198.318C212.351 198.025 211.513 197.598 210.927 197.037C210.349 196.475 210.061 195.796 210.061 194.998C210.061 194.209 210.349 193.537 210.927 192.984C211.513 192.422 212.351 191.999 213.442 191.714C214.541 191.43 215.855 191.287 217.385 191.287ZM217.385 192.239C216.148 192.239 215.065 192.353 214.138 192.581C213.21 192.801 212.494 193.122 211.989 193.545C211.485 193.96 211.232 194.445 211.232 194.998C211.232 195.568 211.485 196.064 211.989 196.487C212.494 196.902 213.21 197.22 214.138 197.439C215.065 197.667 216.148 197.781 217.385 197.781C218.614 197.781 219.688 197.667 220.607 197.439C221.535 197.22 222.251 196.902 222.756 196.487C223.26 196.064 223.513 195.568 223.513 194.998C223.513 194.445 223.26 193.96 222.756 193.545C222.251 193.122 221.535 192.801 220.607 192.581C219.688 192.353 218.614 192.239 217.385 192.239ZM217.36 178.86C216.107 178.86 215.008 178.982 214.064 179.227C213.129 179.463 212.4 179.804 211.879 180.252C211.367 180.691 211.11 181.204 211.11 181.79C211.11 182.376 211.367 182.889 211.879 183.328C212.392 183.768 213.12 184.105 214.064 184.341C215.008 184.577 216.107 184.695 217.36 184.695C218.614 184.695 219.712 184.577 220.656 184.341C221.6 184.105 222.329 183.768 222.841 183.328C223.354 182.889 223.61 182.376 223.61 181.79C223.61 181.204 223.35 180.691 222.829 180.252C222.316 179.804 221.588 179.463 220.644 179.227C219.708 178.982 218.614 178.86 217.36 178.86ZM220.9 188.309V185.293C219.867 185.513 218.752 185.623 217.556 185.623C216.123 185.623 214.903 185.517 213.894 185.306V188.309H220.9ZM240.163 182.425H229.201V181.424H234.084V178.104H235.256V181.424H240.163V182.425ZM234.67 184.158C235.541 184.166 236.322 184.374 237.014 184.781C237.705 185.18 238.247 185.737 238.637 186.453C239.028 187.169 239.227 187.983 239.235 188.895C239.227 189.814 239.024 190.636 238.625 191.36C238.234 192.076 237.693 192.638 237.001 193.045C236.318 193.444 235.541 193.639 234.67 193.631C233.799 193.639 233.018 193.444 232.326 193.045C231.634 192.638 231.093 192.072 230.703 191.348C230.312 190.624 230.121 189.806 230.129 188.895C230.121 187.983 230.312 187.169 230.703 186.453C231.093 185.737 231.634 185.18 232.326 184.781C233.018 184.374 233.799 184.166 234.67 184.158ZM234.67 185.184C234.011 185.192 233.413 185.363 232.875 185.696C232.347 186.022 231.931 186.469 231.63 187.039C231.329 187.601 231.179 188.219 231.179 188.895C231.179 189.578 231.329 190.205 231.63 190.774C231.931 191.336 232.347 191.779 232.875 192.105C233.413 192.431 234.011 192.589 234.67 192.581C235.329 192.589 235.923 192.431 236.452 192.105C236.989 191.779 237.408 191.336 237.709 190.774C238.011 190.205 238.161 189.578 238.161 188.895C238.161 188.219 238.011 187.601 237.709 187.039C237.408 186.469 236.989 186.022 236.452 185.696C235.923 185.363 235.329 185.192 234.67 185.184ZM247.292 198.831H246.169V187.674H242.58V197.684H241.481V178.006H242.58V186.648H246.169V177.444H247.292V198.831ZM39.0278 229.246H36.0981V207.029H39.0278V229.246ZM34.3892 228.27H31.4351V220.945H28.2856V218.431H31.4351V215.403H28.7007C28.1636 217.299 27.2928 219.013 26.0884 220.542C24.884 222.072 23.2726 223.436 21.2544 224.632L19.4233 222.435C21.6369 221.132 23.2848 219.655 24.3672 218.003C25.4577 216.343 26.1128 214.402 26.3325 212.181H20.7173V209.666H29.4331C29.4331 210.748 29.3639 211.823 29.2256 212.889H31.4351V207.518H34.3892V228.27ZM60.0972 220.213H56.9966V214.964H53.5298V212.449H56.9966V207.029H60.0972V220.213ZM52.5044 220.701C54.0832 220.709 55.4422 220.884 56.5815 221.226C57.729 221.56 58.612 222.048 59.2305 222.691C59.849 223.334 60.1623 224.103 60.1704 224.998C60.1623 225.885 59.849 226.65 59.2305 227.293C58.612 227.936 57.729 228.424 56.5815 228.758C55.4341 229.1 54.075 229.271 52.5044 229.271C50.9338 229.271 49.5747 229.1 48.4272 228.758C47.2798 228.424 46.3968 227.936 45.7783 227.293C45.168 226.65 44.8628 225.885 44.8628 224.998C44.8628 224.103 45.168 223.334 45.7783 222.691C46.3968 222.048 47.2757 221.56 48.415 221.226C49.5625 220.884 50.9256 220.709 52.5044 220.701ZM52.5044 223.094C49.4771 223.094 47.9634 223.729 47.9634 224.998C47.9634 225.633 48.3459 226.109 49.1108 226.426C49.884 226.744 51.0151 226.902 52.5044 226.902C53.9937 226.902 55.1248 226.744 55.8979 226.426C56.6792 226.101 57.0698 225.625 57.0698 224.998C57.0698 223.729 55.548 223.094 52.5044 223.094ZM54.189 210.862H49.77C49.7944 211.757 49.9938 212.62 50.3682 213.45C50.7507 214.272 51.3162 215.013 52.0649 215.672C52.8218 216.331 53.7576 216.844 54.8726 217.21L53.3345 219.651C52.1463 219.269 51.1209 218.699 50.2583 217.942C49.4038 217.177 48.7284 216.278 48.2319 215.245C47.7192 216.417 47.0112 217.434 46.1079 218.296C45.2046 219.151 44.1141 219.798 42.8364 220.237L41.2251 217.771C42.397 217.381 43.3776 216.827 44.167 216.111C44.9645 215.387 45.5586 214.573 45.9492 213.67C46.348 212.767 46.5636 211.831 46.5962 210.862H42.1284V208.372H54.189V210.862ZM73.061 207.859C74.6073 207.859 75.9338 208.006 77.0405 208.299C78.1554 208.584 79.0059 209.007 79.5918 209.568C80.1859 210.122 80.4829 210.797 80.4829 211.595C80.4829 212.392 80.1859 213.072 79.5918 213.633C79.0059 214.195 78.1554 214.622 77.0405 214.915C75.9338 215.208 74.6073 215.354 73.061 215.354C71.5067 215.354 70.172 215.208 69.0571 214.915C67.9504 214.622 67.104 214.195 66.5181 213.633C65.9321 213.072 65.6392 212.392 65.6392 211.595C65.6392 210.797 65.9321 210.122 66.5181 209.568C67.104 209.007 67.9504 208.584 69.0571 208.299C70.172 208.006 71.5067 207.859 73.061 207.859ZM73.061 208.812C71.8078 208.803 70.7091 208.913 69.7651 209.141C68.8211 209.369 68.0928 209.694 67.5801 210.118C67.0755 210.541 66.8273 211.033 66.8354 211.595C66.8273 212.173 67.0755 212.673 67.5801 213.096C68.0928 213.519 68.8171 213.845 69.7529 214.073C70.6969 214.292 71.7996 214.402 73.061 214.402C74.3224 214.402 75.4251 214.292 76.3691 214.073C77.3132 213.845 78.0374 213.519 78.542 213.096C79.0547 212.673 79.311 212.173 79.311 211.595C79.311 211.033 79.0547 210.541 78.542 210.118C78.0293 209.694 77.3009 209.369 76.3569 209.141C75.4129 208.913 74.3143 208.803 73.061 208.812ZM82.8022 218.089H63.3442V217.088H82.8022V218.089ZM80.2144 224.681H66.9819V227.537H80.9224V228.514H65.8589V223.729H79.0913V221.287H65.7856V220.335H80.2144V224.681ZM107.094 216.233H110.927V217.259H107.094V228.855H105.947V207.444H107.094V216.233ZM93.3491 222.337C95.5627 222.337 97.4222 222.284 98.9277 222.178C100.441 222.064 101.984 221.857 103.554 221.556L103.725 222.605C102.114 222.907 100.551 223.11 99.0376 223.216C97.5321 223.313 95.6359 223.362 93.3491 223.362H91.7622V209.593H101.699V210.594H92.9097V222.337H93.3491ZM118.349 214.085C118.349 215.232 118.565 216.384 118.996 217.54C119.436 218.687 120.034 219.725 120.791 220.652C121.556 221.572 122.402 222.28 123.33 222.776L122.573 223.68C121.474 223.053 120.502 222.15 119.655 220.97C118.809 219.79 118.194 218.488 117.812 217.063C117.438 218.577 116.831 219.965 115.993 221.226C115.155 222.487 114.191 223.452 113.1 224.119L112.319 223.216C113.238 222.687 114.073 221.934 114.821 220.958C115.57 219.981 116.16 218.89 116.591 217.686C117.023 216.482 117.242 215.281 117.25 214.085V212.693H112.709V211.692H117.25V208.25H118.374V211.692H122.866V212.693H118.349V214.085ZM130.532 228.831H129.384V217.405H125.771V227.659H124.648V207.981H125.771V216.355H129.384V207.444H130.532V228.831ZM153.505 219.603H133.95V218.602H143.154V216.038H136.562V211.473H149.746V208.958H136.464V207.981H150.893V212.425H137.685V215.062H151.381V216.038H144.277V218.602H153.505V219.603ZM137.832 223.46H149.721V220.872H150.869V228.489H136.684V220.872H137.832V223.46ZM149.721 227.513V224.437H137.832V227.513H149.721ZM173.72 228.831H172.597V207.444H173.72V228.831ZM169.277 227.635H168.129V217.552H162.905C162.221 218.838 161.342 220.034 160.268 221.141C159.202 222.239 157.949 223.224 156.508 224.095L155.776 223.216C157.371 222.272 158.734 221.169 159.865 219.908C160.996 218.638 161.871 217.275 162.49 215.818C163.108 214.362 163.466 212.856 163.564 211.302H156.533V210.276H164.711C164.711 212.482 164.272 214.573 163.393 216.551H168.129V208.079H169.277V227.635ZM202.895 219.896H194.228V229.246H191.079V219.896H182.631V217.356H187.587C187.929 216.111 188.161 214.968 188.283 213.926C188.413 212.885 188.487 211.863 188.503 210.862H184.243V208.372H191.591V209.739C191.591 211.033 191.542 212.254 191.445 213.401C191.355 214.541 191.127 215.859 190.761 217.356H196.889C197.15 216.128 197.329 215 197.426 213.975C197.524 212.95 197.581 211.912 197.597 210.862H193.129V208.372H200.673V209.91C200.673 211.204 200.637 212.413 200.563 213.536C200.49 214.651 200.311 215.924 200.026 217.356H202.895V219.896ZM215.712 212.059H219.912V207.029H222.988V229.295H219.912V220.555H215.712V223.826H205.068V209.007H215.712V212.059ZM208.168 221.409H212.661V211.424H208.168V221.409ZM219.912 218.089V214.573H215.712V218.089H219.912ZM251.601 225.926H232.021V224.9H241.152V219.871H234.487V209.056H235.634V213.255H247.915V209.056H249.062V219.871H242.324V224.9H251.601V225.926ZM247.915 218.846V214.28H235.634V218.846H247.915ZM259.633 213.963C259.633 215.07 259.849 216.197 260.28 217.344C260.712 218.484 261.302 219.521 262.05 220.457C262.799 221.393 263.629 222.117 264.541 222.63L263.808 223.509C262.734 222.874 261.778 221.967 260.939 220.787C260.109 219.607 259.503 218.313 259.121 216.905C258.738 218.427 258.116 219.818 257.253 221.08C256.39 222.333 255.402 223.297 254.287 223.973L253.481 223.094C254.409 222.565 255.259 221.82 256.032 220.86C256.805 219.9 257.416 218.821 257.863 217.625C258.311 216.421 258.535 215.216 258.535 214.012V209.568H259.633V213.963ZM271.816 228.831H270.668V207.444H271.816V228.831ZM267.397 227.659H266.298V216.453H262.124V215.403H266.298V207.981H267.397V227.659ZM294.814 225.901H275.234V224.876H280.385V218.748C279.409 218.292 278.648 217.686 278.103 216.929C277.557 216.172 277.285 215.314 277.285 214.354C277.285 213.287 277.61 212.352 278.261 211.546C278.912 210.732 279.816 210.105 280.971 209.666C282.135 209.227 283.461 209.007 284.951 209.007C286.448 209.007 287.775 209.227 288.93 209.666C290.094 210.105 290.997 210.732 291.64 211.546C292.291 212.352 292.617 213.287 292.617 214.354C292.617 215.306 292.352 216.156 291.823 216.905C291.302 217.645 290.566 218.248 289.614 218.711V224.876H294.814V225.901ZM284.951 209.983C283.706 209.983 282.578 210.171 281.569 210.545C280.568 210.911 279.783 211.428 279.213 212.095C278.644 212.763 278.359 213.515 278.359 214.354C278.359 215.184 278.644 215.932 279.213 216.6C279.783 217.259 280.568 217.776 281.569 218.15C282.578 218.516 283.706 218.699 284.951 218.699C286.196 218.699 287.319 218.516 288.32 218.15C289.329 217.776 290.118 217.259 290.688 216.6C291.258 215.932 291.542 215.184 291.542 214.354C291.542 213.515 291.258 212.763 290.688 212.095C290.118 211.428 289.329 210.911 288.32 210.545C287.319 210.171 286.196 209.983 284.951 209.983ZM288.442 224.876V219.163C287.392 219.489 286.228 219.651 284.951 219.651C283.706 219.651 282.558 219.493 281.508 219.175V224.876H288.442ZM299.453 221.873H298.232L298.159 209.324H299.526L299.453 221.873ZM298.842 227.122C298.557 227.122 298.313 227.02 298.11 226.817C297.915 226.613 297.817 226.365 297.817 226.072C297.817 225.787 297.919 225.547 298.122 225.352C298.326 225.149 298.566 225.047 298.842 225.047C299.135 225.047 299.383 225.149 299.587 225.352C299.79 225.547 299.892 225.787 299.892 226.072C299.892 226.365 299.79 226.613 299.587 226.817C299.383 227.02 299.135 227.122 298.842 227.122Z" fill="black"/>
</svg>
