<svg width="50" height="51" viewBox="0 0 50 51" fill="none" xmlns="http://www.w3.org/2000/svg">
<g filter="url(#filter0_d_186_3127)">
<path d="M35.8905 18.3682H35.8957L40.229 18.3683L40.2354 18.3682C41.8322 18.3581 43.2519 19.3825 43.7457 20.9011C44.2394 22.4197 43.6935 24.0832 42.3961 25.014L42.392 25.017L38.8295 27.6004L38.829 27.6007C36.8393 29.0452 36.0031 31.6048 36.7563 33.9454L36.7562 33.9454L36.7586 33.9525L38.1336 38.1191L38.1366 38.1282L38.1397 38.1372C38.6741 39.6581 38.1524 41.3496 36.8542 42.3054C35.5561 43.2611 33.786 43.2569 32.4924 42.295L28.9926 39.691L28.9927 39.6909L28.9824 39.6834C26.9916 38.2413 24.2997 38.2413 22.309 39.6834L22.309 39.6833L22.2987 39.691L18.8051 42.2905C18.804 42.2912 18.8029 42.292 18.8019 42.2928C17.5158 43.232 15.7703 43.2337 14.4823 42.2966C13.1933 41.3588 12.6579 39.6955 13.1577 38.1818L13.1578 38.1816L14.5328 34.015L14.5328 34.015L14.5351 34.0079C15.2883 31.6673 14.4521 29.1077 12.4623 27.6632L12.4592 27.6609L8.81332 25.0359L8.81335 25.0358L8.80502 25.03C7.48125 24.0972 6.92614 22.4065 7.43937 20.8706C7.9526 19.3347 9.41261 18.3173 11.0312 18.3678L11.0468 18.3682H11.0624L15.3957 18.3682L15.3979 18.3682C17.8428 18.3628 20.0106 16.7954 20.7821 14.4755L20.7828 14.4733L22.1578 10.3066L22.1578 10.3066L22.1605 10.2983C22.6448 8.7861 24.0474 7.7575 25.6352 7.75004C27.2231 7.74259 28.6352 8.75797 29.1337 10.2655L30.5064 14.4249C30.5067 14.426 30.5071 14.4272 30.5075 14.4283C31.2623 16.7664 33.4334 18.3556 35.8905 18.3682Z" fill="#EAEAEA" stroke="#FFE15A" stroke-width="2"/>
</g>
<defs>
<filter id="filter0_d_186_3127" x="-3" y="-2.5" width="56" height="56" filterUnits="userSpaceOnUse" color-interpolation-filters="sRGB">
<feFlood flood-opacity="0" result="BackgroundImageFix"/>
<feColorMatrix in="SourceAlpha" type="matrix" values="0 0 0 0 0 0 0 0 0 0 0 0 0 0 0 0 0 0 127 0" result="hardAlpha"/>
<feOffset/>
<feGaussianBlur stdDeviation="1.5"/>
<feComposite in2="hardAlpha" operator="out"/>
<feColorMatrix type="matrix" values="0 0 0 0 0 0 0 0 0 0 0 0 0 0 0 0 0 0 0.75 0"/>
<feBlend mode="normal" in2="BackgroundImageFix" result="effect1_dropShadow_186_3127"/>
<feBlend mode="normal" in="SourceGraphic" in2="effect1_dropShadow_186_3127" result="shape"/>
</filter>
</defs>
</svg>
