<svg width="300" height="75" viewBox="0 0 300 75" fill="none" xmlns="http://www.w3.org/2000/svg">
<path fill-rule="evenodd" clip-rule="evenodd" d="M64.0482 68.0919C80.9437 68.0919 94.6403 54.3954 94.6403 37.4998C94.6403 20.6043 80.9437 6.90771 64.0482 6.90771C47.1526 6.90771 33.4561 20.6043 33.4561 37.4998C33.4561 43.8629 35.3988 49.7723 38.7234 54.6672L35.3639 67.9743L49.4843 64.4095C53.8147 66.7581 58.7757 68.0919 64.0482 68.0919Z" fill="white"/>
<path d="M44.8996 48.4003C42.2042 44.643 43.6463 43.7037 45.2459 43.1932C45.2459 43.1932 48.2068 44.5205 49.1257 44.2142C50.0446 43.9079 51.1677 42.5806 51.1677 42.5806L54.2929 42.8869C61.8076 46.8075 56.7434 49.081 53.2719 49.7276L44.8996 48.4003Z" fill="#00A8B3"/>
<path fill-rule="evenodd" clip-rule="evenodd" d="M94.8065 33.2345L25.7967 16.5869C25.5043 16.5164 25.2073 16.4711 24.9068 16.4601C20.523 16.3003 11.9769 17.1826 9.53158 21.9944C7.12604 26.7279 13.4379 32.1433 17.4015 34.5988C17.8005 34.846 18.2371 35.0187 18.6927 35.1319L29.9936 37.9408C32.9743 38.6817 35.7682 36.2642 37.9373 34.0896C38.4002 33.6255 38.8832 33.2729 39.3353 33.0159C40.0983 32.5822 41.0123 32.6451 41.852 32.9003L49.0276 35.0811C50.2818 35.4623 51.6356 35.3357 52.7973 34.7286L65.2721 28.2095C66.2299 27.709 67.3772 27.7333 68.3129 28.2739C69.9554 29.2229 70.3957 31.396 69.2522 32.9094L65.5569 37.8002C63.3942 40.6626 64.8622 44.7954 68.36 45.5929C72.4759 46.5312 77.0073 47.4972 79.8792 47.928C86.0052 48.8469 103.056 47.7238 111.735 45.1713C112.955 44.8123 114.093 44.3828 115.146 43.9083C119.14 42.1081 117.108 38.1245 112.791 38.8703L102.562 40.637C102.127 40.7122 101.729 40.3771 101.729 39.9353C101.729 39.5959 101.968 39.3036 102.301 39.2371L111.38 37.4213C113.007 37.096 114.366 35.9852 115.009 34.456L118.498 26.1555C119.673 23.3611 118.111 20.1725 115.183 19.3881L112.702 18.7236C110.654 18.1751 108.483 18.9776 107.284 20.7262L100.103 31.201C98.9302 32.9118 96.8229 33.7209 94.8065 33.2345ZM71.303 34.8766C71.5235 33.9437 72.4585 33.3661 73.3914 33.5866C74.3243 33.8071 74.9019 34.7421 74.6814 35.675L74.4466 36.6686C74.2261 37.6016 73.2911 38.1791 72.3582 37.9586C71.4253 37.7381 70.8477 36.8031 71.0682 35.8702L71.303 34.8766ZM78.7007 35.016C77.7678 34.7956 76.8328 35.3731 76.6123 36.306L76.3775 37.2996C76.157 38.2326 76.7345 39.1676 77.6674 39.388C78.6004 39.6085 79.5354 39.031 79.7558 38.0981L79.9907 37.1044C80.2112 36.1715 79.6336 35.2365 78.7007 35.016ZM87.2308 38.9605C87.4512 38.0276 88.3862 37.4501 89.3192 37.6705C90.2521 37.891 90.8296 38.826 90.6091 39.7589L90.3743 40.7526C90.1538 41.6855 89.2188 42.263 88.2859 42.0425C87.353 41.8221 86.7755 40.8871 86.9959 39.9542L87.2308 38.9605ZM84.0098 36.2413C83.0769 36.0208 82.1419 36.5984 81.9215 37.5313L81.6866 38.5249C81.4661 39.4578 82.0437 40.3928 82.9766 40.6133C83.9095 40.8338 84.8445 40.2563 85.065 39.3233L85.2998 38.3297C85.5203 37.3968 84.9428 36.4618 84.0098 36.2413Z" fill="#00A8B3"/>
<path d="M48.4623 36.5384L42.3471 34.6445C41.428 34.3599 40.4163 34.2918 39.5732 34.7554C38.7992 35.181 38.2593 35.7257 37.9012 36.3212C36.426 38.7743 39.3822 41.0389 42.159 41.7343L46.8123 42.8996C48.0866 43.2187 49.5767 43.1201 50.298 42.0221C51.1236 40.7653 50.984 39.3074 50.5573 38.21C50.2157 37.3314 49.3628 36.8173 48.4623 36.5384Z" fill="#00A8B3"/>
<path d="M159.337 63.0942L159.529 58.2602H165.956V69.4999H139V64.6183L142.621 63.8563V40.4958L139 39.7337V34.8283H155.452V39.7337L151.039 40.4958V63.0942H159.337Z" fill="white"/>
<path d="M179.65 40.4958V63.8563L183.271 64.6183V69.4999H167.635V64.6183L171.256 63.8563V40.4958L167.635 39.7337V34.8283H183.271V39.7337L179.65 40.4958Z" fill="white"/>
<path d="M196.222 47.7825V63.8563L200.826 64.6183V69.4999H185.166V64.6183L188.763 63.8563V40.4958L185.166 39.7337V34.8283H197.325L211.331 57.0219H211.475V40.4958L206.894 39.7337V34.8283H222.554V39.7337L218.933 40.4958V69.4999H210.635L196.366 47.7825H196.222Z" fill="white"/>
<path d="M240.397 70C236.768 70 233.714 69.3015 231.236 67.9045C228.726 66.5074 226.815 64.5707 225.504 62.0941C224.193 59.6017 223.538 56.7203 223.538 53.45V51.8783C223.538 48.4334 224.185 45.3933 225.48 42.758C226.775 40.1227 228.654 38.0589 231.116 36.5666C233.578 35.0744 236.552 34.3282 240.038 34.3282C242.42 34.3282 244.81 34.6933 247.208 35.4236C249.606 36.138 251.717 37.2731 253.54 38.8289V46.9491H247.544L246.273 42.5437C245.729 41.988 244.954 41.5277 243.947 41.1625C242.955 40.7974 241.836 40.6148 240.589 40.6148C238.687 40.6148 237.08 41.0831 235.769 42.0198C234.474 42.9723 233.498 44.29 232.843 45.9727C232.203 47.6555 231.884 49.6082 231.884 51.8307V53.45C231.884 55.5614 232.227 57.3791 232.915 58.9032C233.586 60.4431 234.578 61.6337 235.889 62.4751C237.2 63.3165 238.814 63.7372 240.733 63.7372C241.74 63.7372 242.74 63.634 243.731 63.4276C244.722 63.2212 245.498 62.9911 246.057 62.7371V58.2602L242.124 57.784V52.0212H254.499V66.4042C252.612 67.6108 250.478 68.5157 248.096 69.1189C245.729 69.7063 243.163 70 240.397 70Z" fill="white"/>
<path d="M274.284 70C271.87 70 269.648 69.5634 267.617 68.6903C265.603 67.8013 263.852 66.563 262.365 64.9755C260.878 63.3879 259.727 61.5305 258.912 59.4032C258.112 57.2601 257.713 54.9343 257.713 52.426V51.8783C257.713 49.3859 258.112 47.0761 258.912 44.9488C259.727 42.8215 260.878 40.9641 262.365 39.3766C263.836 37.789 265.579 36.5508 267.593 35.6617C269.608 34.7727 271.822 34.3282 274.236 34.3282C276.603 34.3282 278.801 34.7727 280.831 35.6617C282.862 36.5508 284.645 37.789 286.18 39.3766C287.698 40.9641 288.882 42.8215 289.729 44.9488C290.576 47.0761 291 49.3859 291 51.8783V52.426C291 54.9343 290.576 57.2601 289.729 59.4032C288.882 61.5305 287.698 63.3879 286.18 64.9755C284.661 66.563 282.886 67.8013 280.855 68.6903C278.825 69.5634 276.635 70 274.284 70ZM274.284 63.6658C276.027 63.6658 277.53 63.1974 278.793 62.2608C281.351 60.324 282.63 57.0458 282.63 52.426V51.8307C282.63 49.6558 282.302 47.7111 281.647 45.9966C280.975 44.3297 280.016 43.0279 278.769 42.0912C277.522 41.1546 276.011 40.6863 274.236 40.6863C272.35 40.6863 270.823 41.1466 269.656 42.0674C268.457 42.9882 267.569 44.282 266.994 45.9489C266.418 47.6158 266.13 49.5764 266.13 51.8307V52.426C266.13 54.6962 266.426 56.6648 267.018 58.3317C267.593 60.0144 268.481 61.3242 269.68 62.2608C270.895 63.1974 272.43 63.6658 274.284 63.6658Z" fill="white"/>
<path d="M154.689 23.7313L153.307 19.9021H144.918L143.494 23.7313L145.077 24.0027V25.803H139.076V24.0027L140.63 23.7884L147.955 5H150.386L157.581 23.7884L159.121 24.0027V25.803H153.106V24.0027L154.689 23.7313ZM145.796 17.5447H152.444L149.365 9.0863L149.192 8.6148H149.106L148.933 9.0863L145.796 17.5447Z" fill="#00A8B3"/>
<path d="M168.834 5V6.81455L166.488 7.2146V23.6027L168.834 24.0027V25.803H161.308V24.0027L163.653 23.6027V7.2146L161.308 6.81455V5H168.834Z" fill="#00A8B3"/>
<path d="M183.511 16.1016L187.051 23.7027L188.504 23.9599V25.803H185.007L180.806 16.4302L176.359 16.5159V23.6027L178.705 24.0027V25.803H171.179V24.0027L173.525 23.6027V7.2146L171.179 6.81455V5.01429H180.518C182.034 5.01429 183.324 5.23813 184.389 5.68581C186.528 6.61928 187.597 8.32429 187.597 10.8008C187.597 12.0296 187.334 13.0535 186.806 13.8727C186.106 14.9681 185.007 15.7111 183.511 16.1016ZM176.359 7.2146V14.3013H180.23C181.813 14.3013 182.964 14.0013 183.683 13.4012C184.403 12.8011 184.763 11.9248 184.763 10.7723C184.763 9.67686 184.417 8.81007 183.727 8.17188C183.036 7.5337 181.966 7.2146 180.518 7.2146H176.359Z" fill="#00A8B3"/>
</svg>
