<svg width="30" height="30" viewBox="0 0 30 30" fill="none" xmlns="http://www.w3.org/2000/svg">
<path d="M15.7742 8.03226C15.7742 7.39089 15.2543 6.87097 14.6129 6.87097C13.9715 6.87097 13.4516 7.39089 13.4516 8.03226C13.4516 8.12388 13.3773 8.19816 13.2857 8.19816H8.03226C7.39089 8.19816 6.87097 8.71808 6.87097 9.35945C6.87097 10.0008 7.39089 10.5207 8.03226 10.5207H16.0315C15.8987 12.0689 15.4994 14.0022 14.6769 15.7805C14.0064 14.7061 13.8 13.8063 13.8 13.341C13.8 12.6996 13.2801 12.1797 12.6387 12.1797C11.9973 12.1797 11.4774 12.6996 11.4774 13.341C11.4774 14.5097 11.9937 16.202 13.3654 17.9504C12.2173 19.4067 10.647 20.489 8.51229 20.8202C7.87851 20.9185 7.44444 21.512 7.54276 22.1458C7.64108 22.7796 8.23457 23.2136 8.86835 23.1153C11.5649 22.697 13.5476 21.3542 14.9761 19.6484C16.3756 20.8876 18.267 22.0783 20.7736 23.0504C21.3716 23.2824 22.0443 22.9856 22.2763 22.3877C22.5082 21.7897 22.2114 21.117 21.6135 20.885C19.1821 19.942 17.4783 18.8166 16.2973 17.7155C16.3927 17.5441 16.4841 17.3714 16.5715 17.1977C17.7097 14.9365 18.2174 12.4533 18.3614 10.5207H21.1935C21.8349 10.5207 22.3548 10.0008 22.3548 9.35945C22.3548 8.71808 21.8349 8.19816 21.1935 8.19816H15.7688C15.7724 8.14332 15.7742 8.088 15.7742 8.03226Z" fill="black"/>
<path fill-rule="evenodd" clip-rule="evenodd" d="M8.03226 3C5.25302 3 3 5.25302 3 8.03226V21.9677C3 24.747 5.25302 27 8.03226 27H21.9677C24.747 27 27 24.747 27 21.9677V8.03226C27 5.25302 24.747 3 21.9677 3H8.03226ZM5.32258 8.03226C5.32258 6.53574 6.53574 5.32258 8.03226 5.32258H21.9677C23.4643 5.32258 24.6774 6.53574 24.6774 8.03226V21.9677C24.6774 23.4643 23.4643 24.6774 21.9677 24.6774H8.03226C6.53574 24.6774 5.32258 23.4643 5.32258 21.9677V8.03226Z" fill="black"/>
</svg>
