<svg width="25" height="25" viewBox="0 0 25 25" fill="none" xmlns="http://www.w3.org/2000/svg">
<path d="M14.8126 6.69791H9.37514L9.76055 6.31249C10.155 5.90685 10.3031 5.32156 10.1491 4.77711C9.99502 4.23266 9.5622 3.81175 9.01366 3.67294C8.46512 3.53414 7.8842 3.69852 7.48972 4.10416L4.44805 7.15624C4.30098 7.30209 4.18416 7.47555 4.1043 7.66666C3.96588 8.03248 3.96588 8.43626 4.1043 8.80208C4.17981 9.01393 4.29666 9.20867 4.44805 9.37499L7.48972 12.4271C7.88511 12.8372 8.47137 13.0015 9.02233 12.8566C9.57329 12.7117 10.0028 12.2801 10.1452 11.7285C10.2875 11.1769 10.1205 10.5914 9.70847 10.1979L9.37514 9.82291H14.8647C16.5906 9.82291 17.9897 11.222 17.9897 12.9479V15.2083C18.0023 16.8544 16.7074 18.2139 15.0626 18.2812H6.7293C5.86636 18.2812 5.1668 18.9808 5.1668 19.8437C5.1668 20.7067 5.86636 21.4062 6.7293 21.4062H15.0626C18.4129 21.3102 21.0753 18.5599 21.0626 15.2083V12.8958C21.034 9.4644 18.2442 6.69779 14.8126 6.69791Z" fill="black"/>
</svg>
