<svg width="51" height="50" viewBox="0 0 51 50" fill="none" xmlns="http://www.w3.org/2000/svg">
<path fill-rule="evenodd" clip-rule="evenodd" d="M5.78571 13C4.95728 13 4.28571 13.6716 4.28571 14.5V35.5C4.28571 36.3284 4.95728 37 5.78571 37H32.7857C33.6141 37 34.2857 36.3284 34.2857 35.5V14.5C34.2857 13.6716 33.6141 13 32.7857 13H5.78571ZM1.28571 14.5C1.28571 12.0147 3.30042 10 5.78571 10H32.7857C35.271 10 37.2857 12.0147 37.2857 14.5V35.5C37.2857 37.9853 35.271 40 32.7857 40H5.78571C3.30042 40 1.28571 37.9853 1.28571 35.5V14.5Z" fill="black"/>
<path fill-rule="evenodd" clip-rule="evenodd" d="M45.2957 18.4455L37.2857 21.5294V26.9697L45.2957 30.0536C45.4216 30.0931 45.5892 30.0864 45.8075 29.8761C46.0499 29.6426 46.2857 29.1905 46.2857 28.5695V19.9295C46.2857 19.3086 46.0499 18.8564 45.8075 18.6229C45.5892 18.4126 45.4216 18.4059 45.2957 18.4455ZM47.8889 16.4624C48.7715 17.3126 49.2857 18.5705 49.2857 19.9295V28.5695C49.2857 29.9286 48.7715 31.1864 47.8889 32.0367C46.9907 32.9019 45.6628 33.3607 44.2902 32.8803L44.2684 32.8727L34.2857 29.0294V19.4697L44.2684 15.6264L44.2902 15.6187C45.6628 15.1383 46.9907 15.5971 47.8889 16.4624Z" fill="black"/>
<path fill-rule="evenodd" clip-rule="evenodd" d="M16.2857 20.5C16.2857 19.6716 16.9573 19 17.7857 19H26.7857C27.6141 19 28.2857 19.6716 28.2857 20.5C28.2857 21.3284 27.6141 22 26.7857 22H17.7857C16.9573 22 16.2857 21.3284 16.2857 20.5Z" fill="black"/>
</svg>
