<svg width="51" height="50" viewBox="0 0 51 50" fill="none" xmlns="http://www.w3.org/2000/svg">
<path fill-rule="evenodd" clip-rule="evenodd" d="M25.7108 28.675C25.1221 29.0753 24.4522 29.2947 23.8225 29.4143C22.98 29.5744 22.0755 29.5818 21.2237 29.5177C19.5846 29.3943 17.9257 28.9886 16.8358 28.6357C15.1584 28.3844 14.0212 28.511 13.2663 28.7762C12.5253 29.0366 12.0918 29.4497 11.8186 29.9168C11.216 30.947 11.2605 32.5085 11.6253 33.7488C11.8591 34.5435 11.4043 35.3773 10.6095 35.611C9.81476 35.8448 8.98098 35.39 8.74722 34.5953C8.27868 33.0022 8.02321 30.4637 9.22899 28.4022C9.85993 27.3235 10.8576 26.4428 12.2718 25.9459C13.6548 25.4599 15.3616 25.3653 17.4202 25.6904L17.5428 25.7097L17.6606 25.749C18.5752 26.0538 20.0514 26.421 21.4488 26.5261C21.9745 26.5657 22.456 26.5655 22.8732 26.5229L24.3363 19.6881C24.5577 18.7009 25.0565 17.7974 25.7738 17.0839L39.6697 3.31308C41.0788 1.87762 42.992 1.04805 45.003 1.00058C46.5197 0.978853 47.9822 1.56386 49.0655 2.62558C51.4326 5.42239 51.127 9.59896 48.378 12.0214L34.4822 25.9173C33.7687 26.6346 32.8652 27.1333 31.878 27.3548L25.7108 28.675ZM27.3988 20.3548C27.4875 19.9581 27.6903 19.596 27.9822 19.3131L41.878 5.39642C42.6957 4.53558 43.8167 4.02739 45.003 3.97975C45.6911 3.95719 46.3594 4.21248 46.8572 4.68809C47.994 6.27241 47.6919 8.46938 46.1697 9.68808L32.2738 23.5839C31.991 23.8758 31.6289 24.0786 31.2322 24.1673L26.378 25.2089L27.3988 20.3548Z" fill="black"/>
<path d="M37.4405 27.8329C37.4517 26.9746 38.1448 26.2816 39.003 26.2704C39.8613 26.2816 40.5543 26.9746 40.5655 27.8329V39.687C40.5655 44.9141 36.3342 49.1547 31.1072 49.1662H11.3363C6.10115 49.1662 1.85718 44.9222 1.85718 39.687V19.9162C1.91426 14.7217 6.14156 10.5409 11.3363 10.5412H23.2947C24.1576 10.5412 24.8572 11.2408 24.8572 12.1037C24.8572 12.9667 24.1576 13.6662 23.2947 13.6662H11.4405C7.97148 13.6657 5.14321 16.4477 5.08634 19.9162V39.687C5.097 43.1515 7.87253 45.9733 11.3363 46.0412H31.1905C32.8663 46.0414 34.472 45.3687 35.6472 44.174C36.8223 42.9792 37.4684 41.3626 37.4405 39.687V27.8329Z" fill="black"/>
</svg>
