<svg width="50" height="50" viewBox="0 0 50 50" fill="none" xmlns="http://www.w3.org/2000/svg">
<path d="M6 14.9857H43.5M17.2556 14.9856V13.488C17.2556 11.5021 18.0445 9.59747 19.4488 8.19319C20.8531 6.78891 22.7577 6 24.7436 6C26.7296 6 28.6342 6.78891 30.0384 8.19319C31.4427 9.59747 32.2316 11.5021 32.2316 13.488V14.9856M20.2508 23.006V35.4197M29.2365 23.006V35.4197M11.2652 14.9856H38.2221L38.415 18.4736C38.7846 25.1564 38.4705 31.8594 37.4777 38.4784C37.0448 41.3647 34.5653 43.5 31.6466 43.5H17.8406C14.922 43.5 12.4425 41.3647 12.0095 38.4784C11.0167 31.8594 10.7026 25.1564 11.0723 18.4736L11.2652 14.9856Z" stroke="#D10000" stroke-width="3" stroke-linecap="round" stroke-linejoin="round"/>
</svg>
