<svg width="30" height="30" viewBox="0 0 30 30" fill="none" xmlns="http://www.w3.org/2000/svg">
<path fill-rule="evenodd" clip-rule="evenodd" d="M25.325 18.5375V8.4375C25.325 5.84867 23.2263 3.75 20.6375 3.75H9.6875C7.09867 3.75 5 5.84867 5 8.4375V21.6125C5 23.8285 6.79646 25.625 9.0125 25.625H24.3875C24.9053 25.625 25.325 25.2053 25.325 24.6875C25.325 24.1697 24.9053 23.75 24.3875 23.75H9.0125C7.83199 23.75 6.875 22.793 6.875 21.6125C6.875 20.432 7.83199 19.475 9.0125 19.475H24.3875C24.9053 19.475 25.325 19.0553 25.325 18.5375ZM6.875 18.225V8.4375C6.875 6.8842 8.1342 5.625 9.6875 5.625H20.6375C22.1908 5.625 23.45 6.8842 23.45 8.4375V17.6H9.0125C8.2552 17.6018 7.51397 17.8185 6.875 18.225Z" fill="black"/>
<path d="M8.075 21.6125C8.075 21.0947 8.49473 20.675 9.0125 20.675H22.85C23.3678 20.675 23.7875 21.0947 23.7875 21.6125C23.7875 22.1303 23.3678 22.55 22.85 22.55H9.0125C8.49473 22.55 8.075 22.1303 8.075 21.6125Z" fill="black"/>
</svg>
