<svg width="30" height="30" viewBox="0 0 30 30" fill="none" xmlns="http://www.w3.org/2000/svg">
<g clip-path="url(#clip0_759_1219)">
<path d="M29.4836 24.8275H0.518173C0.232529 24.8275 0.000907898 24.5959 0.000907898 24.3103V5.68963C0.000907898 5.40398 0.232529 5.17236 0.518173 5.17236H29.4836C29.7693 5.17236 30.0009 5.40398 30.0009 5.68963V24.3103C30.0008 24.596 29.7692 24.8275 29.4836 24.8275Z" fill="#F5F5F5"/>
<path d="M17.8723 10.6953C15.4955 9.11087 12.2854 9.75862 10.7019 12.1312C9.9077 13.3154 10.2306 14.9246 11.4188 15.7168C12.6062 16.5091 14.2102 16.1873 15.0025 14.9989C15.7947 13.8106 17.3998 13.4929 18.5871 14.2809C19.7765 15.0732 20.0963 16.6823 19.303 17.8666C20.8874 15.49 20.247 12.2798 17.8723 10.6953Z" fill="#FF4B55"/>
<path d="M10.702 12.1313C9.90778 13.3156 10.2306 14.9247 11.4189 15.717C12.6063 16.5092 14.2103 16.1875 15.0026 14.9991C15.7948 13.8108 17.3999 13.493 18.5872 14.2811C19.7765 15.0733 20.0964 16.6825 19.303 17.8667C17.7207 20.2475 14.5115 20.8872 12.1348 19.3027C9.76024 17.7183 9.11758 14.5081 10.702 12.1313Z" fill="#41479B"/>
<path d="M20.5047 8.74186L21.4442 10.1541C21.5231 10.2727 21.4912 10.4329 21.3728 10.5122L21.1346 10.6718C21.0157 10.7513 20.8548 10.7193 20.7754 10.6003L19.8347 9.1884C19.7556 9.06963 19.7877 8.90914 19.9064 8.82987L20.1458 8.67002C20.2647 8.59063 20.4255 8.6228 20.5047 8.74186Z" fill="#464655"/>
<path d="M21.9546 10.9192L22.8972 12.3306C22.9768 12.4497 22.9443 12.611 22.8247 12.69L22.5854 12.8481C22.4667 12.9266 22.3069 12.8943 22.2278 12.776L21.2858 11.3662C21.2064 11.2475 21.2383 11.0868 21.3571 11.0075L21.5958 10.8478C21.7146 10.7684 21.8752 10.8004 21.9546 10.9192Z" fill="#464655"/>
<path d="M21.5108 8.0703L23.9031 11.6605C23.9823 11.7793 23.9501 11.9399 23.8313 12.0191L23.591 12.1793C23.4721 12.2586 23.3115 12.2264 23.2323 12.1076L20.8392 8.5176C20.7599 8.39872 20.7921 8.23805 20.9111 8.15889L21.1522 7.9984C21.2711 7.91936 21.4316 7.95147 21.5108 8.0703Z" fill="#464655"/>
<path d="M22.5142 7.40009L23.4558 8.81507C23.5351 8.93425 23.5025 9.09515 23.383 9.17407L23.1436 9.33228C23.0248 9.41079 22.8649 9.37851 22.7859 9.25997L21.8436 7.84687C21.7643 7.72804 21.7965 7.56744 21.9153 7.48822L22.1555 7.32814C22.2743 7.24886 22.4349 7.28103 22.5142 7.40009Z" fill="#464655"/>
<path d="M23.9648 9.58214L24.9049 10.9942C24.984 11.1129 24.9519 11.2732 24.8334 11.3525L24.5946 11.5121C24.4758 11.5916 24.3149 11.5595 24.2356 11.4404L23.2955 10.0284C23.2165 9.90967 23.2485 9.74936 23.367 9.67009L23.6058 9.51048C23.7246 9.43097 23.8855 9.46302 23.9648 9.58214Z" fill="#464655"/>
<path d="M7.77829 17.2257L10.1703 20.8121C10.2495 20.9309 10.2175 21.0914 10.0987 21.1707L9.85919 21.3306C9.74036 21.41 9.57975 21.3779 9.50042 21.259L7.10839 17.6727C7.02917 17.5539 7.06116 17.3934 7.17999 17.3141L7.41952 17.1541C7.53835 17.0748 7.69901 17.1069 7.77829 17.2257Z" fill="#464655"/>
<path d="M6.7743 17.8964L7.71344 19.3051C7.7926 19.4238 7.76067 19.584 7.64213 19.6634L7.40389 19.8229C7.28512 19.9024 7.12434 19.8705 7.04494 19.7516L6.10469 18.3433C6.02536 18.2246 6.05735 18.0639 6.17618 17.9846L6.41559 17.8248C6.53436 17.7455 6.69502 17.7775 6.7743 17.8964Z" fill="#464655"/>
<path d="M8.22545 20.0746L9.16565 21.4868C9.24475 21.6055 9.2127 21.7659 9.09405 21.8451L8.8551 22.0048C8.73621 22.0843 8.57549 22.0522 8.49616 21.9333L7.55538 20.5213C7.47622 20.4026 7.50833 20.2421 7.62698 20.1628L7.86651 20.0028C7.98546 19.9234 8.14618 19.9555 8.22545 20.0746Z" fill="#464655"/>
<path d="M5.76994 18.5671L8.16045 22.1536C8.23961 22.2723 8.20756 22.4327 8.08902 22.5121L7.85013 22.6718C7.73131 22.7513 7.57058 22.7193 7.49125 22.6003L5.09934 19.0143C5.02006 18.8954 5.05223 18.7348 5.17106 18.6556L5.41141 18.4954C5.53012 18.4161 5.69072 18.4483 5.76994 18.5671Z" fill="#464655"/>
<path d="M7.10894 12.3307L9.50061 8.74148C9.57989 8.62253 9.74055 8.59042 9.85944 8.66976L10.0989 8.82966C10.2177 8.90894 10.2497 9.06949 10.1705 9.18825L7.7779 12.7755C7.6988 12.8941 7.53878 12.9263 7.42001 12.8477L7.18147 12.6898C7.06206 12.6108 7.0296 12.4498 7.10894 12.3307Z" fill="#464655"/>
<path d="M6.10424 11.6608L8.49632 8.0708C8.5756 7.95185 8.73638 7.91974 8.85527 7.99919L9.09415 8.15892C9.21275 8.2382 9.24474 8.39851 9.16564 8.51728L6.7742 12.1074C6.69492 12.2264 6.53425 12.2585 6.41537 12.1791L6.17584 12.0192C6.05713 11.94 6.02508 11.7795 6.10424 11.6608Z" fill="#464655"/>
<path d="M5.09887 10.994L7.49119 7.40048C7.57047 7.28148 7.73131 7.24931 7.85019 7.32876L8.08908 7.48849C8.20767 7.56777 8.23967 7.72796 8.16068 7.84673L5.76983 11.4408C5.69067 11.5598 5.52994 11.592 5.41106 11.5128L5.17071 11.3526C5.05194 11.2733 5.01983 11.1129 5.09887 10.994Z" fill="#464655"/>
<path d="M19.8352 20.8119L20.7754 19.4036C20.8548 19.2847 21.0156 19.2528 21.1344 19.3323L21.3726 19.4919C21.4912 19.5712 21.523 19.7315 21.4439 19.8502L20.5048 21.2588C20.4255 21.3777 20.2649 21.4098 20.146 21.3305L19.9066 21.1706C19.7879 21.0913 19.7559 20.9307 19.8352 20.8119Z" fill="#464655"/>
<path d="M21.2855 18.6412L22.2272 17.2259C22.3065 17.107 22.4671 17.0748 22.586 17.1541L22.826 17.314C22.9449 17.3933 22.977 17.554 22.8977 17.6728L21.9539 19.0859C21.8747 19.2044 21.7147 19.2365 21.596 19.1578L21.3579 19C21.2387 18.921 21.2063 18.7602 21.2855 18.6412Z" fill="#464655"/>
<path d="M20.8391 21.4862L21.78 20.0742C21.8592 19.9554 22.0198 19.9232 22.1387 20.0025L22.3792 20.1628C22.4979 20.2421 22.53 20.4025 22.4509 20.5214L21.5107 21.9335C21.4315 22.0524 21.271 22.0846 21.1521 22.0054L20.911 21.8449C20.7921 21.7658 20.7599 21.6051 20.8391 21.4862Z" fill="#464655"/>
<path d="M22.2911 19.3047L23.2325 17.8959C23.3118 17.7773 23.4723 17.7453 23.591 17.8245L23.8314 17.9847C23.9503 18.0639 23.9824 18.2247 23.9029 18.3435L22.9616 19.7522C22.8824 19.8708 22.7219 19.9028 22.6032 19.8237L22.3627 19.6635C22.2437 19.5843 22.2117 19.4235 22.2911 19.3047Z" fill="#464655"/>
<path d="M21.8438 22.1534L22.7857 20.7439C22.8648 20.6256 23.0246 20.5933 23.1433 20.6718L23.3827 20.83C23.5022 20.909 23.5347 21.07 23.4553 21.1892L22.5141 22.6006C22.4349 22.7195 22.2743 22.7515 22.1554 22.6723L21.9153 22.5123C21.7964 22.4329 21.7643 22.2722 21.8438 22.1534Z" fill="#464655"/>
<path d="M23.2958 19.9787L24.2354 18.5675C24.3147 18.4485 24.4755 18.4163 24.5944 18.4958L24.833 18.6553C24.9516 18.7346 24.9836 18.8951 24.9043 19.0138L23.964 20.4232C23.8849 20.5418 23.7247 20.5739 23.606 20.4952L23.3681 20.3376C23.249 20.2586 23.2166 20.0978 23.2958 19.9787Z" fill="#464655"/>
</g>
<defs>
<clipPath id="clip0_759_1219">
<rect width="30" height="30" fill="white"/>
</clipPath>
</defs>
</svg>
