<svg xmlns="http://www.w3.org/2000/svg" width="50" height="50" viewBox="0 0 50 50" fill="none">
  <path d="M25.2082 43.3333C24.1665 43.3333 22.9165 42.9167 22.0832 42.0833C8.5415 30.2083 8.33317 30 8.33317 29.7917L8.12483 29.5833C5.62483 27.0833 4.1665 23.5417 4.1665 20V19.5833C4.37484 12.0833 10.4165 6.25 17.9165 6.25C20.2082 6.25 23.3332 7.5 25.2082 10C27.0832 7.5 30.4165 6.25 32.7082 6.25C40.2082 6.25 46.0415 12.0833 46.4582 19.5833V20C46.4582 23.75 44.9998 27.0833 42.4998 29.7917L42.2915 30C42.0832 30.2083 40.4165 31.6667 28.5415 42.2917C27.4998 42.9167 26.4582 43.3333 25.2082 43.3333ZM11.4582 29.1667C12.2915 30 16.4582 32.9167 24.1665 39.5833C24.7915 40.2083 25.6248 40.2083 26.2498 39.5833C34.1665 32.5 38.7498 28.5417 39.7915 27.7083L39.9998 27.5C42.0832 25.4167 43.1248 22.7083 43.1248 20V19.5833C42.9165 13.75 38.3332 9.375 32.4998 9.375C31.0415 9.375 28.1248 10.4167 27.0832 12.7083C26.6665 13.5417 25.8332 13.9583 24.9998 13.9583C24.1665 13.9583 23.3332 13.5417 22.9165 12.7083C21.8748 10.625 19.1665 9.375 17.4998 9.375C11.8748 9.375 7.08317 13.9583 6.87484 19.5833V20.2083C6.87484 22.9167 8.12484 25.625 9.99984 27.5L11.4582 29.1667Z" fill="black"/>
</svg>