<svg width="9" height="16" viewBox="0 0 9 16" fill="none" xmlns="http://www.w3.org/2000/svg">
<path d="M7.12715 15.1248C6.82904 15.1237 6.54338 15.0051 6.33215 14.7948L0.332146 8.79477C0.119617 8.58482 0 8.29852 0 7.99977C0 7.70103 0.119617 7.41472 0.332146 7.20477L6.33215 1.20477C6.6126 0.903793 7.03498 0.779899 7.43358 0.881694C7.83218 0.98349 8.14343 1.29474 8.24522 1.69334C8.34702 2.09194 8.22313 2.51432 7.92215 2.79477L2.71715 7.99977L7.92215 13.2048C8.13468 13.4147 8.25429 13.701 8.25429 13.9998C8.25429 14.2985 8.13468 14.5848 7.92215 14.7948C7.71091 15.0051 7.42525 15.1237 7.12715 15.1248Z" fill="black"/>
</svg>
