<svg width="50" height="50" viewBox="0 0 50 50" fill="none" xmlns="http://www.w3.org/2000/svg">
<path d="M41.2919 24.4795C41.2919 23.6165 40.5924 22.917 39.7294 22.917C38.8665 22.917 38.1669 23.6165 38.1669 24.4795C38.2282 28.0802 36.8549 31.5574 34.3498 34.1446C31.8447 36.7317 28.4135 38.2164 24.8127 38.2712C21.2119 38.2164 17.7808 36.7317 15.2757 34.1446C12.7706 31.5574 11.3973 28.0802 11.4586 24.4795C11.4586 23.6165 10.759 22.917 9.89607 22.917C9.03313 22.917 8.33357 23.6165 8.33357 24.4795C8.28625 33.042 14.7349 40.2472 23.2502 41.1462V46.3545C23.2502 47.2174 23.9498 47.917 24.8127 47.917C25.6757 47.917 26.3752 47.2174 26.3752 46.3545V41.3128C34.9548 40.408 41.4258 33.1056 41.2919 24.4795Z" fill="black"/>
<path fill-rule="evenodd" clip-rule="evenodd" d="M35.4166 25.0003C35.4166 30.7533 30.7529 35.417 25 35.417C19.247 35.417 14.5833 30.7533 14.5833 25.0003V14.5837C14.5833 8.83069 19.247 4.16699 25 4.16699C30.7529 4.16699 35.4166 8.83069 35.4166 14.5837V25.0003ZM25 7.29199C20.9729 7.29199 17.7083 10.5566 17.7083 14.5837V25.0003C17.7083 29.0274 20.9729 32.292 25 32.292C29.0271 32.292 32.2916 29.0274 32.2916 25.0003V14.5837C32.2916 10.5566 29.0271 7.29199 25 7.29199Z" fill="black"/>
</svg>
