<svg width="201" height="245" viewBox="0 0 201 245" fill="none" xmlns="http://www.w3.org/2000/svg">
<g opacity="0.25">
<path d="M134.793 138.748C125.472 129.427 112.831 124.191 99.6504 124.191C86.4695 124.191 75.5322 127.724 66.2119 137.044" stroke="black" stroke-width="5"/>
<circle cx="72.2234" cy="108.704" r="8.70435" fill="black"/>
<circle cx="128.777" cy="108.704" r="8.70435" fill="black"/>
<path d="M170.998 42.7834L170.997 42.7825L132.756 4.50214L170.998 42.7834ZM170.998 42.7834C172.256 44.0419 172.969 45.7401 172.999 47.5M170.998 42.7834L172.999 47.5M172.999 47.5H128M172.999 47.5H128M128 47.5V2.50097C129.802 2.53073 131.499 3.24643 132.755 4.50124L128 47.5ZM110.5 2.5V53.125C110.5 59.662 115.838 65 122.375 65H173V190.625C173 194.44 169.94 197.5 166.125 197.5H34.875C31.0604 197.5 28 194.44 28 190.625V9.375C28 5.5604 31.0604 2.5 34.875 2.5H110.5Z" stroke="black" stroke-width="5"/>
</g>
<path opacity="0.25" d="M31.6016 225.641V244.74H29.9902V234.729H27.1758V243.752H25.6289V226.07H27.1758V233.332H29.9902V225.641H31.6016ZM23.1367 227.982V229.379H17.6582V238.574C20.29 238.563 22.1162 238.467 24.2324 238.037L24.3828 239.455C22.084 239.928 20.1289 240.014 17.207 240.014H15.9824V227.982H23.1367ZM49.1113 225.641V233.783H52.1621V235.201H49.1113V244.74H47.4141V225.641H49.1113ZM34.0508 239.648C35.6084 239.648 37.4238 239.648 39.3145 239.584V237.457C37.0908 237.21 35.6406 235.91 35.6621 234.02C35.6406 231.871 37.4668 230.475 40.1738 230.475C42.8379 230.475 44.6855 231.871 44.707 234.02C44.6855 235.91 43.2139 237.21 41.0117 237.479V239.52C42.7949 239.434 44.5889 239.294 46.2539 239.047L46.3613 240.336C42.1934 241.045 37.6816 241.088 34.3301 241.088L34.0508 239.648ZM45.9102 227.982V229.357H34.3945V227.982H39.3145V225.684H41.0117V227.982H45.9102ZM40.1738 231.785C38.4121 231.785 37.2305 232.688 37.2305 234.02C37.2305 235.352 38.4121 236.211 40.1738 236.189C41.9141 236.211 43.0957 235.352 43.0957 234.02C43.0957 232.688 41.9141 231.785 40.1738 231.785ZM74.6133 225.641V244.74H72.916V225.641H74.6133ZM68.9629 227.725C68.9414 233.225 66.3848 238.08 59.9824 241.152L59.0586 239.777C64.2256 237.328 66.8574 233.665 67.2441 229.1H59.9395V227.725H68.9629ZM95.3027 236.168V237.564H77.8145V236.168H85.7207V234.148H80.0918V229.486H91.3496V227.51H80.0273V226.135H93.0469V230.754H81.7676V232.795H93.4551V234.148H87.375V236.168H95.3027ZM93.1543 239.025V244.568H91.457V240.4H79.7695V239.025H93.1543ZM112.598 225.641V244.783H110.9V225.641H112.598ZM102.436 227.123C105.271 227.145 107.312 229.723 107.312 233.783C107.312 237.844 105.271 240.422 102.436 240.422C99.5781 240.422 97.5586 237.844 97.5586 233.783C97.5586 229.723 99.5781 227.145 102.436 227.123ZM102.436 228.627C100.523 228.648 99.1914 230.668 99.1914 233.783C99.1914 236.898 100.523 238.918 102.436 238.918C104.348 238.918 105.68 236.898 105.68 233.783C105.68 230.668 104.348 228.648 102.436 228.627ZM125.188 236.855V239.24H128.668V236.855H130.236V244.482H123.598V236.855H125.188ZM125.188 243.15H128.668V240.529H125.188V243.15ZM135.693 238.359C135.672 240.379 136.875 242.484 139.217 243.344L138.336 244.633C136.574 243.924 135.414 242.581 134.834 240.98C134.222 242.549 133.062 243.902 131.375 244.633L130.494 243.344C132.793 242.398 134.018 240.293 134.018 238.359V236.727H135.693V238.359ZM126.648 226.5C129.205 226.5 131.16 227.95 131.525 230.152H135.521V225.641H137.219V235.76H135.521V231.549H131.547C131.203 233.805 129.237 235.287 126.648 235.287C123.748 235.287 121.686 233.504 121.686 230.883C121.686 228.283 123.748 226.5 126.648 226.5ZM126.648 227.918C124.693 227.918 123.297 229.143 123.297 230.883C123.297 232.645 124.693 233.891 126.648 233.891C128.582 233.891 129.957 232.645 129.957 230.883C129.957 229.143 128.582 227.918 126.648 227.918ZM145.533 227.123C148.133 227.145 150.002 229.368 150.281 232.945H154.557V225.641H156.232V244.783H154.557V234.342H150.303C150.099 238.08 148.197 240.422 145.533 240.422C142.719 240.422 140.742 237.844 140.742 233.783C140.742 229.723 142.719 227.145 145.533 227.123ZM145.533 228.627C143.643 228.648 142.354 230.668 142.354 233.783C142.354 236.898 143.643 238.918 145.533 238.918C147.402 238.918 148.713 236.898 148.713 233.783C148.713 230.668 147.402 228.648 145.533 228.627ZM176.9 240.873V242.291H159.412V240.873H163.752V235.717C162.119 234.868 161.131 233.493 161.131 231.764C161.131 228.799 164.031 226.865 168.113 226.844C172.195 226.865 175.096 228.799 175.096 231.764C175.096 233.461 174.14 234.825 172.561 235.674V240.873H176.9ZM168.113 228.24C164.977 228.219 162.764 229.637 162.764 231.764C162.764 233.891 164.977 235.33 168.113 235.33C171.229 235.33 173.463 233.891 173.463 231.764C173.463 229.637 171.229 228.219 168.113 228.24ZM165.406 240.873H170.863V236.318C170.036 236.544 169.112 236.662 168.113 236.662C167.136 236.662 166.223 236.555 165.406 236.34V240.873ZM181.52 227.445L181.369 238.617H179.564L179.414 227.445H181.52ZM180.467 243.129C179.715 243.129 179.07 242.506 179.092 241.732C179.07 240.98 179.715 240.357 180.467 240.357C181.219 240.357 181.842 240.98 181.842 241.732C181.842 242.506 181.219 243.129 180.467 243.129Z" fill="black"/>
</svg>
