<svg width="51" height="50" viewBox="0 0 51 50" fill="none" xmlns="http://www.w3.org/2000/svg">
<path d="M25.7246 0C26.6659 0 27.429 0.765281 27.429 1.7093V7.40698C27.429 8.351 26.6659 9.11628 25.7246 9.11628C24.7832 9.11628 24.0201 8.351 24.0201 7.40698V1.7093C24.0201 0.765281 24.7832 0 25.7246 0Z" fill="black"/>
<path d="M5.20183 6.19832C5.86747 5.53079 6.94669 5.53079 7.61233 6.19832L12.1576 10.7565C12.8233 11.424 12.8233 12.5063 12.1576 13.1738C11.492 13.8413 10.4128 13.8413 9.74712 13.1738L5.20183 8.61564C4.53618 7.94811 4.53618 6.86584 5.20183 6.19832Z" fill="black"/>
<path d="M37.534 3.48366C37.8837 2.60715 37.4585 1.61239 36.5845 1.26179C35.7105 0.911189 34.7185 1.33752 34.3689 2.21402L32.0962 7.91169C31.7466 8.78819 32.1718 9.78296 33.0458 10.1336C33.9198 10.4842 34.9118 10.0578 35.2614 9.18133L37.534 3.48366Z" fill="black"/>
<path d="M14.8646 1.26179C15.7387 0.911189 16.7306 1.33752 17.0802 2.21402L19.3529 7.91169C19.7025 8.78819 19.2774 9.78296 18.4033 10.1336C17.5293 10.4842 16.5373 10.0578 16.1877 9.18133L13.9151 3.48366C13.5655 2.60715 13.9906 1.61239 14.8646 1.26179Z" fill="black"/>
<path d="M41.702 13.1738L46.2473 8.61564C46.9129 7.94811 46.9129 6.86584 46.2473 6.19832C45.5817 5.53079 44.5024 5.53079 43.8368 6.19832L39.2915 10.7565C38.6259 11.424 38.6259 12.5063 39.2915 13.1738C39.9571 13.8413 41.0364 13.8413 41.702 13.1738Z" fill="black"/>
<path fill-rule="evenodd" clip-rule="evenodd" d="M40.7282 38.7442C41.0067 37.9567 41.097 37.0864 40.9485 36.193L38.1069 19.0949C37.6955 16.6199 35.5609 14.814 33.0636 14.814H18.5249C15.9346 14.814 13.7535 16.7563 13.4473 19.3357L11.4181 36.4287C11.3217 37.2412 11.4194 38.0276 11.6727 38.7442H10.3483C9.50518 38.7442 8.70564 39.1197 8.1659 39.7692L4.37816 44.3274C2.83626 46.1829 4.15198 49 6.56053 49H45.8679C48.3397 49 49.6323 46.0534 47.962 44.2261L43.7955 39.668C43.2574 39.0793 42.4977 38.7442 41.7014 38.7442H40.7282ZM18.5249 18.2326C17.6614 18.2326 16.9344 18.88 16.8323 19.7398L14.8032 36.8328C14.6825 37.8498 15.4745 38.7442 16.4957 38.7442H24.5882V30.4757C22.6022 29.7717 21.1793 27.8723 21.1793 25.6395C21.1793 22.8075 23.4686 20.5116 26.2927 20.5116C29.1168 20.5116 31.4062 22.8075 31.4062 25.6395C31.4062 27.8723 29.9833 29.7717 27.9972 30.4757V38.7442H35.9044C36.9585 38.7442 37.7589 37.7961 37.5859 36.755L34.7443 19.6569C34.6077 18.8351 33.8993 18.2326 33.0636 18.2326H18.5249ZM10.6144 42.1628L7.77358 45.5814H44.5763L41.4514 42.1628H10.6144ZM26.2927 27.3488C27.2341 27.3488 27.9972 26.5836 27.9972 25.6395C27.9972 24.6955 27.2341 23.9302 26.2927 23.9302C25.3514 23.9302 24.5882 24.6955 24.5882 25.6395C24.5882 26.5836 25.3514 27.3488 26.2927 27.3488Z" fill="black"/>
</svg>
