<svg width="14" height="14" viewBox="0 0 14 14" fill="none" xmlns="http://www.w3.org/2000/svg">
<path d="M13.4349 6.20518L8.18486 0.955183C7.8995 0.671157 7.48428 0.560947 7.09563 0.666068C6.70697 0.771189 6.40392 1.07567 6.30063 1.46482C6.19733 1.85397 6.3095 2.26866 6.59486 2.55268L9.91736 5.86768H1.35986C0.738543 5.86768 0.234863 6.37136 0.234863 6.99268C0.234863 7.614 0.738543 8.11768 1.35986 8.11768H9.91736L6.59486 11.4327C6.27353 11.7544 6.17748 12.2379 6.35143 12.6581C6.52539 13.0782 6.93515 13.3523 7.38986 13.3527C7.69178 13.3482 7.97884 13.2209 8.18486 13.0002L13.4349 7.75018C13.8735 7.31096 13.8735 6.59941 13.4349 6.16018V6.20518Z" fill="black"/>
</svg>
