<svg xmlns="http://www.w3.org/2000/svg" width="50" height="50" viewBox="0 0 50 50" fill="none">
<path fill-rule="evenodd" clip-rule="evenodd" d="M25.5208 21.0417C23.0471 21.0417 21.0417 23.0471 21.0417 25.5208C21.0417 27.9946 23.0471 30 25.5208 30C27.9946 30 30 27.9946 30 25.5208C30 23.0471 27.9946 21.0417 25.5208 21.0417ZM25.5208 26.875C24.7729 26.875 24.1667 26.2687 24.1667 25.5208C24.1667 24.7729 24.7729 24.1667 25.5208 24.1667C26.2687 24.1667 26.875 24.7729 26.875 25.5208C26.875 25.88 26.7323 26.2244 26.4784 26.4784C26.2244 26.7323 25.88 26.875 25.5208 26.875Z" fill="black"/>
<path fill-rule="evenodd" clip-rule="evenodd" d="M36.4583 6.25H14.5833C9.98096 6.25 6.25 9.98096 6.25 14.5833V36.4583C6.25 41.0607 9.98096 44.7917 14.5833 44.7917H36.4583C41.0607 44.7917 44.7917 41.0607 44.7917 36.4583V14.5833C44.7917 9.98096 41.0607 6.25 36.4583 6.25ZM38.2083 26.8958C38.214 27.323 38.0468 27.7343 37.7447 28.0364C37.4426 28.3385 37.0313 28.5057 36.6042 28.5C35.9579 28.5106 35.3793 28.9031 35.1307 29.4998C34.8821 30.0964 35.0108 30.7837 35.4583 31.25C35.7598 31.5509 35.9293 31.9594 35.9293 32.3854C35.9293 32.8114 35.7598 33.2199 35.4583 33.5208L33.5208 35.4583C33.2199 35.7598 32.8114 35.9293 32.3854 35.9293C31.9594 35.9293 31.5509 35.7598 31.25 35.4583C30.7837 35.0108 30.0964 34.8821 29.4998 35.1307C28.9031 35.3793 28.5106 35.9579 28.5 36.6042C28.5057 37.0313 28.3385 37.4427 28.0364 37.7447C27.7343 38.0468 27.323 38.214 26.8958 38.2083H24.1458C23.7187 38.214 23.3073 38.0468 23.0053 37.7447C22.7032 37.4427 22.536 37.0313 22.5417 36.6042C22.5311 35.9579 22.1385 35.3793 21.5419 35.1307C20.9452 34.8821 20.258 35.0108 19.7917 35.4583C19.4907 35.7598 19.0822 35.9293 18.6562 35.9293C18.2303 35.9293 17.8218 35.7598 17.5208 35.4583L15.5833 33.5208C15.2818 33.2199 15.1124 32.8114 15.1124 32.3854C15.1124 31.9594 15.2818 31.5509 15.5833 31.25C16.0309 30.7837 16.1595 30.0964 15.9109 29.4998C15.6623 28.9031 15.0838 28.5106 14.4375 28.5C14.0103 28.5057 13.599 28.3385 13.2969 28.0364C12.9949 27.7343 12.8277 27.323 12.8333 26.8958V24.1458C12.8277 23.7187 12.9949 23.3074 13.2969 23.0053C13.599 22.7032 14.0103 22.536 14.4375 22.5417C15.0838 22.5311 15.6623 22.1385 15.9109 21.5419C16.1595 20.9452 16.0309 20.258 15.5833 19.7917C15.2818 19.4907 15.1124 19.0822 15.1124 18.6563C15.1124 18.2303 15.2818 17.8218 15.5833 17.5208L17.5208 15.5833C17.8218 15.2818 18.2303 15.1124 18.6562 15.1124C19.0822 15.1124 19.4907 15.2818 19.7917 15.5833C20.258 16.0309 20.9452 16.1595 21.5419 15.9109C22.1385 15.6623 22.5311 15.0838 22.5417 14.4375C22.536 14.0103 22.7032 13.599 23.0053 13.2969C23.3073 12.9949 23.7187 12.8277 24.1458 12.8333H26.8958C27.323 12.8277 27.7343 12.9949 28.0364 13.2969C28.3385 13.599 28.5057 14.0103 28.5 14.4375C28.5106 15.0838 28.9031 15.6623 29.4998 15.9109C30.0964 16.1595 30.7837 16.0309 31.25 15.5833C31.5509 15.2818 31.9594 15.1124 32.3854 15.1124C32.8114 15.1124 33.2199 15.2818 33.5208 15.5833L35.4583 17.5208C35.7598 17.8218 35.9293 18.2303 35.9293 18.6563C35.9293 19.0822 35.7598 19.4907 35.4583 19.7917C35.0108 20.258 34.8821 20.9452 35.1307 21.5419C35.3793 22.1385 35.9579 22.5311 36.6042 22.5417C37.0313 22.536 37.4426 22.7032 37.7447 23.0053C38.0468 23.3074 38.214 23.7187 38.2083 24.1458V26.8958Z" fill="black"/>
</svg>