<svg width="75" height="75" viewBox="0 0 75 75" fill="none" xmlns="http://www.w3.org/2000/svg">
<path fill-rule="evenodd" clip-rule="evenodd" d="M8.80376 42.2403C8.80376 26.7073 21.3957 14.1153 36.9288 14.1153C52.4618 14.1153 65.0538 26.7073 65.0538 42.2403C65.0538 57.7733 52.4618 70.3653 36.9288 70.3653C21.3957 70.3653 8.80376 57.7733 8.80376 42.2403ZM13.4913 42.2403C13.4913 55.1845 23.9846 65.6778 36.9288 65.6778C43.1448 65.6778 49.1062 63.2085 53.5016 58.8131C57.897 54.4178 60.3663 48.4563 60.3663 42.2403C60.3663 29.2961 49.8729 18.8028 36.9288 18.8028C23.9846 18.8028 13.4913 29.2961 13.4913 42.2403Z" fill="black"/>
<path d="M29.585 30.3341C28.6615 29.4736 27.2225 29.499 26.3299 30.3915C25.4374 31.284 25.412 32.7231 26.2725 33.6466L34.585 41.9591V54.7403C34.585 56.0347 35.6343 57.0841 36.9288 57.0841C38.2232 57.0841 39.2725 56.0347 39.2725 54.7403V40.9903C39.272 40.3689 39.0247 39.7732 38.585 39.3341L29.585 30.3341Z" fill="black"/>
<path d="M66.71 18.8028C62.8518 13.6575 57.7272 9.59874 51.835 7.02157C51.2599 6.7609 50.604 6.74327 50.0158 6.97268C49.4276 7.2021 48.9568 7.65914 48.71 8.24032C48.4402 8.81421 48.4178 9.47374 48.6483 10.0646C48.8787 10.6554 49.3416 11.1257 49.9288 11.3653C55.0755 13.6298 59.5526 17.1813 62.9288 21.6778C63.3714 22.268 64.066 22.6153 64.8038 22.6153C65.3112 22.6176 65.8054 22.4529 66.21 22.1466C66.7305 21.7775 67.0781 21.2123 67.1724 20.5812C67.2668 19.9502 67.0998 19.308 66.71 18.8028Z" fill="black"/>
<path d="M10.8975 21.6153C14.2737 17.1188 18.7507 13.5673 23.8975 11.3028C24.4846 11.0632 24.9476 10.5929 25.178 10.0021C25.4084 9.41124 25.3861 8.75171 25.1163 8.17782C24.8695 7.59664 24.3987 7.1396 23.8105 6.91018C23.2222 6.68077 22.5663 6.6984 21.9913 6.95907C16.1032 9.55831 10.9891 13.6388 7.14751 18.8028C6.47249 19.8091 6.67572 21.1639 7.61626 21.9278C8.02088 22.2341 8.51502 22.3989 9.02251 22.3966C9.73375 22.4346 10.4237 22.1471 10.8975 21.6153Z" fill="black"/>
</svg>
